<?xml version="1.0" standalone="no"?>
<!DOCTYPE svg PUBLIC "-//W3C//DTD SVG 1.1//EN" "http://www.w3.org/Graphics/SVG/1.1/DTD/svg11.dtd" >
<svg>
<metadata>
Created by FontForge 20090622 at Thu Jan 23 07:23:35 2020
 By deploy user
Copyright &#194;&#169; 2018 Monotype GmbH. All rights reserved.
</metadata>
<defs>
<font id="Avenir-Medium" horiz-adv-x="0" >
  <font-face 
    font-family="Avenir Medium"
    font-weight="500"
    font-stretch="normal"
    units-per-em="1000"
    panose-1="2 11 6 3 2 2 3 2 2 4"
    ascent="800"
    descent="-200"
    x-height="474"
    cap-height="708"
    bbox="-174 -466 1402 1084"
    underline-thickness="50"
    underline-position="-75"
    unicode-range="U+000D-U+FEFF"
  />
<missing-glyph horiz-adv-x="512" 
d="M512 718v-718h-512v718h512zM462 50v617h-412v-617h412zM259 609q55 0 89.5 -36.5t34.5 -94.5q0 -38 -14 -63.5t-51 -57.5q-35 -32 -41 -50q-6 -14 -6 -73h-46l-2 19q0 52 13 79.5t51 63.5q45 42 45 78q0 35 -23 60t-53 25q-70 0 -82 -95l-50 8q6 67 41 102t94 35z
M222 184h56v-67h-56v67z" />
    <glyph glyph-name="uniFB51" unicode="&#x671;" horiz-adv-x="283" arabic-form="final" 
d="M73 756h88v-573q0 -101 122 -101q20 0 20 -42q0 -40 -20 -40q-110 0 -160 43.5t-50 134.5v578zM-24 808v43h48v101h42v-43q35 47 87 47q37 0 59 -24t22 -64q0 -25 -11 -60h-247zM62 851h127q3 11 3 19q0 20 -12.5 31.5t-32.5 11.5q-51 0 -85 -62z" />
    <glyph glyph-name="uniFB57" unicode="&#x67e;" horiz-adv-x="1005" arabic-form="final" 
d="M1005 82q20 0 20 -42q0 -40 -20 -40q-114 0 -156 67q-49 -67 -159 -67h-421q-107 0 -169 52t-62 140q0 71 32 158l79 -21q-22 -85 -22 -121q0 -126 155 -126h392q62 0 90.5 29t28.5 97v202h88v-217q0 -111 124 -111zM424 -139q0 -23 -15 -38.5t-38 -15.5q-22 0 -37 15.5
t-15 38.5t14.5 37.5t37.5 14.5t38 -14.5t15 -37.5zM518 -87q22 0 36.5 -14.5t14.5 -37.5t-14.5 -38.5t-36.5 -15.5q-23 0 -38.5 15.5t-15.5 38.5q0 22 15.5 37t38.5 15zM446 -203q23 0 38 -15.5t15 -38.5t-15 -37.5t-38 -14.5t-38 15t-15 37q0 23 15 38.5t38 15.5z" />
    <glyph glyph-name="uniFB58" unicode="&#x67e;" horiz-adv-x="312" arabic-form="initial" 
d="M0 0v82h10q61 0 85.5 29t24.5 100v199h88v-213q0 -103 -49.5 -150t-149.5 -47h-9zM50 -193q-22 0 -37 15.5t-15 38.5t15 37.5t37 14.5q23 0 38 -14.5t15 -37.5t-15 -38.5t-38 -15.5zM197 -193q-23 0 -38.5 15.5t-15.5 38.5q0 22 15.5 37t38.5 15q22 0 36.5 -14.5
t14.5 -37.5t-14.5 -38.5t-36.5 -15.5zM125 -309q-23 0 -38 15t-15 37q0 23 15 38.5t38 15.5t38 -15.5t15 -38.5t-15 -37.5t-38 -14.5z" />
    <glyph glyph-name="uniFB59" unicode="&#x67e;" horiz-adv-x="332" arabic-form="medial" 
d="M332 82q20 0 20 -42q0 -40 -20 -40q-114 0 -156 67q-47 -67 -167 -67h-9v82h10q61 0 85.5 29t24.5 100v199h88v-217q0 -111 124 -111zM130 -139q0 -23 -15 -38.5t-38 -15.5q-22 0 -37 15.5t-15 38.5t14.5 37.5t37.5 14.5t38 -14.5t15 -37.5zM224 -87q22 0 36.5 -14.5
t14.5 -37.5t-14.5 -38.5t-36.5 -15.5q-23 0 -38.5 15.5t-15.5 38.5q0 22 15.5 37t38.5 15zM152 -203q23 0 38 -15.5t15 -38.5t-15 -37.5t-38 -14.5t-38 15t-15 37q0 23 15 38.5t38 15.5z" />
    <glyph glyph-name="uniFB67" unicode="&#x679;" horiz-adv-x="1005" arabic-form="final" 
d="M38 192q0 71 32 158l79 -21q-22 -85 -22 -121q0 -126 155 -126h392q62 0 90.5 29t28.5 97v202h88v-217q0 -111 124 -111q20 0 20 -42q0 -40 -20 -40q-114 0 -156 67q-49 -67 -159 -67h-421q-107 0 -169 52t-62 140zM311 479h48v171h44v-100q39 46 89 46q41 0 66 -27.5
t25 -72.5q0 -28 -11 -61h-261v44zM489 551q-25 0 -49.5 -18.5t-38.5 -53.5h136q2 12 2 18q0 24 -14 39t-36 15z" />
    <glyph glyph-name="uniFB68" unicode="&#x679;" horiz-adv-x="256" arabic-form="initial" 
d="M0 82q63 0 89 28.5t26 100.5v199h88v-213q0 -104 -50 -150.5t-153 -46.5v82zM13 532v44h48v171h44v-100q39 46 89 46q41 0 66 -27.5t25 -72.5q0 -28 -11 -61h-261zM191 648q-25 0 -49.5 -18.5t-38.5 -53.5h136q2 12 2 18q0 24 -14 39t-36 15z" />
    <glyph glyph-name="uniFB69" unicode="&#x679;" horiz-adv-x="327" arabic-form="medial" 
d="M171 67q-47 -67 -171 -67v82q63 0 89 28.5t26 100.5v199h88v-217q0 -111 124 -111q20 0 20 -42q0 -40 -20 -40q-114 0 -156 67zM274 532h-261v44h48v171h44v-100q39 46 89 46q41 0 66 -27.5t25 -72.5q0 -28 -11 -61zM191 648q-25 0 -49.5 -18.5t-38.5 -53.5h136
q2 12 2 18q0 24 -14 39t-36 15z" />
    <glyph glyph-name="uniFB6B" unicode="&#x6a4;" horiz-adv-x="1081" arabic-form="final" 
d="M39 192q0 71 32 158l79 -21q-22 -85 -22 -121q0 -126 155 -126h331q29 0 42 2q-75 59 -75 151q0 80 58 133t154 53q95 0 151 -52.5t56 -132.5q0 -94 -75 -153q6 0 19.5 -0.5t21.5 -0.5h115q20 0 20 -42q0 -40 -20 -40h-112q-95 0 -180 18q-86 -18 -177 -18h-342
q-107 0 -169 52t-62 140zM791 336q-54 0 -87 -27.5t-33 -73.5q0 -49 36 -86.5t83 -48.5q44 8 82.5 46.5t38.5 88.5q0 46 -33 73.5t-87 27.5zM666 589q0 23 15 38t37 15q23 0 38 -15t15 -38t-15 -38.5t-38 -15.5q-22 0 -37 15.5t-15 38.5zM865 535q-23 0 -38.5 15.5
t-15.5 38.5t15.5 38t38.5 15q22 0 36.5 -15t14.5 -38t-14.5 -38.5t-36.5 -15.5zM742 708q0 22 15 37t37 15q23 0 38 -15t15 -37q0 -23 -15 -38.5t-38 -15.5q-22 0 -37 15.5t-15 38.5z" />
    <glyph glyph-name="uniFB6C" unicode="&#x6a4;" horiz-adv-x="561" arabic-form="initial" 
d="M0 0v82h118q-37 50 -37 124q0 93 60.5 154t161.5 61q102 0 151 -63.5t49 -155.5q0 -97 -42 -202h-461zM296 336q-60 0 -92.5 -36.5t-32.5 -94.5q0 -66 44 -123h182q17 65 17 113q0 65 -29 103t-89 38zM228 535q-22 0 -37 15.5t-15 38.5t15 38t37 15q23 0 38 -15t15 -38
t-15 -38.5t-38 -15.5zM321 589q0 23 15.5 38t38.5 15q22 0 36.5 -15t14.5 -38t-14.5 -38.5t-36.5 -15.5q-23 0 -38.5 15.5t-15.5 38.5zM304 654q-22 0 -37 15.5t-15 38.5q0 22 15 37t37 15q23 0 38 -15t15 -37q0 -23 -15 -38.5t-38 -15.5z" />
    <glyph glyph-name="uniFB6D" unicode="&#x6a4;" horiz-adv-x="581" arabic-form="medial" 
d="M112 0h-112v82h114q29 0 42 2q-75 59 -75 151q0 80 58 133t154 53q95 0 151 -52.5t56 -132.5q0 -94 -75 -153q6 0 19.5 -0.5t21.5 -0.5h115q20 0 20 -42q0 -40 -20 -40h-112q-95 0 -180 18q-86 -18 -177 -18zM171 235q0 -49 36 -86.5t83 -48.5q44 8 82.5 46.5t38.5 88.5
q0 46 -33 73.5t-87 27.5t-87 -27.5t-33 -73.5zM166 589q0 23 15 38t37 15q23 0 38 -15t15 -38t-15 -38.5t-38 -15.5q-22 0 -37 15.5t-15 38.5zM365 535q-23 0 -38.5 15.5t-15.5 38.5t15.5 38t38.5 15q22 0 36.5 -15t14.5 -38t-14.5 -38.5t-36.5 -15.5zM294 654
q-22 0 -37 15.5t-15 38.5q0 22 15 37t37 15q23 0 38 -15t15 -37q0 -23 -15 -38.5t-38 -15.5z" />
    <glyph glyph-name="uniFB7B" unicode="&#x686;" horiz-adv-x="667" arabic-form="final" 
d="M37 -88q0 77 49.5 123.5t133.5 46.5h250q6 26 6 59q0 91 -47 143t-142 52q-50 0 -105 -17l-20 78q66 24 137 24q131 0 196.5 -73.5t65.5 -199.5q0 -35 -4 -66h110q20 0 20 -42q0 -40 -20 -40h-439q-49 0 -74.5 -22.5t-25.5 -64.5q0 -90 119 -90q17 0 43 4l14 -81
q-27 -6 -65 -6q-89 0 -145.5 45.5t-56.5 126.5zM364 -200q-16 0 -26.5 10t-10.5 26t10.5 27t26.5 11t27 -11t11 -27t-10.5 -26t-27.5 -10zM415 -119q-17 0 -27.5 10.5t-10.5 27.5q0 16 10.5 26t27.5 10q16 0 26 -10t10 -26q0 -17 -10 -27.5t-26 -10.5zM276 -81q0 16 10 26
t26 10t26.5 -10t10.5 -26q0 -17 -10.5 -27.5t-26.5 -10.5t-26 10.5t-10 27.5z" />
    <glyph glyph-name="uniFB7C" unicode="&#x686;" horiz-adv-x="490" arabic-form="initial" 
d="M0 0v82h338q6 28 6.5 59t-8 67t-28 63.5t-58.5 46t-93 18.5q-50 0 -105 -17l-20 78q65 24 138 24q169 0 228.5 -115.5t12.5 -305.5h-411zM123 -193q-22 0 -37 15.5t-15 38.5t14.5 37.5t37.5 14.5t38 -14.5t15 -37.5t-15 -38.5t-38 -15.5zM270 -193q-23 0 -38.5 15.5
t-15.5 38.5q0 22 15.5 37t38.5 15q22 0 36.5 -14.5t14.5 -37.5t-14.5 -38.5t-36.5 -15.5zM198 -309q-23 0 -38 15t-15 37q0 23 15 38.5t38 15.5t38 -15.5t15 -38.5t-15 -37.5t-38 -14.5z" />
    <glyph glyph-name="uniFB7D" unicode="&#x686;" horiz-adv-x="535" arabic-form="medial" 
d="M0 82h338q6 28 6.5 59t-8 67t-28 63.5t-58.5 46t-93 18.5q-50 0 -105 -17l-20 78q65 24 138 24q150 0 213.5 -91.5t43.5 -247.5h108q20 0 20 -42q0 -40 -20 -40h-535v82zM145 -257q0 23 15 38.5t38 15.5t38 -15.5t15 -38.5t-15 -37.5t-38 -14.5t-38 15t-15 37zM216 -139
q0 22 15.5 37t38.5 15q22 0 36.5 -14.5t14.5 -37.5t-14.5 -38.5t-36.5 -15.5q-23 0 -38.5 15.5t-15.5 38.5zM71 -139q0 23 14.5 37.5t37.5 14.5t38 -14.5t15 -37.5t-15 -38.5t-38 -15.5q-22 0 -37 15.5t-15 38.5z" />
    <glyph glyph-name="uniFB89" unicode="&#x688;" horiz-adv-x="549" arabic-form="final" 
d="M39 0v82h325v14q0 76 -53 146.5t-141 126.5l54 71q125 -83 175.5 -167.5t52.5 -190.5h97q20 0 20 -42q0 -40 -20 -40h-510zM45 573h48v171h44v-100q39 46 89 46q41 0 66 -27.5t25 -72.5q0 -28 -11 -61h-261v44zM135 573h136q2 12 2 18q0 24 -14 39t-36 15
q-25 0 -49.5 -18.5t-38.5 -53.5z" />
    <glyph glyph-name="uniFB8B" unicode="&#x698;" horiz-adv-x="350" arabic-form="final" 
d="M181 643q-22 0 -37 15.5t-15 38.5q0 22 15 37t37 15q23 0 38 -15t15 -37q0 -23 -15 -38.5t-38 -15.5zM105 524q-22 0 -37 15.5t-15 38.5t15 38t37 15q23 0 38 -15t15 -38t-15 -38.5t-38 -15.5zM198 578q0 23 15.5 38t38.5 15q22 0 36.5 -15t14.5 -38t-14.5 -38.5
t-36.5 -15.5q-23 0 -38.5 15.5t-15.5 38.5zM350 82q20 0 20 -42q0 -40 -20 -40h-132q-32 -157 -206 -175l-16 80q75 12 108 46t33 108v351h88v-328h125z" />
    <glyph glyph-name="uniFB8D" unicode="&#x691;" horiz-adv-x="350" arabic-form="final" 
d="M12 -175l-16 80q75 12 108 46t33 108v351h88v-328h125q20 0 20 -42q0 -40 -20 -40h-132q-32 -157 -206 -175zM295 532h-261v44h48v171h44v-100q39 46 89 46q41 0 66 -27.5t25 -72.5q0 -28 -11 -61zM124 576h136q2 12 2 18q0 24 -14 39t-36 15q-25 0 -49.5 -18.5
t-38.5 -53.5z" />
    <glyph glyph-name="uniFB8F" unicode="&#x6a9;" horiz-adv-x="921" arabic-form="final" 
d="M38 192q0 71 32 158l79 -21q-22 -85 -22 -121q0 -126 155 -126h429v27q0 105 -65.5 168t-227.5 109v85l283 273l57 -58l-251 -244q87 -28 145.5 -64t89.5 -82t43 -93.5t12 -109.5v-11h124q20 0 20 -42q0 -40 -20 -40h-652q-107 0 -169 52t-62 140z" />
    <glyph glyph-name="uniFB90" unicode="&#x6a9;" horiz-adv-x="473" arabic-form="initial" 
d="M126 442q87 -28 145.5 -64t89.5 -82t43 -93.5t12 -109.5v-93h-416v82h330v27q0 105 -65.5 168t-227.5 109v85l283 273l57 -58z" />
    <glyph glyph-name="uniFB91" unicode="&#x6a9;" horiz-adv-x="532" arabic-form="medial" 
d="M0 0v82h330v27q0 105 -65.5 168t-227.5 109v85l283 273l57 -58l-251 -244q87 -28 145.5 -64t89.5 -82t43 -93.5t12 -109.5v-11h116q20 0 20 -42q0 -40 -20 -40h-532z" />
    <glyph glyph-name="uniFB93" unicode="&#x6af;" horiz-adv-x="921" arabic-form="final" 
d="M269 0q-107 0 -169 52t-62 140q0 71 32 158l79 -21q-22 -85 -22 -121q0 -126 155 -126h429v27q0 105 -65.5 168t-227.5 109v85l283 273l57 -58l-251 -244q87 -28 145.5 -64t89.5 -82t43 -93.5t12 -109.5v-11h124q20 0 20 -42q0 -40 -20 -40h-652zM415 534l-55 55l255 242
l53 -54z" />
    <glyph glyph-name="uniFB94" unicode="&#x6af;" horiz-adv-x="473" arabic-form="initial" 
d="M34 534l-55 55l255 242l53 -54zM126 442q87 -28 145.5 -64t89.5 -82t43 -93.5t12 -109.5v-93h-416v82h330v27q0 105 -65.5 168t-227.5 109v85l283 273l57 -58z" />
    <glyph glyph-name="uniFB95" unicode="&#x6af;" horiz-adv-x="532" arabic-form="medial" 
d="M0 82h330v27q0 105 -65.5 168t-227.5 109v85l283 273l57 -58l-251 -244q87 -28 145.5 -64t89.5 -82t43 -93.5t12 -109.5v-11h116q20 0 20 -42q0 -40 -20 -40h-532v82zM-21 589l255 242l53 -54l-253 -243z" />
    <glyph glyph-name="uniFB9F" unicode="&#x6ba;" horiz-adv-x="705" arabic-form="final" 
d="M705 82q20 0 20 -42q0 -40 -20 -40h-131q-22 -82 -92.5 -124.5t-173.5 -42.5q-131 0 -200.5 66.5t-69.5 169.5q0 81 43 180l78 -28q-31 -79 -31 -141q0 -81 48 -121.5t135 -40.5q185 0 185 180v239h88v-255h121z" />
    <glyph glyph-name="uniFBA7" unicode="&#x6c1;" horiz-adv-x="578" arabic-form="final" 
d="M107 -13l-68 30q53 117 122.5 185t146.5 68q46 0 79 -23.5t67 -80.5q31 -52 54.5 -68t69.5 -16q20 0 20 -43q0 -39 -20 -39q-73 0 -111.5 22t-77.5 87q-27 45 -45 61.5t-43 16.5q-48 0 -100 -54.5t-94 -145.5z" />
    <glyph glyph-name="uniFBA8" unicode="&#x6c1;" horiz-adv-x="256" arabic-form="initial" 
d="M0 0v82q63 0 89 28.5t26 100.5v199h88v-213q0 -104 -50 -150.5t-153 -46.5zM90 -262q-35 51 -35 116q0 52 24 103l61 -15q-13 -36 -13 -70q0 -48 30 -101z" />
    <glyph glyph-name="uniFBA9" unicode="&#x6c1;" horiz-adv-x="415" arabic-form="medial" 
d="M0 82h135q-13 -43 -14 -82q-1 -6 -1 -17q0 -100 70 -134v5q0 102 55 165t157 63h13q20 0 20 -42q0 -40 -20 -40h-11q-141 0 -141 -165q0 -36 7 -75q-101 2 -168 54.5t-67 153.5q0 10 2 32h-37v82z" />
    <glyph glyph-name="uniFBAB" unicode="&#x6be;" horiz-adv-x="660" arabic-form="final" 
d="M39 29l24 78q66 -25 149 -25h16v106q0 104 48.5 166t143.5 62q90 0 135.5 -56.5t45.5 -134.5q0 -83 -46 -143h105q20 0 20 -42q0 -40 -20 -40h-78q26 -46 26 -90q0 -68 -50 -109t-138 -41q-192 0 -192 191v49h-16q-101 0 -173 29zM316 82h71q57 0 91.5 38.5t34.5 98.5
q0 50 -26 81t-74 31q-46 0 -71.5 -32.5t-25.5 -98.5v-118zM490 0h-174v-42q0 -60 25.5 -87t81.5 -27q95 0 95 76q0 41 -28 80z" />
    <glyph glyph-name="uniFBAC" unicode="&#x6be;" horiz-adv-x="630" arabic-form="initial" 
d="M236 96q39 14 63.5 45t24.5 77t-24 75t-60 29t-60 -29.5t-24 -73.5q0 -84 80 -123zM343 82h156q3 18 3 39q0 125 -125 183q24 -39 24 -87q0 -84 -58 -135zM66 361l13 74q92 -6 165.5 -18.5t138 -37t107.5 -59.5t67.5 -87.5t24.5 -120.5q0 -55 -14 -112h-199
q-81 0 -133 19q-53 -19 -136 -19h-100v82h98q22 0 34 1q-53 51 -53 132q0 41 19 79.5t54 61.5q-28 3 -86 5z" />
    <glyph glyph-name="uniFBAD" unicode="&#x6be;" horiz-adv-x="508" arabic-form="medial" 
d="M0 82h76v106q0 104 48.5 166t143.5 62q90 0 135.5 -56.5t45.5 -134.5q0 -81 -47 -143h106q20 0 20 -42q0 -40 -20 -40h-78q26 -46 26 -90q0 -68 -50 -109t-138 -41q-192 0 -192 191v49h-76v82zM164 81h71q12 0 17 1q50 6 79.5 44t29.5 93q0 50 -26 81t-74 31
q-46 0 -71.5 -32.5t-25.5 -98.5v-119zM164 0v-42q0 -60 25.5 -87t81.5 -27q95 0 95 76q0 41 -28 80h-174z" />
    <glyph glyph-name="uniFBAF" unicode="&#x6d2;" horiz-adv-x="423" arabic-form="final" 
d="M352 -260q-168 0 -246 41t-78 132q0 83 61 126t173 43h161q20 0 20 -42q0 -40 -20 -40h-170q-141 0 -141 -84q0 -50 57.5 -71t202.5 -21q171 0 362 33l5 -82q-224 -35 -387 -35z" />
    <glyph glyph-name="uniFBB1" unicode="&#x6d3;" horiz-adv-x="423" arabic-form="final" 
d="M28 -87q0 83 61 126t173 43h161q20 0 20 -42q0 -40 -20 -40h-170q-141 0 -141 -84q0 -50 57.5 -71t202.5 -21q171 0 362 33l5 -82q-224 -35 -387 -35q-168 0 -246 41t-78 132zM341 206h-212v55h45q-17 31 -17 62q0 44 30 70t79 26q30 0 63 -7l-10 -54q-27 5 -42 5
q-26 0 -44.5 -12.5t-18.5 -38.5q0 -23 17 -51h110v-55z" />
    <glyph glyph-name="uniFBE8" unicode="&#x649;" horiz-adv-x="256" arabic-form="initial" 
d="M0 0v82q63 0 89 28.5t26 100.5v199h88v-213q0 -104 -50 -150.5t-153 -46.5z" />
    <glyph glyph-name="uniFBE9" unicode="&#x649;" horiz-adv-x="327" arabic-form="medial" 
d="M327 82q20 0 20 -42q0 -40 -20 -40q-114 0 -156 67q-47 -67 -171 -67v82q63 0 89 28.5t26 100.5v199h88v-217q0 -111 124 -111z" />
    <glyph glyph-name="uniFBFD" unicode="&#x6cc;" horiz-adv-x="769" arabic-form="final" 
d="M769 82q20 0 20 -42q0 -40 -20 -40h-77q38 -31 38 -83q0 -74 -95.5 -125.5t-254.5 -51.5q-343 0 -343 236q0 57 24 132l81 -21q-15 -59 -15 -100q0 -84 59 -122.5t200 -38.5q120 0 187 28t67 72q0 28 -27.5 53.5t-83.5 39.5l-125 32l22 72l135 -32q38 -9 97 -9h111z" />
    <glyph glyph-name="uniFBFE" unicode="&#x6cc;" horiz-adv-x="291" arabic-form="initial" 
d="M0 0v82h10q61 0 85.5 29t24.5 100v199h88v-213q0 -103 -49.5 -150t-149.5 -47h-9zM50 -192q-22 0 -37 15t-15 38t14.5 38t37.5 15t38 -15t15 -38t-15 -38t-38 -15zM197 -192q-23 0 -38.5 15t-15.5 38t15.5 38t38.5 15q22 0 36.5 -15t14.5 -38t-14.5 -38t-36.5 -15z" />
    <glyph glyph-name="uniFBFF" unicode="&#x6cc;" horiz-adv-x="332" arabic-form="medial" 
d="M332 82q20 0 20 -42q0 -40 -20 -40q-114 0 -156 67q-47 -67 -167 -67h-9v82h10q61 0 85.5 29t24.5 100v199h88v-217q0 -111 124 -111zM77 -86q23 0 38 -15t15 -38t-15 -38t-38 -15q-22 0 -37 15t-15 38t14.5 38t37.5 15zM224 -86q22 0 36.5 -15t14.5 -38t-14.5 -38
t-36.5 -15q-23 0 -38.5 15t-15.5 38t15.5 38t38.5 15z" />
    <glyph glyph-name="uniFDF2" unicode="&#xfdf2;" horiz-adv-x="1412" arabic-form="isolated" 
d="M37 201q0 92 64.5 150.5t178.5 58.5h175v-230q0 -58 22 -78t80 -20q67 0 88.5 27t21.5 102v375h88v-394q0 -110 125 -110q66 0 88 27t22 102v545h88v-577q0 -94 -49.5 -136.5t-148.5 -42.5q-112 0 -155 63q-46 -63 -168 -63q-135 0 -169 50q-64 -31 -137 -31
q-96 0 -155 48t-59 134zM1251 0v756h88v-756h-88zM265 328q-62 0 -99.5 -30.5t-37.5 -87.5q0 -107 132 -107q63 0 102 23v202h-97zM595 701q0 24 11 50l29 -8q-4 -13 -4 -27q0 -35 34 -35q28 0 28 36q0 12 -1 18l30 7q6 -20 6 -36v-3q12 -14 33 -14q29 0 29 29q0 18 -8 44
l31 12q15 -30 15 -60q0 -31 -16.5 -50.5t-45.5 -19.5t-48 19q-16 -28 -53 -28q-34 0 -52 18t-18 48zM688 791v145h43v-132l-37 -13h-6z" />
    <glyph glyph-name="uniFDFA" unicode="&#xfdfa;" horiz-adv-x="1134" arabic-form="isolated" 
d="M116 188q-35 0 -56.5 18.5t-21.5 51.5q0 40 26 62.5t77 22.5h68v-78q0 -15 6.5 -21t23.5 -6h3q18 0 26 8t8 28v69h57v-73q0 -32 32 -32h136v70h58v-70h158q17 0 24.5 8t7.5 28v147h57v-155q0 -28 30 -28h124q-10 18 -10 38q0 35 22.5 55.5t64.5 20.5q22 0 48 -8l-10 -48
q-18 4 -29 4q-36 0 -36 -32q0 -16 10 -30h74v-56h-259q-39 0 -54 20q-17 -20 -62 -20h-160v-195q0 -29 29 -29h13q25 0 25 26v57h57v-61q0 -22 24 -22q23 0 23 25v58h57v-62q0 -21 23 -21q24 0 24 26v83h57v-102q0 -62 -72 -62q-29 0 -49 20q-19 -20 -52 -20q-35 0 -52 20
q-23 -20 -61 -20h-17q-37 0 -54 20q-17 -20 -62 -20h-183q-24 -26 -70 -26h-47q-12 10 -20 27l-15 -1q-23 -1 -23 -28v-65h-56v77q0 71 70 71h10v7q0 38 24 62.5t65 24.5q38 0 60.5 -23t22.5 -63v-8h159q18 0 25 8t7 27v189h-139q-40 0 -53 21q-20 -21 -65 -21h-11
q-44 0 -62 17q-22 -11 -55 -11zM535 351q-56 0 -84.5 21t-28.5 58q0 18 8 38l54 -10q-3 -9 -3 -18q0 -33 57 -33q39 0 60 11.5t21 28.5q0 9 -11.5 15t-47.5 16l14 49q40 -10 71 -10q17 0 23.5 8t6.5 29v168h57v-177q0 -28 30 -28q28 0 28 29v59h57v-63q0 -21 19 -24
q56 113 139 113q42 0 65 -26t23 -73q0 -32 -12 -70h-206q-37 0 -51 18q-16 -18 -61 -18q-35 0 -48 19q-15 -19 -50 -19q13 -10 13 -29q0 -35 -38.5 -58.5t-104.5 -23.5zM32 537q0 84 103 84h67v-83q0 -21 27 -21q16 0 21.5 7t5.5 24v126h57v-129q0 -28 28 -28q16 0 22 7.5
t6 27.5v170h57v-181q0 -45 -20 -62t-65 -17q-38 0 -53 19q-16 -19 -62 -19q-45 0 -61 17q-24 -12 -56 -12q-35 0 -56 18.5t-21 51.5zM998 -89q-34 0 -55.5 21t-21.5 58q0 36 23 58.5t63 22.5t59.5 -24t19.5 -63v-58q0 -52 -30 -76t-94 -24q-3 0 -10 0.5t-11 0.5l-2 52
q8 -1 21 -1q70 0 70 38q-12 -5 -32 -5zM468 722h57v-238h-57v238zM1001 579q-40 0 -77 -62l110 -1q4 16 4 22q0 41 -37 41zM190 -42q2 -19 12 -33h15q35 0 41 33q0 43 -34 43t-34 -43zM974 -12q0 -33 33 -33q13 0 27 4v28q0 37 -28 37q-32 0 -32 -36zM260 686q-26 0 -26 28
q0 10 4 21l20 -4q-3 -9 -3 -11q0 -10 8 -10q9 0 9 10v8l18 3q1 -8 1 -16q6 -3 7 -3q9 0 9 10q0 8 -3 14l22 7q6 -15 6 -26q0 -14 -8 -21.5t-20 -7.5q-10 0 -19 7q-9 -9 -25 -9zM94 266q0 -29 33 -29q6 0 27 6v55h-21q-39 0 -39 -32zM87 545q0 -28 34 -28q17 0 26 6v54h-20
q-40 0 -40 -32zM234 130q0 12 8 20.5t21 8.5q12 0 19.5 -8.5t7.5 -20.5t-7.5 -20t-19.5 -8q-13 0 -21 8t-8 20zM333 102q-12 0 -20 8t-8 20t8 20.5t20 8.5q11 0 18.5 -8.5t7.5 -20.5t-7.5 -20t-18.5 -8z" />
    <glyph glyph-name="uniFE82" unicode="&#x622;" horiz-adv-x="283" arabic-form="final" 
d="M181 812q-28 0 -81 13t-68 13q-22 0 -45 -17l-29 36q39 36 77 36q18 0 70 -13.5t72 -13.5q25 0 54 24l33 -33q-30 -45 -83 -45zM283 0q-110 0 -160 43.5t-50 134.5v578h88v-573q0 -101 122 -101q20 0 20 -42q0 -40 -20 -40z" />
    <glyph glyph-name="uniFE84" unicode="&#x623;" horiz-adv-x="283" arabic-form="final" 
d="M73 756h88v-573q0 -101 122 -101q20 0 20 -42q0 -40 -20 -40q-110 0 -160 43.5t-50 134.5v578zM201 808h-164v43h35q-14 23 -14 47q0 35 23.5 55.5t61.5 20.5q21 0 49 -6l-8 -42q-18 4 -32 4q-49 0 -49 -39q0 -17 13 -40h85v-43z" />
    <glyph glyph-name="uniFE86" unicode="&#x624;" horiz-adv-x="548" arabic-form="final" 
d="M54 201q0 91 57.5 155.5t150.5 64.5q89 0 141 -52.5t52 -141.5v-145h93q20 0 20 -42q0 -40 -20 -40h-96q-29 -177 -276 -177q-27 0 -50 2l-5 80q34 -2 48 -2q179 0 195 97h-68q-122 0 -182 54t-60 147zM259 336q-49 0 -81.5 -34t-32.5 -91q0 -65 37.5 -97t121.5 -32h63
v117q0 66 -27.5 101.5t-80.5 35.5zM149 545v55h45q-17 31 -17 62q0 44 30 70t79 26q30 0 63 -7l-10 -54q-28 5 -42 5q-26 0 -44.5 -12.5t-18.5 -38.5q0 -23 17 -51h110v-55h-212z" />
    <glyph glyph-name="uniFE88" unicode="&#x625;" horiz-adv-x="283" arabic-form="final" 
d="M73 178v578h88v-573q0 -101 122 -101q20 0 20 -42q0 -40 -20 -40q-110 0 -160 43.5t-50 134.5zM57 -208h35q-14 25 -14 48q0 35 23.5 55.5t61.5 20.5q21 0 49 -6l-8 -42q-18 4 -32 4q-49 0 -49 -39q0 -19 14 -41h84v-42h-164v42z" />
    <glyph glyph-name="uniFE8A" unicode="&#x626;" horiz-adv-x="769" arabic-form="final" 
d="M37 -24q0 57 24 132l81 -21q-15 -59 -15 -100q0 -84 59 -122.5t200 -38.5q120 0 187 28t67 72q0 28 -27.5 53.5t-83.5 39.5l-125 32l22 72l135 -32q38 -9 97 -9h111q20 0 20 -42q0 -40 -20 -40h-77q38 -31 38 -83q0 -74 -95.5 -125.5t-254.5 -51.5q-343 0 -343 236z
M75 211v55h45q-17 31 -17 62q0 44 30 70t79 26q30 0 63 -7l-10 -54q-27 5 -42 5q-26 0 -44.5 -12.5t-18.5 -38.5q0 -23 17 -51h110v-55h-212z" />
    <glyph glyph-name="uniFE8B" unicode="&#x626;" horiz-adv-x="291" arabic-form="initial" 
d="M0 0v82h10q61 0 85.5 29t24.5 100v199h88v-213q0 -103 -49.5 -150t-149.5 -47h-9zM49 534v55h45q-17 31 -17 62q0 44 30 70t79 26q30 0 63 -7l-10 -54q-28 5 -42 5q-26 0 -44.5 -12.5t-18.5 -38.5q0 -23 17 -51h110v-55h-212z" />
    <glyph glyph-name="uniFE8C" unicode="&#x626;" horiz-adv-x="332" arabic-form="medial" 
d="M9 0h-9v82h10q61 0 85.5 29t24.5 100v199h88v-217q0 -111 124 -111q20 0 20 -42q0 -40 -20 -40q-114 0 -156 67q-47 -67 -167 -67zM49 534v55h45q-17 31 -17 62q0 44 30 70t79 26q30 0 63 -7l-10 -54q-28 5 -42 5q-26 0 -44.5 -12.5t-18.5 -38.5q0 -23 17 -51h110v-55
h-212z" />
    <glyph glyph-name="uniFE8E" unicode="&#x627;" horiz-adv-x="283" arabic-form="final" 
d="M283 0q-110 0 -160 43.5t-50 134.5v578h88v-573q0 -101 122 -101q20 0 20 -42q0 -40 -20 -40z" />
    <glyph glyph-name="uniFE90" unicode="&#x628;" horiz-adv-x="1005" arabic-form="final" 
d="M1005 82q20 0 20 -42q0 -40 -20 -40q-114 0 -156 67q-49 -67 -159 -67h-421q-107 0 -169 52t-62 140q0 71 32 158l79 -21q-22 -85 -22 -121q0 -126 155 -126h392q62 0 90.5 29t28.5 97v202h88v-217q0 -111 124 -111zM447 -86q23 0 37 -15t14 -38t-14 -38t-37 -15
q-24 0 -38.5 15t-14.5 38t14.5 38t38.5 15z" />
    <glyph glyph-name="uniFE91" unicode="&#x628;" horiz-adv-x="256" arabic-form="initial" 
d="M0 0v82q63 0 89 28.5t26 100.5v199h88v-213q0 -104 -50 -150.5t-153 -46.5zM120 -192q-24 0 -38.5 15t-14.5 38t14.5 38t38.5 15q23 0 37 -15t14 -38t-14 -38t-37 -15z" />
    <glyph glyph-name="uniFE92" unicode="&#x628;" horiz-adv-x="327" arabic-form="medial" 
d="M327 82q20 0 20 -42q0 -40 -20 -40q-114 0 -156 67q-47 -67 -171 -67v82q63 0 89 28.5t26 100.5v199h88v-217q0 -111 124 -111zM148 -86q23 0 37 -15t14 -38t-14 -38t-37 -15q-24 0 -38.5 15t-14.5 38t14.5 38t38.5 15z" />
    <glyph glyph-name="uniFE94" unicode="&#x629;" horiz-adv-x="557" arabic-form="final" 
d="M205 526q-22 0 -37 15.5t-15 38.5q0 22 14.5 37t37.5 15t38 -14.5t15 -37.5t-15 -38.5t-38 -15.5zM352 526q-23 0 -38.5 15.5t-15.5 38.5q0 22 15.5 37t38.5 15q22 0 36.5 -14.5t14.5 -37.5t-14.5 -38.5t-36.5 -15.5zM557 82q20 0 20 -42q0 -40 -20 -40q-136 0 -170 50
q-65 -31 -136 -31q-96 0 -155 48t-59 134q0 93 64.5 151t178.5 58h174v-230q0 -58 22 -78t81 -20zM361 126v202h-97q-61 0 -99 -30.5t-38 -87.5q0 -107 133 -107q63 0 101 23z" />
    <glyph glyph-name="uniFE96" unicode="&#x62a;" horiz-adv-x="1005" arabic-form="final" 
d="M382 429q-22 0 -37 15.5t-15 38.5t15 37.5t37 14.5q23 0 38 -14.5t15 -37.5t-15 -38.5t-38 -15.5zM529 429q-23 0 -38.5 15.5t-15.5 38.5q0 22 15.5 37t38.5 15q22 0 36.5 -14.5t14.5 -37.5t-14.5 -38.5t-36.5 -15.5zM1005 82q20 0 20 -42q0 -40 -20 -40q-114 0 -156 67
q-49 -67 -159 -67h-421q-107 0 -169 52t-62 140q0 71 32 158l79 -21q-22 -85 -22 -121q0 -126 155 -126h392q62 0 90.5 29t28.5 97v202h88v-217q0 -111 124 -111z" />
    <glyph glyph-name="uniFE97" unicode="&#x62a;" horiz-adv-x="291" arabic-form="initial" 
d="M86 526q-22 0 -37 15.5t-15 38.5q0 22 15 37t37 15q23 0 38 -14.5t15 -37.5t-15 -38.5t-38 -15.5zM233 526q-23 0 -38.5 15.5t-15.5 38.5q0 22 15.5 37t38.5 15q22 0 36.5 -14.5t14.5 -37.5t-14.5 -38.5t-36.5 -15.5zM0 0v82h10q61 0 85.5 29t24.5 100v199h88v-213
q0 -103 -49.5 -150t-149.5 -47h-9z" />
    <glyph glyph-name="uniFE98" unicode="&#x62a;" horiz-adv-x="332" arabic-form="medial" 
d="M86 526q-22 0 -37 15.5t-15 38.5q0 22 15 37t37 15q23 0 38 -14.5t15 -37.5t-15 -38.5t-38 -15.5zM233 526q-23 0 -38.5 15.5t-15.5 38.5q0 22 15.5 37t38.5 15q22 0 36.5 -14.5t14.5 -37.5t-14.5 -38.5t-36.5 -15.5zM332 82q20 0 20 -42q0 -40 -20 -40q-114 0 -156 67
q-47 -67 -167 -67h-9v82h10q61 0 85.5 29t24.5 100v199h88v-217q0 -111 124 -111z" />
    <glyph glyph-name="uniFE9A" unicode="&#x62b;" horiz-adv-x="1005" arabic-form="final" 
d="M458 546q-22 0 -37 15.5t-15 38.5q0 22 15 37t37 15q23 0 38 -15t15 -37q0 -23 -15 -38.5t-38 -15.5zM382 427q-22 0 -37 15.5t-15 38.5t15 38t37 15q23 0 38 -15t15 -38t-15 -38.5t-38 -15.5zM475 481q0 23 15.5 38t38.5 15q22 0 36.5 -15t14.5 -38t-14.5 -38.5
t-36.5 -15.5q-23 0 -38.5 15.5t-15.5 38.5zM1005 82q20 0 20 -42q0 -40 -20 -40q-114 0 -156 67q-49 -67 -159 -67h-421q-107 0 -169 52t-62 140q0 71 32 158l79 -21q-22 -85 -22 -121q0 -126 155 -126h392q62 0 90.5 29t28.5 97v202h88v-217q0 -111 124 -111z" />
    <glyph glyph-name="uniFE9B" unicode="&#x62b;" horiz-adv-x="291" arabic-form="initial" 
d="M162 643q-22 0 -37 15.5t-15 38.5q0 22 15 37t37 15q23 0 38 -15t15 -37q0 -23 -15 -38.5t-38 -15.5zM86 524q-22 0 -37 15.5t-15 38.5t15 38t37 15q23 0 38 -15t15 -38t-15 -38.5t-38 -15.5zM233 524q-23 0 -38.5 15.5t-15.5 38.5t15.5 38t38.5 15q22 0 36.5 -15
t14.5 -38t-14.5 -38.5t-36.5 -15.5zM0 0v82h10q61 0 85.5 29t24.5 100v199h88v-213q0 -103 -49.5 -150t-149.5 -47h-9z" />
    <glyph glyph-name="uniFE9C" unicode="&#x62b;" horiz-adv-x="332" arabic-form="medial" 
d="M162 643q-22 0 -37 15.5t-15 38.5q0 22 15 37t37 15q23 0 38 -15t15 -37q0 -23 -15 -38.5t-38 -15.5zM86 524q-22 0 -37 15.5t-15 38.5t15 38t37 15q23 0 38 -15t15 -38t-15 -38.5t-38 -15.5zM179 578q0 23 15.5 38t38.5 15q22 0 36.5 -15t14.5 -38t-14.5 -38.5
t-36.5 -15.5q-23 0 -38.5 15.5t-15.5 38.5zM332 82q20 0 20 -42q0 -40 -20 -40q-114 0 -156 67q-47 -67 -167 -67h-9v82h10q61 0 85.5 29t24.5 100v199h88v-217q0 -111 124 -111z" />
    <glyph glyph-name="uniFE9E" unicode="&#x62c;" horiz-adv-x="667" arabic-form="final" 
d="M239 -260q-89 0 -145.5 45.5t-56.5 126.5q0 77 49.5 123.5t133.5 46.5h250q6 26 6 59q0 91 -47 143t-142 52q-50 0 -105 -17l-20 78q66 24 137 24q131 0 196.5 -73.5t65.5 -199.5q0 -35 -4 -66h110q20 0 20 -42q0 -40 -20 -40h-439q-49 0 -74.5 -22.5t-25.5 -64.5
q0 -90 119 -90q17 0 43 4l14 -81q-27 -6 -65 -6zM263 -84q0 21 13 34.5t35 13.5q21 0 33.5 -13.5t12.5 -34.5t-12.5 -34.5t-33.5 -13.5t-34.5 13.5t-13.5 34.5z" />
    <glyph glyph-name="uniFE9F" unicode="&#x62c;" horiz-adv-x="490" arabic-form="initial" 
d="M0 0v82h338q6 28 6.5 59t-8 67t-28 63.5t-58.5 46t-93 18.5q-50 0 -105 -17l-20 78q65 24 138 24q169 0 228.5 -115.5t12.5 -305.5h-411zM199 -192q-24 0 -38.5 15t-14.5 38t14.5 38t38.5 15q23 0 37 -15t14 -38t-14 -38t-37 -15z" />
    <glyph glyph-name="uniFEA0" unicode="&#x62c;" horiz-adv-x="535" arabic-form="medial" 
d="M0 82h338q6 28 6.5 59t-8 67t-28 63.5t-58.5 46t-93 18.5q-50 0 -105 -17l-20 78q65 24 138 24q150 0 213.5 -91.5t43.5 -247.5h108q20 0 20 -42q0 -40 -20 -40h-535v82zM199 -192q-24 0 -38.5 15t-14.5 38t14.5 38t38.5 15q23 0 37 -15t14 -38t-14 -38t-37 -15z" />
    <glyph glyph-name="uniFEA2" unicode="&#x62d;" horiz-adv-x="667" arabic-form="final" 
d="M239 -260q-90 0 -146 46t-56 128q0 76 49.5 122t132.5 46h251q6 26 6 59q0 91 -47 143t-142 52q-50 0 -105 -17l-20 78q66 24 137 24q131 0 197 -73.5t66 -199.5q0 -35 -4 -66h109q20 0 20 -42q0 -40 -20 -40h-439q-49 0 -75 -22.5t-26 -63.5q0 -90 123 -90q31 0 85 12
l15 -78q-57 -18 -111 -18z" />
    <glyph glyph-name="uniFEA3" unicode="&#x62d;" horiz-adv-x="490" arabic-form="initial" 
d="M0 0v82h338q6 28 6.5 59t-8 67t-28 63.5t-58.5 46t-93 18.5q-50 0 -105 -17l-20 78q65 24 138 24q169 0 228.5 -115.5t12.5 -305.5h-411z" />
    <glyph glyph-name="uniFEA4" unicode="&#x62d;" horiz-adv-x="535" arabic-form="medial" 
d="M0 0v82h338q6 28 6.5 59t-8 67t-28 63.5t-58.5 46t-93 18.5q-50 0 -105 -17l-20 78q65 24 138 24q150 0 213.5 -91.5t43.5 -247.5h108q20 0 20 -42q0 -40 -20 -40h-535z" />
    <glyph glyph-name="uniFEA6" unicode="&#x62e;" horiz-adv-x="667" arabic-form="final" 
d="M37 -86q0 76 49.5 122t132.5 46h251q6 26 6 59q0 91 -47 143t-142 52q-50 0 -105 -17l-20 78q66 24 137 24q131 0 197 -73.5t66 -199.5q0 -35 -4 -66h109q20 0 20 -42q0 -40 -20 -40h-439q-49 0 -75 -22.5t-26 -63.5q0 -90 123 -90q31 0 85 12l15 -78q-57 -18 -111 -18
q-90 0 -146 46t-56 128zM246 591q0 23 14.5 37.5t38.5 14.5q23 0 37 -14.5t14 -37.5q0 -24 -14 -39t-37 -15q-24 0 -38.5 15t-14.5 39z" />
    <glyph glyph-name="uniFEA7" unicode="&#x62e;" horiz-adv-x="490" arabic-form="initial" 
d="M170 537q-24 0 -38.5 15t-14.5 39q0 23 14.5 37.5t38.5 14.5q23 0 37 -14.5t14 -37.5q0 -24 -14 -39t-37 -15zM0 0v82h338q6 28 6.5 59t-8 67t-28 63.5t-58.5 46t-93 18.5q-50 0 -105 -17l-20 78q65 24 138 24q169 0 228.5 -115.5t12.5 -305.5h-411z" />
    <glyph glyph-name="uniFEA8" unicode="&#x62e;" horiz-adv-x="535" arabic-form="medial" 
d="M0 0v82h338q6 28 6.5 59t-8 67t-28 63.5t-58.5 46t-93 18.5q-50 0 -105 -17l-20 78q65 24 138 24q150 0 213.5 -91.5t43.5 -247.5h108q20 0 20 -42q0 -40 -20 -40h-535zM170 537q-24 0 -38.5 15t-14.5 39q0 23 14.5 37.5t38.5 14.5q23 0 37 -14.5t14 -37.5q0 -24 -14 -39
t-37 -15z" />
    <glyph glyph-name="uniFEAA" unicode="&#x62f;" horiz-adv-x="549" arabic-form="final" 
d="M39 82h325v14q0 76 -53 146.5t-141 126.5l54 71q125 -83 175.5 -167.5t52.5 -190.5h97q20 0 20 -42q0 -40 -20 -40h-510v82z" />
    <glyph glyph-name="uniFEAC" unicode="&#x630;" horiz-adv-x="549" arabic-form="final" 
d="M39 0v82h325v14q0 76 -53 146.5t-141 126.5l54 71q125 -83 175.5 -167.5t52.5 -190.5h97q20 0 20 -42q0 -40 -20 -40h-510zM138 577q0 23 14.5 37.5t38.5 14.5q23 0 37 -14.5t14 -37.5q0 -24 -14 -39t-37 -15q-24 0 -38.5 15t-14.5 39z" />
    <glyph glyph-name="uniFEAE" unicode="&#x631;" horiz-adv-x="350" arabic-form="final" 
d="M350 82q20 0 20 -42q0 -40 -20 -40h-132q-32 -157 -206 -175l-16 80q75 12 108 46t33 108v351h88v-328h125z" />
    <glyph glyph-name="uniFEB0" unicode="&#x632;" horiz-adv-x="350" arabic-form="final" 
d="M180 526q-24 0 -38.5 15t-14.5 39q0 23 14.5 37.5t38.5 14.5q23 0 37 -14.5t14 -37.5q0 -24 -14 -39t-37 -15zM350 82q20 0 20 -42q0 -40 -20 -40h-132q-32 -157 -206 -175l-16 80q75 12 108 46t33 108v351h88v-328h125z" />
    <glyph glyph-name="uniFEB2" unicode="&#x633;" horiz-adv-x="1268" arabic-form="final" 
d="M37 69q0 81 43 180l78 -28q-31 -79 -31 -141q0 -81 48 -121.5t135 -40.5q185 0 185 180v239h88v-177q0 -78 93 -78q50 0 74 25.5t24 92.5v137h88v-176q0 -79 97 -79q53 0 75 28.5t22 96.5v203h88v-217q0 -111 124 -111q20 0 20 -42q0 -40 -20 -40q-112 0 -155 65
q-48 -65 -150 -65q-92 0 -136 56q-48 -59 -147 -59q-66 0 -101 28q-16 -94 -88.5 -143t-183.5 -49q-131 0 -200.5 66.5t-69.5 169.5z" />
    <glyph glyph-name="uniFEB3" unicode="&#x633;" horiz-adv-x="823" arabic-form="initial" 
d="M0 82h17q54 0 79 25t25 93v137h88v-177q0 -78 93 -78q50 0 74 25.5t24 92.5v137h88v-176q0 -79 97 -79q53 0 75 28.5t22 96.5v203h88v-237q0 -82 -48 -127.5t-133 -45.5q-94 0 -136 56q-47 -56 -147 -56q-101 0 -135 54q-47 -54 -154 -54h-17v82z" />
    <glyph glyph-name="uniFEB4" unicode="&#x633;" horiz-adv-x="894" arabic-form="medial" 
d="M0 0v82h17q54 0 79 25t25 93v137h88v-177q0 -78 93 -78q50 0 74 25.5t24 92.5v137h88v-176q0 -79 97 -79q53 0 75 28.5t22 96.5v203h88v-217q0 -111 124 -111q20 0 20 -42q0 -40 -20 -40q-112 0 -155 65q-48 -65 -150 -65q-94 0 -136 56q-47 -56 -147 -56q-101 0 -135 54
q-47 -54 -154 -54h-17z" />
    <glyph glyph-name="uniFEB6" unicode="&#x634;" horiz-adv-x="1268" arabic-form="final" 
d="M37 69q0 81 43 180l78 -28q-31 -79 -31 -141q0 -81 48 -121.5t135 -40.5q185 0 185 180v239h88v-177q0 -78 93 -78q50 0 74 25.5t24 92.5v137h88v-176q0 -79 97 -79q53 0 75 28.5t22 96.5v203h88v-217q0 -111 124 -111q20 0 20 -42q0 -40 -20 -40q-112 0 -155 65
q-48 -65 -150 -65q-92 0 -136 56q-48 -59 -147 -59q-66 0 -101 28q-16 -94 -88.5 -143t-183.5 -49q-131 0 -200.5 66.5t-69.5 169.5zM691 505q0 23 15 38t37 15q23 0 38 -15t15 -38t-15 -38.5t-38 -15.5q-22 0 -37 15.5t-15 38.5zM890 451q-23 0 -38.5 15.5t-15.5 38.5
t15.5 38t38.5 15q22 0 36.5 -15t14.5 -38t-14.5 -38.5t-36.5 -15.5zM767 624q0 22 15 37t37 15q23 0 38 -15t15 -37q0 -23 -15 -38.5t-38 -15.5q-22 0 -37 15.5t-15 38.5z" />
    <glyph glyph-name="uniFEB7" unicode="&#x634;" horiz-adv-x="823" arabic-form="initial" 
d="M0 0v82h17q54 0 79 25t25 93v137h88v-177q0 -78 93 -78q50 0 74 25.5t24 92.5v137h88v-176q0 -79 97 -79q53 0 75 28.5t22 96.5v203h88v-237q0 -82 -48 -127.5t-133 -45.5q-94 0 -136 56q-47 -56 -147 -56q-101 0 -135 54q-47 -54 -154 -54h-17zM317 505q0 23 15 38
t37 15q23 0 38 -15t15 -38t-15 -38.5t-38 -15.5q-22 0 -37 15.5t-15 38.5zM462 505q0 23 15.5 38t38.5 15q22 0 36.5 -15t14.5 -38t-14.5 -38.5t-36.5 -15.5q-23 0 -38.5 15.5t-15.5 38.5zM445 570q-22 0 -37 15.5t-15 38.5q0 22 15 37t37 15q23 0 38 -15t15 -37
q0 -23 -15 -38.5t-38 -15.5z" />
    <glyph glyph-name="uniFEB8" unicode="&#x634;" horiz-adv-x="894" arabic-form="medial" 
d="M0 0v82h17q54 0 79 25t25 93v137h88v-177q0 -78 93 -78q50 0 74 25.5t24 92.5v137h88v-176q0 -79 97 -79q53 0 75 28.5t22 96.5v203h88v-217q0 -111 124 -111q20 0 20 -42q0 -40 -20 -40q-112 0 -155 65q-48 -65 -150 -65q-94 0 -136 56q-47 -56 -147 -56q-101 0 -135 54
q-47 -54 -154 -54h-17zM317 505q0 23 15 38t37 15q23 0 38 -15t15 -38t-15 -38.5t-38 -15.5q-22 0 -37 15.5t-15 38.5zM516 451q-23 0 -38.5 15.5t-15.5 38.5t15.5 38t38.5 15q22 0 36.5 -15t14.5 -38t-14.5 -38.5t-36.5 -15.5zM445 570q-22 0 -37 15.5t-15 38.5q0 22 15 37
t37 15q23 0 38 -15t15 -37q0 -23 -15 -38.5t-38 -15.5z" />
    <glyph glyph-name="uniFEBA" unicode="&#x635;" horiz-adv-x="1382" arabic-form="final" 
d="M37 69q0 81 43 180l78 -28q-31 -79 -31 -141q0 -81 48 -121.5t135 -40.5q185 0 185 180v239h88v-186q0 -52 58 -65q182 335 412 335q110 0 167.5 -69t57.5 -183q0 -39 -8 -87h112q20 0 20 -42q0 -40 -20 -40h-698q-67 0 -105 26q-15 -94 -88 -143.5t-184 -49.5
q-131 0 -200.5 66.5t-69.5 169.5zM1043 336q-74 0 -153.5 -62t-154.5 -192h444q11 44 11 82q0 77 -38 124.5t-109 47.5z" />
    <glyph glyph-name="uniFEBB" unicode="&#x635;" horiz-adv-x="934" arabic-form="initial" 
d="M651 421q110 0 167.5 -69t57.5 -183q0 -81 -28 -169h-566q-97 0 -134 49q-39 -49 -148 -49v82q54 0 75 26t21 94v135h88v-177q0 -59 54 -73q183 334 413 334zM777 82q10 40 10 82q0 77 -37.5 124.5t-108.5 47.5q-161 0 -308 -254h444z" />
    <glyph glyph-name="uniFEBC" unicode="&#x635;" horiz-adv-x="980" arabic-form="medial" 
d="M0 0v82q54 0 75 26t21 94v135h88v-177q0 -59 54 -73q183 334 413 334q110 0 167.5 -69t57.5 -183q0 -39 -8 -87h112q20 0 20 -42q0 -40 -20 -40h-698q-97 0 -134 49q-39 -49 -148 -49zM333 82h444q10 40 10 82q0 77 -37.5 124.5t-108.5 47.5q-161 0 -308 -254z" />
    <glyph glyph-name="uniFEBE" unicode="&#x636;" horiz-adv-x="1382" arabic-form="final" 
d="M37 69q0 81 43 180l78 -28q-31 -79 -31 -141q0 -81 48 -121.5t135 -40.5q185 0 185 180v239h88v-186q0 -52 58 -65q182 335 412 335q110 0 167.5 -69t57.5 -183q0 -39 -8 -87h112q20 0 20 -42q0 -40 -20 -40h-698q-67 0 -105 26q-15 -94 -88 -143.5t-184 -49.5
q-131 0 -200.5 66.5t-69.5 169.5zM1043 336q-74 0 -153.5 -62t-154.5 -192h444q11 44 11 82q0 77 -38 124.5t-109 47.5zM913 591q0 23 14.5 37.5t38.5 14.5q23 0 37 -14.5t14 -37.5q0 -24 -14 -39t-37 -15q-24 0 -38.5 15t-14.5 39z" />
    <glyph glyph-name="uniFEBF" unicode="&#x636;" horiz-adv-x="934" arabic-form="initial" 
d="M561 537q-24 0 -38.5 15t-14.5 39q0 23 14.5 37.5t38.5 14.5q23 0 37 -14.5t14 -37.5q0 -24 -14 -39t-37 -15zM651 421q110 0 167.5 -69t57.5 -183q0 -81 -28 -169h-566q-97 0 -134 49q-39 -49 -148 -49v82q54 0 75 26t21 94v135h88v-177q0 -59 54 -73q183 334 413 334z
M777 82q10 40 10 82q0 77 -37.5 124.5t-108.5 47.5q-161 0 -308 -254h444z" />
    <glyph glyph-name="uniFEC0" unicode="&#x636;" horiz-adv-x="980" arabic-form="medial" 
d="M0 0v82q54 0 75 26t21 94v135h88v-177q0 -59 54 -73q183 334 413 334q110 0 167.5 -69t57.5 -183q0 -39 -8 -87h112q20 0 20 -42q0 -40 -20 -40h-698q-97 0 -134 49q-39 -49 -148 -49zM333 82h444q10 40 10 82q0 77 -37.5 124.5t-108.5 47.5q-161 0 -308 -254zM561 537
q-24 0 -38.5 15t-14.5 39q0 23 14.5 37.5t38.5 14.5q23 0 37 -14.5t14 -37.5q0 -24 -14 -39t-37 -15z" />
    <glyph glyph-name="uniFEC2" unicode="&#x637;" horiz-adv-x="893" arabic-form="final" 
d="M38 82h102v674h88v-545q75 104 162.5 157t173.5 53q109 0 167 -71.5t58 -181.5q0 -36 -8 -86h112q20 0 20 -42q0 -40 -20 -40h-855v82zM230 82h460q10 40 10 83q0 76 -37 123.5t-108 47.5q-79 0 -167 -67t-158 -187z" />
    <glyph glyph-name="uniFEC3" unicode="&#x637;" horiz-adv-x="804" arabic-form="initial" 
d="M0 0v82h97v674h88v-545q75 104 162.5 157t173.5 53q109 0 167 -71.5t58 -181.5q0 -78 -28 -168h-718zM187 82h460q10 40 10 83q0 76 -37 123.5t-108 47.5q-80 0 -167.5 -66.5t-157.5 -187.5z" />
    <glyph glyph-name="uniFEC4" unicode="&#x637;" horiz-adv-x="844" arabic-form="medial" 
d="M0 82h97v674h88v-545q75 104 162.5 157t173.5 53q109 0 167 -71.5t58 -181.5q0 -36 -8 -86h106q20 0 20 -42q0 -40 -20 -40h-844v82zM187 82h460q10 40 10 83q0 76 -37 123.5t-108 47.5q-80 0 -167.5 -66.5t-157.5 -187.5z" />
    <glyph glyph-name="uniFEC6" unicode="&#x638;" horiz-adv-x="893" arabic-form="final" 
d="M38 82h102v674h88v-545q75 104 162.5 157t173.5 53q109 0 167 -71.5t58 -181.5q0 -36 -8 -86h112q20 0 20 -42q0 -40 -20 -40h-855v82zM230 82h460q10 40 10 83q0 76 -37 123.5t-108 47.5q-79 0 -167 -67t-158 -187zM499 537q-24 0 -38.5 15t-14.5 39q0 23 14.5 37.5
t38.5 14.5q23 0 37 -14.5t14 -37.5q0 -24 -14 -39t-37 -15z" />
    <glyph glyph-name="uniFEC7" unicode="&#x638;" horiz-adv-x="804" arabic-form="initial" 
d="M0 0v82h97v674h88v-545q75 104 162.5 157t173.5 53q109 0 167 -71.5t58 -181.5q0 -78 -28 -168h-718zM187 82h460q10 40 10 83q0 76 -37 123.5t-108 47.5q-80 0 -167.5 -66.5t-157.5 -187.5zM401 591q0 23 14.5 37.5t38.5 14.5q23 0 37 -14.5t14 -37.5q0 -24 -14 -39
t-37 -15q-24 0 -38.5 15t-14.5 39z" />
    <glyph glyph-name="uniFEC8" unicode="&#x638;" horiz-adv-x="844" arabic-form="medial" 
d="M0 82h97v674h88v-545q75 104 162.5 157t173.5 53q109 0 167 -71.5t58 -181.5q0 -36 -8 -86h106q20 0 20 -42q0 -40 -20 -40h-844v82zM187 82h460q10 40 10 83q0 76 -37 123.5t-108 47.5q-80 0 -167.5 -66.5t-157.5 -187.5zM454 537q-24 0 -38.5 15t-14.5 39
q0 23 14.5 37.5t38.5 14.5q23 0 37 -14.5t14 -37.5q0 -24 -14 -39t-37 -15z" />
    <glyph glyph-name="uniFECA" unicode="&#x639;" horiz-adv-x="581" arabic-form="final" 
d="M581 82q20 0 20 -42q0 -40 -20 -40h-87q-121 0 -219 39q-78 -25 -112.5 -60t-34.5 -71q0 -84 121 -84q43 0 85 10l16 -78q-49 -16 -103 -16q-98 0 -154 41.5t-56 122.5q0 129 174 195q-29 42 -142 166q6 60 19 91q106 65 217 65q90 0 144 -39t54 -108q0 -101 -114 -183
q49 -9 98 -9h94zM146 299q65 -54 151 -169q53 26 84.5 60.5t31.5 67.5t-31.5 55.5t-89.5 22.5q-75 0 -145 -32z" />
    <glyph glyph-name="uniFECB" unicode="&#x639;" horiz-adv-x="480" arabic-form="initial" 
d="M0 82h122q-43 65 -43 140q0 89 61 144t173 55q51 0 111 -15l-17 -81q-49 11 -91 11q-70 0 -109 -31t-39 -87q0 -61 54 -136h225v-82h-447v82z" />
    <glyph glyph-name="uniFECC" unicode="&#x639;" horiz-adv-x="587" arabic-form="medial" 
d="M39 0h-39v82h58q95 0 154 14q-12 17 -25.5 34t-30.5 36.5l-27 31t-32 35t-29 31.5q8 65 19 91q107 64 218 64q90 0 143.5 -39.5t53.5 -109.5q0 -100 -111 -179q64 -9 120 -9h76q20 0 20 -42q0 -40 -20 -40h-69q-133 0 -234 34q-93 -34 -245 -34zM145 299l-1 -5
q72 -59 153 -167q54 26 84.5 60t30.5 67q0 34 -32 57.5t-93 23.5q-70 0 -142 -36z" />
    <glyph glyph-name="uniFECE" unicode="&#x63a;" horiz-adv-x="581" arabic-form="final" 
d="M302 537q-24 0 -38.5 15t-14.5 39q0 23 14.5 37.5t38.5 14.5q23 0 37 -14.5t14 -37.5q0 -24 -14 -39t-37 -15zM581 82q20 0 20 -42q0 -40 -20 -40h-87q-121 0 -219 39q-78 -25 -112.5 -60t-34.5 -71q0 -84 121 -84q43 0 85 10l16 -78q-49 -16 -103 -16q-98 0 -154 41.5
t-56 122.5q0 129 174 195q-29 42 -142 166q6 60 19 91q106 65 217 65q90 0 144 -39t54 -108q0 -101 -114 -183q49 -9 98 -9h94zM146 299q65 -54 151 -169q53 26 84.5 60.5t31.5 67.5t-31.5 55.5t-89.5 22.5q-75 0 -145 -32z" />
    <glyph glyph-name="uniFECF" unicode="&#x63a;" horiz-adv-x="480" arabic-form="initial" 
d="M0 0v82h122q-43 65 -43 140q0 89 61 144t173 55q51 0 111 -15l-17 -81q-49 11 -91 11q-70 0 -109 -31t-39 -87q0 -61 54 -136h225v-82h-447zM260 591q0 23 14.5 37.5t38.5 14.5q23 0 37 -14.5t14 -37.5q0 -24 -14 -39t-37 -15q-24 0 -38.5 15t-14.5 39z" />
    <glyph glyph-name="uniFED0" unicode="&#x63a;" horiz-adv-x="587" arabic-form="medial" 
d="M0 82h58q95 0 154 14q-12 17 -25.5 34t-30.5 36.5l-27 31t-32 35t-29 31.5q8 65 19 91q107 64 218 64q90 0 143.5 -39.5t53.5 -109.5q0 -100 -111 -179q64 -9 120 -9h76q20 0 20 -42q0 -40 -20 -40h-69q-133 0 -234 34q-93 -34 -245 -34h-39v82zM144 294q72 -59 153 -167
q54 26 84.5 60t30.5 67q0 34 -32 57.5t-93 23.5q-70 0 -142 -36zM297 535q-24 0 -38.5 15t-14.5 39q0 23 14.5 37.5t38.5 14.5q23 0 37 -14.5t14 -37.5q0 -24 -14 -39t-37 -15z" />
    <glyph glyph-name="uniFED2" unicode="&#x641;" horiz-adv-x="1081" arabic-form="final" 
d="M39 192q0 71 32 158l79 -21q-22 -85 -22 -121q0 -126 155 -126h331q29 0 42 2q-75 59 -75 151q0 80 58 133t154 53q95 0 151 -52.5t56 -132.5q0 -94 -75 -153q6 0 19.5 -0.5t21.5 -0.5h115q20 0 20 -42q0 -40 -20 -40h-112q-95 0 -180 18q-86 -18 -177 -18h-342
q-107 0 -169 52t-62 140zM671 235q0 -49 36 -86.5t83 -48.5q44 8 82.5 46.5t38.5 88.5q0 46 -33 73.5t-87 27.5t-87 -27.5t-33 -73.5zM740 591q0 23 14.5 37.5t38.5 14.5q23 0 37 -14.5t14 -37.5q0 -24 -14 -39t-37 -15q-24 0 -38.5 15t-14.5 39z" />
    <glyph glyph-name="uniFED3" unicode="&#x641;" horiz-adv-x="561" arabic-form="initial" 
d="M0 0v82h118q-37 50 -37 124q0 93 60.5 154t161.5 61q102 0 151 -63.5t49 -155.5q0 -97 -42 -202h-461zM296 336q-60 0 -92.5 -36.5t-32.5 -94.5q0 -66 44 -123h182q17 65 17 113q0 65 -29 103t-89 38zM250 591q0 23 14.5 37.5t38.5 14.5q23 0 37 -14.5t14 -37.5
q0 -24 -14 -39t-37 -15q-24 0 -38.5 15t-14.5 39z" />
    <glyph glyph-name="uniFED4" unicode="&#x641;" horiz-adv-x="581" arabic-form="medial" 
d="M0 82h114q29 0 42 2q-75 59 -75 151q0 80 58 133t154 53q95 0 151 -52.5t56 -132.5q0 -94 -75 -153q6 0 19.5 -0.5t21.5 -0.5h115q20 0 20 -42q0 -40 -20 -40h-112q-95 0 -180 18q-86 -18 -177 -18h-112v82zM171 235q0 -49 36 -86.5t83 -48.5q44 8 82.5 46.5t38.5 88.5
q0 46 -33 73.5t-87 27.5t-87 -27.5t-33 -73.5zM240 591q0 23 14.5 37.5t38.5 14.5q23 0 37 -14.5t14 -37.5q0 -24 -14 -39t-37 -15q-24 0 -38.5 15t-14.5 39z" />
    <glyph glyph-name="uniFED6" unicode="&#x642;" horiz-adv-x="831" arabic-form="final" 
d="M37 68q0 64 24 133l81 -21q-15 -50 -15 -99q0 -84 60.5 -123.5t204.5 -39.5q117 0 175 19.5t69 62.5h-72q-238 0 -238 204q0 88 55.5 152.5t153.5 64.5q89 0 140.5 -54t51.5 -149v-136h104q20 0 20 -42q0 -40 -20 -40h-110q-18 -91 -97 -129t-233 -38q-354 0 -354 235z
M416 206q0 -64 38.5 -94t116.5 -30h68v117q0 137 -111 137q-51 0 -81.5 -34t-30.5 -96zM607 537q-23 0 -38.5 15.5t-15.5 38.5q0 22 15.5 37t38.5 15q22 0 36.5 -14.5t14.5 -37.5t-14.5 -38.5t-36.5 -15.5zM408 591q0 23 15 37.5t37 14.5q23 0 38 -14.5t15 -37.5t-15 -38.5
t-38 -15.5q-22 0 -37 15.5t-15 38.5z" />
    <glyph glyph-name="uniFED7" unicode="&#x642;" horiz-adv-x="561" arabic-form="initial" 
d="M0 0v82h118q-37 50 -37 124q0 93 60.5 154t161.5 61q102 0 151 -63.5t49 -155.5q0 -97 -42 -202h-461zM171 205q0 -66 44 -123h182q17 65 17 113q0 65 -29 103t-89 38t-92.5 -36.5t-32.5 -94.5zM321 591q0 22 15.5 37t38.5 15q22 0 36.5 -14.5t14.5 -37.5t-14.5 -38.5
t-36.5 -15.5q-23 0 -38.5 15.5t-15.5 38.5zM176 591q0 23 15 37.5t37 14.5q23 0 38 -14.5t15 -37.5t-15 -38.5t-38 -15.5q-22 0 -37 15.5t-15 38.5z" />
    <glyph glyph-name="uniFED8" unicode="&#x642;" horiz-adv-x="581" arabic-form="medial" 
d="M112 0h-112v82h114q29 0 42 2q-75 59 -75 151q0 80 58 133t154 53q95 0 151 -52.5t56 -132.5q0 -94 -75 -153q6 0 19.5 -0.5t21.5 -0.5h115q20 0 20 -42q0 -40 -20 -40h-112q-95 0 -180 18q-86 -18 -177 -18zM291 336q-54 0 -87 -27.5t-33 -73.5q0 -49 36 -86.5t83 -48.5
q44 8 82.5 46.5t38.5 88.5q0 46 -33 73.5t-87 27.5zM365 537q-23 0 -38.5 15.5t-15.5 38.5q0 22 15.5 37t38.5 15q22 0 36.5 -14.5t14.5 -37.5t-14.5 -38.5t-36.5 -15.5zM218 537q-22 0 -37 15.5t-15 38.5t15 37.5t37 14.5q23 0 38 -14.5t15 -37.5t-15 -38.5t-38 -15.5z" />
    <glyph glyph-name="uniFEDA" unicode="&#x643;" horiz-adv-x="887" arabic-form="final" 
d="M269 0q-107 0 -169 52t-62 140q0 71 32 158l79 -21q-22 -85 -22 -121q0 -126 155 -126h283q67 0 88.5 27t21.5 102v545h88v-563q0 -111 124 -111q20 0 20 -42q0 -40 -20 -40q-110 0 -154 63q-46 -63 -168 -63h-296zM313 369h49q-15 25 -15 54q0 40 28.5 67t75.5 27
q22 0 50 -8l-9 -51q-20 6 -38 6q-52 0 -52 -45q0 -28 19 -50h91v-52h-199v52z" />
    <glyph glyph-name="uniFEDB" unicode="&#x643;" horiz-adv-x="473" arabic-form="initial" 
d="M126 442q87 -28 145.5 -64t89.5 -82t43 -93.5t12 -109.5v-93h-416v82h330v27q0 105 -65.5 168t-227.5 109v85l283 273l57 -58z" />
    <glyph glyph-name="uniFEDC" unicode="&#x643;" horiz-adv-x="532" arabic-form="medial" 
d="M0 0v82h330v27q0 105 -65.5 168t-227.5 109v85l283 273l57 -58l-251 -244q87 -28 145.5 -64t89.5 -82t43 -93.5t12 -109.5v-11h116q20 0 20 -42q0 -40 -20 -40h-532z" />
    <glyph glyph-name="uniFEDE" unicode="&#x644;" horiz-adv-x="690" arabic-form="final" 
d="M690 82q20 0 20 -42q0 -40 -20 -40h-118q-22 -80 -93 -123.5t-175 -43.5q-124 0 -195.5 65.5t-71.5 170.5q0 81 43 180l77 -28q-30 -92 -30 -142q0 -161 182 -161q185 0 185 180v658h88v-674h108z" />
    <glyph glyph-name="uniFEDF" unicode="&#x644;" horiz-adv-x="271" arabic-form="initial" 
d="M0 0v82q67 0 88.5 27t21.5 102v545h88v-577q0 -94 -49.5 -136.5t-148.5 -42.5z" />
    <glyph glyph-name="uniFEE0" unicode="&#x644;" horiz-adv-x="322" arabic-form="medial" 
d="M322 82q20 0 20 -42q0 -40 -20 -40q-110 0 -154 63q-46 -63 -168 -63v82q67 0 88.5 27t21.5 102v545h88v-563q0 -111 124 -111z" />
    <glyph glyph-name="uniFEE2" unicode="&#x645;" horiz-adv-x="714" arabic-form="final" 
d="M37 -260v177q0 78 44 121.5t123 43.5h25q-13 41 -13 80q0 95 63.5 154.5t158.5 59.5q101 0 151 -62t50 -152q0 -42 -11 -80h86q20 0 20 -42q0 -40 -20 -40h-137q-62 -56 -181 -56h-65q-33 25 -57 56h-65q-86 0 -86 -87v-173h-86zM356 26h55q67 0 103.5 38t36.5 104
q0 58 -31 92t-88 34q-58 0 -93 -35.5t-35 -98.5q0 -79 52 -134z" />
    <glyph glyph-name="uniFEE3" unicode="&#x645;" horiz-adv-x="555" arabic-form="initial" 
d="M267 0h-267v82h119q-40 55 -40 128q0 94 62.5 152.5t158.5 58.5q95 0 148.5 -60.5t53.5 -150.5q0 -91 -55.5 -150.5t-179.5 -59.5zM169 208q0 -68 49 -126h58q73 0 105 36t32 92q0 58 -33 92t-88 34q-54 0 -88.5 -33.5t-34.5 -94.5z" />
    <glyph glyph-name="uniFEE4" unicode="&#x645;" horiz-adv-x="578" arabic-form="medial" 
d="M0 82h93q-13 41 -13 80q0 95 63.5 154.5t158.5 59.5q101 0 150.5 -61.5t49.5 -152.5q0 -43 -12 -80h88q20 0 20 -42q0 -40 -20 -40h-142q-62 -56 -176 -56h-65q-33 25 -57 56h-138v82zM296 294q-58 0 -93 -35.5t-35 -98.5q0 -79 52 -134h55q67 0 103 38t36 104
q0 58 -31 92t-87 34z" />
    <glyph glyph-name="uniFEE6" unicode="&#x646;" horiz-adv-x="705" arabic-form="final" 
d="M320 409q-24 0 -38.5 15t-14.5 39q0 23 14.5 37.5t38.5 14.5q23 0 37 -14.5t14 -37.5q0 -24 -14 -39t-37 -15zM705 82q20 0 20 -42q0 -40 -20 -40h-131q-22 -82 -92.5 -124.5t-173.5 -42.5q-131 0 -200.5 66.5t-69.5 169.5q0 81 43 180l78 -28q-31 -79 -31 -141
q0 -81 48 -121.5t135 -40.5q185 0 185 180v239h88v-255h121z" />
    <glyph glyph-name="uniFEE7" unicode="&#x646;" horiz-adv-x="256" arabic-form="initial" 
d="M159 526q-24 0 -38.5 15t-14.5 39q0 23 14.5 37.5t38.5 14.5q23 0 37 -14.5t14 -37.5q0 -24 -14 -39t-37 -15zM0 0v82q63 0 89 28.5t26 100.5v199h88v-213q0 -104 -50 -150.5t-153 -46.5z" />
    <glyph glyph-name="uniFEE8" unicode="&#x646;" horiz-adv-x="327" arabic-form="medial" 
d="M159 526q-24 0 -38.5 15t-14.5 39q0 23 14.5 37.5t38.5 14.5q23 0 37 -14.5t14 -37.5q0 -24 -14 -39t-37 -15zM327 82q20 0 20 -42q0 -40 -20 -40q-114 0 -156 67q-47 -67 -171 -67v82q63 0 89 28.5t26 100.5v199h88v-217q0 -111 124 -111z" />
    <glyph glyph-name="uniFEE9" unicode="&#x647;" horiz-adv-x="519" arabic-form="isolated" 
d="M252 -5q-103 0 -159 56.5t-56 145.5q0 93 57.5 158.5t157.5 65.5t157 -65.5t57 -158.5q0 -91 -57.5 -146.5t-156.5 -55.5zM254 79q57 0 89.5 30t32.5 92q0 61 -31.5 98t-92.5 37q-62 0 -93 -37t-31 -97q0 -123 126 -123z" />
    <glyph glyph-name="uniFEEA" unicode="&#x647;" horiz-adv-x="557" arabic-form="final" 
d="M557 82q20 0 20 -42q0 -40 -20 -40q-136 0 -170 50q-65 -31 -136 -31q-96 0 -155 48t-59 134q0 93 64.5 151t178.5 58h174v-230q0 -58 22 -78t81 -20zM361 126v202h-97q-61 0 -99 -30.5t-38 -87.5q0 -107 133 -107q63 0 101 23z" />
    <glyph glyph-name="uniFEEB" unicode="&#x647;" horiz-adv-x="630" arabic-form="initial" 
d="M236 96q39 14 63.5 45t24.5 77t-24 75t-60 29t-60 -29.5t-24 -73.5q0 -84 80 -123zM343 82h156q3 18 3 39q0 125 -125 183q24 -39 24 -87q0 -84 -58 -135zM66 361l13 74q92 -6 165.5 -18.5t138 -37t107.5 -59.5t67.5 -87.5t24.5 -120.5q0 -55 -14 -112h-199
q-81 0 -133 19q-53 -19 -136 -19h-100v82h98q22 0 34 1q-53 51 -53 132q0 41 19 79.5t54 61.5q-28 3 -86 5z" />
    <glyph glyph-name="uniFEEC" unicode="&#x647;" horiz-adv-x="508" arabic-form="medial" 
d="M0 82h76v106q0 104 48.5 166t143.5 62q90 0 135.5 -56.5t45.5 -134.5q0 -81 -47 -143h106q20 0 20 -42q0 -40 -20 -40h-78q26 -46 26 -90q0 -68 -50 -109t-138 -41q-192 0 -192 191v49h-76v82zM164 81h71q12 0 17 1q50 6 79.5 44t29.5 93q0 50 -26 81t-74 31
q-46 0 -71.5 -32.5t-25.5 -98.5v-119zM164 0v-42q0 -60 25.5 -87t81.5 -27q95 0 95 76q0 41 -28 80h-174z" />
    <glyph glyph-name="uniFEEE" unicode="&#x648;" horiz-adv-x="548" arabic-form="final" 
d="M296 0q-122 0 -182 54t-60 147q0 91 57.5 155.5t150.5 64.5q89 0 141 -52.5t52 -141.5v-145h93q20 0 20 -42q0 -40 -20 -40h-96q-29 -177 -276 -177q-27 0 -50 2l-5 80q34 -2 48 -2q179 0 195 97h-68zM145 211q0 -65 37.5 -97t121.5 -32h63v117q0 66 -27.5 101.5
t-80.5 35.5q-49 0 -81.5 -34t-32.5 -91z" />
    <glyph glyph-name="uniFEF0" unicode="&#x649;" horiz-adv-x="769" arabic-form="final" 
d="M769 82q20 0 20 -42q0 -40 -20 -40h-77q38 -31 38 -83q0 -74 -95.5 -125.5t-254.5 -51.5q-343 0 -343 236q0 57 24 132l81 -21q-15 -59 -15 -100q0 -84 59 -122.5t200 -38.5q120 0 187 28t67 72q0 28 -27.5 53.5t-83.5 39.5l-125 32l22 72l135 -32q38 -9 97 -9h111z" />
    <glyph glyph-name="uniFEF2" unicode="&#x64a;" horiz-adv-x="769" arabic-form="final" 
d="M769 82q20 0 20 -42q0 -40 -20 -40h-77q38 -31 38 -83q0 -74 -95.5 -125.5t-254.5 -51.5q-343 0 -343 236q0 57 24 132l81 -21q-15 -59 -15 -100q0 -84 59 -122.5t200 -38.5q120 0 187 28t67 72q0 28 -27.5 53.5t-83.5 39.5l-125 32l22 72l135 -32q38 -9 97 -9h111z
M303 -346q23 0 38 -15t15 -38t-15 -38t-38 -15q-22 0 -37 15t-15 38t14.5 38t37.5 15zM450 -346q22 0 36.5 -15t14.5 -38t-14.5 -38t-36.5 -15q-23 0 -38.5 15t-15.5 38t15.5 38t38.5 15z" />
    <glyph glyph-name="uniFEF3" unicode="&#x64a;" horiz-adv-x="291" arabic-form="initial" 
d="M0 0v82h10q61 0 85.5 29t24.5 100v199h88v-213q0 -103 -49.5 -150t-149.5 -47h-9zM50 -192q-22 0 -37 15t-15 38t14.5 38t37.5 15t38 -15t15 -38t-15 -38t-38 -15zM197 -192q-23 0 -38.5 15t-15.5 38t15.5 38t38.5 15q22 0 36.5 -15t14.5 -38t-14.5 -38t-36.5 -15z" />
    <glyph glyph-name="uniFEF4" unicode="&#x64a;" horiz-adv-x="332" arabic-form="medial" 
d="M332 82q20 0 20 -42q0 -40 -20 -40q-114 0 -156 67q-47 -67 -167 -67h-9v82h10q61 0 85.5 29t24.5 100v199h88v-217q0 -111 124 -111zM77 -86q23 0 38 -15t15 -38t-15 -38t-38 -15q-22 0 -37 15t-15 38t14.5 38t37.5 15zM224 -86q22 0 36.5 -15t14.5 -38t-14.5 -38
t-36.5 -15q-23 0 -38.5 15t-15.5 38t15.5 38t38.5 15z" />
    <glyph glyph-name="uniFEF5" unicode="&#xfef5;" horiz-adv-x="663" arabic-form="isolated" 
d="M396 0h-367v82h203v468h88v-468h62q62 0 91 29.5t29 97.5v547h88v-571q0 -87 -50 -136t-144 -49zM117 673q39 36 77 36q18 0 70 -13.5t72 -13.5q25 0 54 24l33 -33q-30 -45 -83 -45q-28 0 -81 13t-68 13q-22 0 -45 -17z" />
    <glyph glyph-name="uniFEF6" unicode="&#xfef6;" horiz-adv-x="714" arabic-form="final" 
d="M29 82h203v468h88v-468h62q62 0 91 29.5t29 97.5v547h88v-563q0 -111 124 -111q20 0 20 -42q0 -40 -20 -40q-114 0 -157 68q-51 -68 -161 -68h-367v82zM117 673q39 36 77 36q18 0 70 -13.5t72 -13.5q25 0 54 24l33 -33q-30 -45 -83 -45q-28 0 -81 13t-68 13
q-22 0 -45 -17z" />
    <glyph glyph-name="uniFEF7" unicode="&#xfef7;" horiz-adv-x="663" arabic-form="isolated" 
d="M396 0h-367v82h203v468h88v-468h62q62 0 91 29.5t29 97.5v547h88v-571q0 -87 -50 -136t-144 -49zM196 667h35q-14 23 -14 47q0 35 23.5 55.5t61.5 20.5q21 0 49 -6l-8 -42q-18 4 -32 4q-49 0 -49 -39q0 -17 13 -40h85v-43h-164v43z" />
    <glyph glyph-name="uniFEF8" unicode="&#xfef8;" horiz-adv-x="714" arabic-form="final" 
d="M29 0v82h203v468h88v-468h62q62 0 91 29.5t29 97.5v547h88v-563q0 -111 124 -111q20 0 20 -42q0 -40 -20 -40q-114 0 -157 68q-51 -68 -161 -68h-367zM196 624v43h35q-14 23 -14 47q0 35 23.5 55.5t61.5 20.5q21 0 49 -6l-8 -42q-18 4 -32 4q-49 0 -49 -39q0 -17 13 -40
h85v-43h-164z" />
    <glyph glyph-name="uniFEF9" unicode="&#xfef9;" horiz-adv-x="663" arabic-form="isolated" 
d="M396 0h-367v82h203v468h88v-468h62q62 0 91 29.5t29 97.5v547h88v-571q0 -87 -50 -136t-144 -49zM357 -250h-164v42h35q-14 25 -14 48q0 35 23.5 55.5t61.5 20.5q21 0 49 -6l-8 -42q-18 4 -32 4q-49 0 -49 -39q0 -19 14 -41h84v-42z" />
    <glyph glyph-name="uniFEFA" unicode="&#xfefa;" horiz-adv-x="714" arabic-form="final" 
d="M29 0v82h203v468h88v-468h62q62 0 91 29.5t29 97.5v547h88v-563q0 -111 124 -111q20 0 20 -42q0 -40 -20 -40q-114 0 -157 68q-51 -68 -161 -68h-367zM357 -250h-164v42h35q-14 25 -14 48q0 35 23.5 55.5t61.5 20.5q21 0 49 -6l-8 -42q-18 4 -32 4q-49 0 -49 -39
q0 -19 14 -41h84v-42z" />
    <glyph glyph-name="uniFEFB" unicode="&#xfefb;" horiz-adv-x="663" arabic-form="isolated" 
d="M396 0h-367v82h203v468h88v-468h62q62 0 91 29.5t29 97.5v547h88v-571q0 -87 -50 -136t-144 -49z" />
    <glyph glyph-name="uniFEFC" unicode="&#xfefc;" horiz-adv-x="714" arabic-form="final" 
d="M29 0v82h203v468h88v-468h62q62 0 91 29.5t29 97.5v547h88v-563q0 -111 124 -111q20 0 20 -42q0 -40 -20 -40q-114 0 -157 68q-51 -68 -161 -68h-367z" />
    <glyph glyph-name=".notdef" horiz-adv-x="512" 
d="M512 718v-718h-512v718h512zM462 50v617h-412v-617h412zM259 609q55 0 89.5 -36.5t34.5 -94.5q0 -38 -14 -63.5t-51 -57.5q-35 -32 -41 -50q-6 -14 -6 -73h-46l-2 19q0 52 13 79.5t51 63.5q45 42 45 78q0 35 -23 60t-53 25q-70 0 -82 -95l-50 8q6 67 41 102t94 35z
M222 184h56v-67h-56v67z" />
    <glyph glyph-name="uni0000" 
 />
    <glyph glyph-name="uni0000" 
 />
    <glyph glyph-name="uni000D" unicode="&#xd;" horiz-adv-x="278" 
 />
    <glyph glyph-name="space" unicode=" " horiz-adv-x="278" 
 />
    <glyph glyph-name="exclam" unicode="!" horiz-adv-x="278" 
d="M185 708v-504h-96v504h96zM139 126q27 0 46.5 -19.5t19.5 -46.5t-19.5 -46.5t-46.5 -19.5t-46.5 19.5t-19.5 46.5t19.5 46.5t46.5 19.5z" />
    <glyph glyph-name="quotedbl" unicode="&#x22;" horiz-adv-x="519" 
d="M295 462v246h78v-246h-78zM146 462v246h78v-246h-78z" />
    <glyph glyph-name="numbersign" unicode="#" horiz-adv-x="556" 
d="M120 204h-95v78h106l20 144h-95v78h106l28 204h79l-28 -204h116l28 204h79l-28 -204h95v-78h-106l-20 -144h95v-78h-106l-28 -204h-79l28 204h-116l-28 -204h-79zM230 426l-20 -144h116l20 144h-116z" />
    <glyph glyph-name="dollar" unicode="$" horiz-adv-x="556" 
d="M246 -12q-147 0 -220 96l77 69q45 -76 143 -81v246q-106 27 -155 77t-49 128q0 79 57 133.5t147 63.5v72h54v-72q124 0 198 -77l-72 -70q-47 61 -126 63v-238q52 -14 84.5 -27t66 -36t49.5 -58t16 -83q0 -84 -59.5 -141.5t-156.5 -64.5v-72h-54v72zM300 304v-232
q56 7 88 39.5t32 78.5q0 40 -27.5 67t-92.5 47zM138 523q0 -78 108 -109v222q-52 -9 -80 -39.5t-28 -73.5z" />
    <glyph glyph-name="percent" unicode="%" horiz-adv-x="852" 
d="M680 709l-445 -740l-60 31l445 740zM213 726q74 0 126 -51.5t52 -125.5q0 -72 -52 -124.5t-125 -52.5q-72 0 -124.5 51t-52.5 126q0 73 52 125t124 52zM115 549q0 -41 29 -70t70 -29t70 29t29 70t-29 70t-71 29q-40 0 -69 -29t-29 -70zM638 336q73 0 125 -51.5t52 -125.5
q0 -73 -52 -125t-125 -52t-125 52t-52 125q0 72 52 124.5t125 52.5zM539 159q0 -41 29 -70t70 -29t70 29t29 70t-29 70t-70 29q-40 0 -69.5 -29t-29.5 -70z" />
    <glyph glyph-name="ampersand" unicode="&#x26;" horiz-adv-x="722" 
d="M314 720q81 0 132 -43t51 -117q0 -106 -147 -182l140 -146l89 145h109l-137 -212l161 -165h-129l-87 94q-48 -58 -99 -85t-118 -27q-111 0 -171.5 60t-60.5 145q0 125 161 203q-83 87 -83 164q0 74 53 120t136 46zM221 553q0 -51 70 -118q62 33 86 62t24 63t-24 55
t-63 21q-40 0 -66.5 -23t-26.5 -60zM149 190q0 -51 40 -87.5t93 -36.5q82 0 157 90l-171 178q-30 -18 -43 -26.5t-35 -27.5t-31.5 -41t-9.5 -49z" />
    <glyph glyph-name="quotesingle" unicode="'" horiz-adv-x="278" 
d="M178 708v-246h-78v246h78z" />
    <glyph glyph-name="parenleft" unicode="(" horiz-adv-x="278" 
d="M254 694q-71 -111 -99.5 -202.5t-28.5 -202.5q0 -231 128 -405l-60 -40q-146 199 -146 444q0 115 38 231t108 213z" />
    <glyph glyph-name="parenright" unicode=")" horiz-adv-x="278" 
d="M84 732q146 -199 146 -443q0 -242 -146 -445l-60 38q70 110 99 201.5t29 204.5q0 228 -128 404z" />
    <glyph glyph-name="asterisk" unicode="*" horiz-adv-x="464" 
d="M269 708v-147l139 47l21 -67l-139 -45l88 -119l-55 -41l-91 122l-89 -120l-55 41l89 117l-142 48l21 65l141 -48v147h72z" />
    <glyph glyph-name="plus" unicode="+" horiz-adv-x="666" 
d="M66 264v78h228v228h78v-228h228v-78h-228v-228h-78v228h-228z" />
    <glyph glyph-name="comma" unicode="," horiz-adv-x="278" 
d="M214 114l-84 -246h-82l69 246h97z" />
    <glyph glyph-name="hyphen" unicode="-" horiz-adv-x="316" 
d="M281 284v-84h-246v84h246z" />
    <glyph glyph-name="period" unicode="." horiz-adv-x="278" 
d="M139 126q27 0 46.5 -19.5t19.5 -46.5q0 -28 -20 -47t-46 -19q-27 0 -46.5 19.5t-19.5 46.5t19.5 46.5t46.5 19.5z" />
    <glyph glyph-name="slash" unicode="/" horiz-adv-x="389" 
d="M320 752l69 -26l-319 -770l-70 26z" />
    <glyph glyph-name="zero" unicode="0" horiz-adv-x="556" 
d="M278 720q118 0 181 -97t63 -269q0 -171 -63 -268.5t-181 -97.5q-119 0 -181.5 99t-62.5 267q0 172 62.5 269t181.5 97zM130 354q0 -137 38 -209.5t110 -72.5q71 0 109.5 72.5t38.5 209.5q0 138 -38 210t-111 72q-71 0 -109 -71t-38 -211z" />
    <glyph glyph-name="one" unicode="1" horiz-adv-x="556" 
d="M366 708v-708h-96v598l-130 -120l-56 67l197 163h85z" />
    <glyph glyph-name="two" unicode="2" horiz-adv-x="556" 
d="M287 726q100 0 161.5 -53.5t61.5 -142.5q0 -55 -26.5 -104.5t-94.5 -114.5l-235 -227h356v-84h-464v102l276 274q86 84 86 153q0 49 -34.5 81t-87.5 32q-52 0 -86 -29t-43 -80l-104 9q13 88 75 136t159 48z" />
    <glyph glyph-name="three" unicode="3" horiz-adv-x="556" 
d="M275 726q93 0 155 -49.5t62 -142.5q0 -56 -33.5 -100t-87.5 -61v-2q64 -12 101.5 -61t37.5 -117q0 -97 -68 -151t-168 -54q-88 0 -146.5 39.5t-81.5 114.5l101 31q19 -56 48.5 -78.5t80.5 -22.5q59 0 98.5 36.5t39.5 91.5q0 67 -46.5 99.5t-152.5 32.5v84q94 0 137.5 24
t43.5 87q0 54 -32.5 84.5t-86.5 30.5q-38 0 -69.5 -22.5t-48.5 -59.5l-98 33q26 63 82 98t132 35z" />
    <glyph glyph-name="four" unicode="4" horiz-adv-x="556" 
d="M34 156v98l282 454h116v-468h100v-84h-100v-156h-96v156h-302zM334 594l-216 -354h218v354h-2z" />
    <glyph glyph-name="five" unicode="5" horiz-adv-x="556" 
d="M471 708v-90h-287l-3 -177q32 15 95 15q95 0 157.5 -62.5t62.5 -171.5q0 -103 -71.5 -168.5t-177.5 -65.5q-74 0 -131.5 38t-81.5 105l97 33q35 -92 131 -92q59 0 98.5 40t39.5 105q0 73 -46 114t-125 41q-69 0 -146 -37l8 373h380z" />
    <glyph glyph-name="six" unicode="6" horiz-adv-x="556" 
d="M398 708l-178 -274h4q33 16 78 16q38 0 75.5 -13t70 -39t53 -70.5t20.5 -101.5q0 -109 -67 -173.5t-176 -64.5q-104 0 -173.5 64t-69.5 164q0 59 16 102.5t54 105.5l180 284h113zM131 219q0 -65 41 -106t106 -41t106 40.5t41 106.5q0 60 -38.5 103.5t-109.5 43.5
q-63 0 -104.5 -40.5t-41.5 -106.5z" />
    <glyph glyph-name="seven" unicode="7" horiz-adv-x="556" 
d="M487 708v-82l-282 -626h-108l287 624h-342v84h445z" />
    <glyph glyph-name="eight" unicode="8" horiz-adv-x="556" 
d="M278 720q87 0 147 -49t60 -128q0 -61 -29.5 -104.5t-81.5 -59.5v-3q63 -18 99 -64t36 -109q0 -96 -64.5 -155.5t-166.5 -59.5t-166.5 59.5t-64.5 155.5q0 62 36 108.5t99 64.5v3q-52 15 -81.5 59t-29.5 105q0 77 60 127t147 50zM167 530q0 -47 31.5 -79.5t79.5 -32.5
q50 0 80.5 31.5t30.5 80.5q0 50 -31 81t-81 31q-46 0 -78 -31.5t-32 -80.5zM143 203q0 -58 38.5 -94.5t96.5 -36.5q59 0 97 36t38 95q0 61 -38 96t-98 35q-55 0 -94.5 -36.5t-39.5 -94.5z" />
    <glyph glyph-name="nine" unicode="9" horiz-adv-x="556" 
d="M278 720q105 0 174 -64.5t69 -163.5q0 -58 -16.5 -103.5t-53.5 -103.5l-180 -285h-113l178 274h-4q-33 -16 -78 -16q-86 0 -152.5 58t-66.5 166q0 109 67.5 173.5t175.5 64.5zM131 489q0 -67 41 -107t106 -40q66 0 106.5 41t40.5 106q0 60 -38 103.5t-110 43.5
q-64 0 -105 -40t-41 -107z" />
    <glyph glyph-name="colon" unicode=":" horiz-adv-x="278" 
d="M139 480q27 0 46.5 -19.5t19.5 -46.5t-19.5 -46.5t-46.5 -19.5t-46.5 19t-19.5 47q0 27 19.5 46.5t46.5 19.5zM139 126q27 0 46.5 -19.5t19.5 -46.5t-19.5 -46.5t-46.5 -19.5t-46.5 19t-19.5 47q0 27 19.5 46.5t46.5 19.5z" />
    <glyph glyph-name="semicolon" unicode=";" horiz-adv-x="278" 
d="M139 479q27 0 46.5 -19.5t19.5 -46.5t-19.5 -46.5t-46.5 -19.5t-46.5 19t-19.5 47q0 27 19.5 46.5t46.5 19.5zM214 114l-84 -246h-82l69 246h97z" />
    <glyph glyph-name="less" unicode="&#x3c;" horiz-adv-x="666" 
d="M66 344l534 220v-79l-452 -182l452 -182v-78l-534 219v82z" />
    <glyph glyph-name="equal" unicode="=" horiz-adv-x="666" 
d="M600 342h-534v78h534v-78zM66 263h534v-78h-534v78z" />
    <glyph glyph-name="greater" unicode="&#x3e;" horiz-adv-x="666" 
d="M600 262l-534 -220v79l452 182l-452 182v78l534 -219v-82z" />
    <glyph glyph-name="question" unicode="?" horiz-adv-x="500" 
d="M268 726q89 0 144.5 -51t55.5 -134q0 -78 -40 -118l-68 -69q-38 -38 -47 -58q-7 -21 -7 -62v-36h-96v65q0 43 13 68q9 19 37 46l40 38q43 42 57.5 67t14.5 54q0 45 -30.5 75.5t-75.5 30.5q-46 0 -77.5 -30.5t-38.5 -81.5l-102 10q13 86 72.5 136t147.5 50zM257 126
q26 0 46 -19.5t20 -46.5t-19.5 -46.5t-46.5 -19.5t-46.5 19.5t-19.5 46.5t20 46.5t46 19.5z" />
    <glyph glyph-name="at" unicode="@" horiz-adv-x="800" 
d="M415 726q140 0 240.5 -86t100.5 -218q0 -118 -77 -200q-78 -82 -158 -82q-27 0 -44.5 17t-18.5 47h-4q-59 -64 -124 -64q-60 0 -98.5 43.5t-38.5 113.5q0 63 26 123t78.5 101.5t119.5 41.5q82 0 107 -76h2l16 57h73l-84 -276q-5 -17 -5 -26q0 -24 29 -24q45 0 83 59
q40 61 40 137q0 109 -73.5 177.5t-188.5 68.5q-126 0 -210 -88t-84 -220q0 -128 83.5 -216t215.5 -88q73 0 135 26.5t98 74.5h79q-45 -78 -131.5 -122.5t-182.5 -44.5q-155 0 -265 107t-110 267q0 153 108 261.5t263 108.5zM277 298q0 -80 71 -80q56 0 96.5 57.5t40.5 121.5
q0 39 -17.5 63.5t-47.5 24.5q-62 0 -102.5 -53.5t-40.5 -133.5z" />
    <glyph glyph-name="A" unicode="A" horiz-adv-x="704" 
d="M113 0h-112l312 708h87l303 -708h-112l-71 175h-337zM351 584l-134 -325h268l-132 325h-2z" />
    <glyph glyph-name="B" unicode="B" horiz-adv-x="630" 
d="M91 0v708h250q90 0 150.5 -44.5t60.5 -132.5q0 -115 -122 -156v-2h1q52 -6 88 -36.5t50 -66.5t14 -73q0 -90 -69 -143.5t-176 -53.5h-247zM187 84h145q65 0 107 30.5t42 89.5q0 60 -40 93t-111 33h-143v-246zM187 414h134q61 0 95 27.5t34 78.5q0 48 -30 76t-79 28h-154
v-210z" />
    <glyph glyph-name="C" unicode="C" horiz-adv-x="704" 
d="M416 726q76 0 141.5 -28.5t106.5 -81.5l-80 -61q-64 81 -171 81q-117 0 -190.5 -82.5t-73.5 -205.5q0 -117 73 -196.5t191 -79.5q117 0 185 95l81 -61q-42 -57 -113 -90.5t-155 -33.5q-82 0 -152.5 32.5t-115.5 85.5t-70.5 118t-25.5 131q0 163 102 270t267 107z" />
    <glyph glyph-name="D" unicode="D" horiz-adv-x="741" 
d="M327 708q92 0 164.5 -30.5t115.5 -81.5t65 -113t22 -129q0 -153 -107.5 -253.5t-274.5 -100.5h-237v708h252zM297 90q53 0 103 15t94 45t71 83t27 121q0 110 -70 187t-202 77h-149v-528h126z" />
    <glyph glyph-name="E" unicode="E" horiz-adv-x="611" 
d="M91 0v708h457v-90h-361v-211h336v-90h-336v-227h379v-90h-475z" />
    <glyph glyph-name="F" unicode="F" horiz-adv-x="574" 
d="M91 0v708h445v-90h-349v-222h325v-90h-325v-306h-96z" />
    <glyph glyph-name="G" unicode="G" horiz-adv-x="778" 
d="M417 726q175 0 263 -92l-68 -73q-78 75 -196 75q-117 0 -192 -80t-75 -202q0 -118 77.5 -200t197.5 -82q109 0 174 37v197h-157v90h253v-349q-49 -30 -123.5 -47.5t-144.5 -17.5q-169 0 -274 105t-105 267q0 158 104.5 265t265.5 107z" />
    <glyph glyph-name="H" unicode="H" horiz-adv-x="741" 
d="M91 0v708h96v-294h367v294h96v-708h-96v324h-367v-324h-96z" />
    <glyph glyph-name="I" unicode="I" horiz-adv-x="278" 
d="M187 708v-708h-96v708h96z" />
    <glyph glyph-name="J" unicode="J" horiz-adv-x="482" 
d="M408 708v-510q0 -105 -60 -160.5t-147 -55.5q-78 0 -128 40.5t-64 114.5l94 21q18 -86 98 -86q111 0 111 156v480h96z" />
    <glyph glyph-name="K" unicode="K" horiz-adv-x="648" 
d="M91 0v708h96v-306h8l313 306h134l-342 -327l365 -381h-140l-330 354h-8v-354h-96z" />
    <glyph glyph-name="L" unicode="L" horiz-adv-x="519" 
d="M187 708v-618h325v-90h-421v708h96z" />
    <glyph glyph-name="M" unicode="M" horiz-adv-x="906" 
d="M84 0v708h143l225 -536h4l223 536h143v-708h-96v582h-2l-239 -582h-64l-239 582h-2v-582h-96z" />
    <glyph glyph-name="N" unicode="N" horiz-adv-x="796" 
d="M187 0h-96v708h126l390 -582h2v582h96v-708h-122l-394 582h-2v-582z" />
    <glyph glyph-name="O" unicode="O" horiz-adv-x="832" 
d="M416 726q156 0 262.5 -104.5t106.5 -267.5q0 -158 -104 -265t-265 -107q-157 0 -263 105.5t-106 266.5q0 160 105 266t264 106zM149 354q0 -119 74 -200.5t193 -81.5q116 0 191.5 80.5t75.5 201.5q0 120 -74 201t-194 81q-115 0 -190.5 -80.5t-75.5 -201.5z" />
    <glyph glyph-name="P" unicode="P" horiz-adv-x="593" 
d="M187 0h-96v708h254q103 0 162.5 -52t59.5 -146t-60 -146t-162 -52h-158v-312zM187 624v-228h130q148 0 148 114t-148 114h-130z" />
    <glyph glyph-name="Q" unicode="Q" horiz-adv-x="832" 
d="M413 726q149 0 255 -101t106 -253q0 -100 -45 -176.5t-117 -109.5v-2h210v-84h-412q-151 0 -257 104t-106 258q0 153 105 258.5t261 105.5zM149 370q0 -117 72.5 -198.5t188.5 -81.5q114 0 188 79t74 199q0 114 -74.5 191t-188.5 77q-107 0 -183.5 -77t-76.5 -189z" />
    <glyph glyph-name="R" unicode="R" horiz-adv-x="611" 
d="M187 0h-96v708h254q98 0 160 -49.5t62 -148.5q0 -65 -45 -121t-128 -66h-1l201 -323h-120l-180 312h-107v-312zM187 624v-228h130q148 0 148 114t-148 114h-130z" />
    <glyph glyph-name="S" unicode="S" horiz-adv-x="556" 
d="M294 726q139 0 204 -81l-78 -71q-40 62 -127 62q-73 0 -105 -34.5t-32 -74.5q0 -79 106 -112l89 -29q77 -25 115.5 -68.5t38.5 -116.5q0 -98 -69 -158.5t-177 -60.5q-153 0 -226 98l79 68q23 -36 63 -56t87 -20q56 0 98.5 33t42.5 85q0 38 -26 62.5t-89 44.5l-63 21
q-82 26 -126.5 73.5t-44.5 135.5q0 78 64 138.5t176 60.5z" />
    <glyph glyph-name="T" unicode="T" horiz-adv-x="574" 
d="M11 618v90h552v-90h-228v-618h-96v618h-228z" />
    <glyph glyph-name="U" unicode="U" horiz-adv-x="704" 
d="M78 255v453h96v-437q0 -32 9 -64.5t28 -64t55.5 -51t85.5 -19.5q47 0 83 18.5t56 49t29.5 64t9.5 67.5v437h96v-453q0 -109 -75 -191t-199 -82q-122 0 -198 80t-76 193z" />
    <glyph glyph-name="V" unicode="V" horiz-adv-x="630" 
d="M-6 708h111l208 -576h2l216 576h105l-279 -708h-90z" />
    <glyph glyph-name="W" unicode="W" horiz-adv-x="962" 
d="M1 708h100l156 -566h2l167 566h110l167 -566h2l156 566h100l-206 -708h-101l-172 578h-2l-171 -578h-101z" />
    <glyph glyph-name="X" unicode="X" horiz-adv-x="648" 
d="M117 0h-119l257 372l-238 336h123l184 -272l182 272h120l-236 -335l260 -373h-126l-203 307z" />
    <glyph glyph-name="Y" unicode="Y" horiz-adv-x="612" 
d="M-10 708h123l193 -311l199 311h117l-268 -406v-302h-96v302z" />
    <glyph glyph-name="Z" unicode="Z" horiz-adv-x="593" 
d="M555 708v-90l-401 -528h407v-90h-529v89l403 529h-391v90h511z" />
    <glyph glyph-name="bracketleft" unicode="[" horiz-adv-x="278" 
d="M72 -156v888h174v-66h-90v-756h90v-66h-174z" />
    <glyph glyph-name="backslash" unicode="\" horiz-adv-x="389" 
d="M69 752l320 -770l-70 -26l-319 770z" />
    <glyph glyph-name="bracketright" unicode="]" horiz-adv-x="278" 
d="M206 -156h-174v66h90v756h-90v66h174v-888z" />
    <glyph glyph-name="asciicircum" unicode="^" horiz-adv-x="666" 
d="M163 276h-83l213 432h80l213 -432h-83l-170 353z" />
    <glyph glyph-name="underscore" unicode="_" horiz-adv-x="500" 
d="M500 -75v-50h-500v50h500z" />
    <glyph glyph-name="grave" unicode="`" horiz-adv-x="240" 
d="M82 708l104 -144h-83l-149 144h128z" />
    <glyph glyph-name="a" unicode="a" horiz-adv-x="519" 
d="M209 -12q-72 0 -118 38.5t-46 103.5q0 76 63.5 120t196.5 44h67v17q0 47 -31.5 75t-82.5 28q-38 0 -66.5 -11.5t-67.5 -42.5l-54 56q76 70 188 70q99 0 148.5 -46t49.5 -109v-254q0 -44 4 -77h-80q-3 36 -3 72h-2q-56 -84 -166 -84zM321 228q-186 0 -186 -91
q0 -77 102 -77q62 0 98.5 37t36.5 105v26h-51z" />
    <glyph glyph-name="b" unicode="b" horiz-adv-x="611" 
d="M158 0h-90v756h90v-350h2q24 37 69.5 58.5t95.5 21.5q106 0 173.5 -69.5t67.5 -179.5q0 -107 -66 -178t-174 -71q-50 0 -95 21t-71 59h-2v-68zM158 237q0 -74 43 -119.5t113 -45.5t113 46t43 119q0 75 -43.5 120t-113.5 45q-69 0 -112 -45.5t-43 -119.5z" />
    <glyph glyph-name="c" unicode="c" horiz-adv-x="482" 
d="M293 485q113 0 182 -75l-68 -62q-50 53 -118 53q-67 0 -107.5 -47t-40.5 -121q0 -69 43 -115t110 -46q68 0 115 53l64 -64q-65 -73 -180 -73q-110 0 -179 69t-69 178q0 111 69.5 180.5t178.5 69.5z" />
    <glyph glyph-name="d" unicode="d" horiz-adv-x="611" 
d="M286 -12q-105 0 -173 69.5t-68 179.5t68 179.5t173 69.5q50 0 95 -21.5t70 -58.5h2v350h90v-756h-90v68h-2q-26 -38 -70.5 -59t-94.5 -21zM141 237q0 -74 43 -119.5t113 -45.5t113 45.5t43 119.5q0 75 -43.5 120t-113.5 45q-69 0 -112 -45.5t-43 -119.5z" />
    <glyph glyph-name="e" unicode="e" horiz-adv-x="556" 
d="M285 486q106 0 168.5 -67.5t62.5 -189.5v-25h-380q0 -60 48 -99t112 -39q72 0 130 71l68 -52q-76 -97 -210 -97q-107 0 -175.5 68.5t-68.5 180.5q0 106 69 177.5t176 71.5zM420 276q-2 66 -38 102t-99 36q-66 0 -106.5 -44.5t-40.5 -93.5h284z" />
    <glyph glyph-name="f" unicode="f" horiz-adv-x="333" 
d="M1 396v78h102v110q0 95 39 139.5t123 44.5q38 0 67 -7l-10 -80q-21 9 -51 9q-41 0 -59 -23t-18 -79v-114h107v-78h-108v-396h-90v396h-102z" />
    <glyph glyph-name="g" unicode="g" horiz-adv-x="611" 
d="M45 235q0 113 68 182t173 69q50 0 94.5 -21.5t70.5 -58.5h2v68h90v-474q0 -100 -69.5 -170t-189.5 -70q-142 0 -232 85l61 76q72 -77 170 -77q83 0 126.5 43t43.5 119v72h-3q-23 -40 -67.5 -62t-96.5 -22q-102 0 -171.5 67.5t-69.5 173.5zM296 402q-69 0 -112 -46
t-43 -119q0 -71 42 -115t114 -44q71 0 113.5 43t42.5 116q0 75 -43.5 120t-113.5 45z" />
    <glyph glyph-name="h" unicode="h" horiz-adv-x="556" 
d="M158 0h-90v756h90v-355h2q19 39 61.5 62t94.5 23q79 0 125.5 -48t46.5 -129v-309h-90v283q0 55 -28.5 87t-79.5 32q-62 0 -97 -41t-35 -113v-248z" />
    <glyph glyph-name="i" unicode="i" horiz-adv-x="240" 
d="M120 710q27 0 46.5 -19.5t19.5 -46.5t-19.5 -46.5t-46.5 -19.5q-28 0 -47 19t-19 47q0 27 19.5 46.5t46.5 19.5zM165 474v-474h-90v474h90z" />
    <glyph glyph-name="j" unicode="j" horiz-adv-x="240" 
d="M120 710q27 0 46.5 -19.5t19.5 -46.5t-19.5 -46.5t-46.5 -19.5q-28 0 -47 19t-19 47q0 27 19.5 46.5t46.5 19.5zM165 474v-547q0 -167 -145 -167q-34 0 -58 9l10 83q26 -8 37 -8q66 0 66 88v542h90z" />
    <glyph glyph-name="k" unicode="k" horiz-adv-x="519" 
d="M68 0v756h90v-488l205 206h125l-222 -216l240 -258h-128l-220 246v-246h-90z" />
    <glyph glyph-name="l" unicode="l" horiz-adv-x="240" 
d="M165 756v-756h-90v756h90z" />
    <glyph glyph-name="m" unicode="m" horiz-adv-x="852" 
d="M158 0h-90v474h84v-74h2q15 35 58 60.5t94 25.5q102 0 148 -88q22 41 62.5 64.5t87.5 23.5q180 0 180 -206v-280h-90v269q0 69 -25 101t-77 32q-60 0 -90.5 -36.5t-30.5 -102.5v-263h-90v255q0 81 -24 114t-76 33q-55 0 -89 -42t-34 -110v-250z" />
    <glyph glyph-name="n" unicode="n" horiz-adv-x="556" 
d="M68 474h90v-73h2q19 39 61.5 62t94.5 23q79 0 125.5 -48t46.5 -129v-309h-90v283q0 55 -28.5 87t-79.5 32q-62 0 -97 -41t-35 -113v-248h-90v474z" />
    <glyph glyph-name="o" unicode="o" horiz-adv-x="594" 
d="M297 486q103 0 177.5 -71t74.5 -178q0 -104 -73 -176.5t-179 -72.5q-104 0 -178 72t-74 177q0 104 73 176.5t179 72.5zM141 237q0 -74 43 -119.5t113 -45.5t113 45.5t43 119.5q0 75 -43.5 120t-113.5 45q-69 0 -112 -46t-43 -119z" />
    <glyph glyph-name="p" unicode="p" horiz-adv-x="611" 
d="M68 -282v756h90v-68h2q27 38 71 59t95 21q105 0 172.5 -69t67.5 -180q0 -110 -67.5 -179.5t-173.5 -69.5q-52 0 -97 22t-68 58h-2v-350h-90zM158 237q0 -74 43 -119.5t113 -45.5q71 0 113.5 45t42.5 120t-43.5 120t-113.5 45q-69 0 -112 -45.5t-43 -119.5z" />
    <glyph glyph-name="q" unicode="q" horiz-adv-x="611" 
d="M45 237q0 107 67 178t174 71q51 0 95.5 -21.5t69.5 -58.5h2v68h90v-702h-90v296h-2q-25 -37 -69.5 -58.5t-95.5 -21.5q-106 0 -173.5 69.5t-67.5 179.5zM141 237q0 -74 43 -119.5t113 -45.5q71 0 113.5 46t42.5 119q0 70 -41 117.5t-116 47.5q-69 0 -112 -45.5
t-43 -119.5z" />
    <glyph glyph-name="r" unicode="r" horiz-adv-x="370" 
d="M68 0v474h90v-73h2q18 38 57.5 61.5t84.5 23.5q25 0 40 -6l-4 -97q-26 7 -45 7q-66 0 -100.5 -38t-34.5 -110v-242h-90z" />
    <glyph glyph-name="s" unicode="s" horiz-adv-x="444" 
d="M228 486q115 0 162 -78l-70 -53q-40 47 -97 47q-34 0 -56.5 -15t-22.5 -38q0 -49 93 -68q88 -17 127 -49t39 -95q0 -73 -56 -111t-137 -38q-122 0 -182 84l68 56q55 -56 115 -56q40 0 68 16t28 44q0 47 -90 68q-89 18 -129 48.5t-40 91.5q0 69 53.5 107.5t126.5 38.5z
" />
    <glyph glyph-name="t" unicode="t" horiz-adv-x="370" 
d="M103 396h-104v78h104v133h90v-133h129v-78h-129v-228q0 -50 14 -73t54 -23q41 0 64 14v-82q-27 -16 -82 -16q-40 0 -68 10.5t-41.5 24.5t-21 38.5t-8.5 39.5t-1 42v253z" />
    <glyph glyph-name="u" unicode="u" horiz-adv-x="556" 
d="M68 474h90v-284q0 -55 29 -86.5t79 -31.5q62 0 97 41.5t35 112.5v248h90v-474h-90v73h-2q-19 -39 -61 -62t-95 -23q-79 0 -125.5 48.5t-46.5 128.5v309z" />
    <glyph glyph-name="v" unicode="v" horiz-adv-x="500" 
d="M11 474h104l142 -363l136 363h96l-186 -474h-99z" />
    <glyph glyph-name="w" unicode="w" horiz-adv-x="759" 
d="M167 0l-156 474h101l107 -354h2l113 354h95l120 -354h2l102 354h95l-153 -474h-91l-125 354h-2l-113 -354h-97z" />
    <glyph glyph-name="x" unicode="x" horiz-adv-x="519" 
d="M117 0h-111l192 253l-168 221h116l115 -168l113 168h109l-162 -221l192 -253h-116l-140 199z" />
    <glyph glyph-name="y" unicode="y" horiz-adv-x="500" 
d="M11 474h104l141 -370h2l134 370h97l-224 -574q-28 -73 -61.5 -106.5t-101.5 -33.5q-48 0 -80 13l11 81q30 -10 54 -10q39 0 58 18.5t35 60.5l28 74z" />
    <glyph glyph-name="z" unicode="z" horiz-adv-x="463" 
d="M414 474v-80l-271 -316h285v-78h-393v81l269 315h-260v78h370z" />
    <glyph glyph-name="braceleft" unicode="{" horiz-adv-x="333" 
d="M40 326q38 0 61 36.5t23 82.5v154q0 64 33.5 98.5t69.5 34.5h77v-72h-46q-23 0 -36.5 -23t-13.5 -60v-163q0 -43 -22.5 -78t-61.5 -47v-3q37 -7 60.5 -41.5t23.5 -85.5v-150q0 -93 50 -93h46v-72h-74q-47 0 -76.5 41.5t-29.5 107.5v132q0 53 -23.5 88t-60.5 35v78z" />
    <glyph glyph-name="bar" unicode="|" horiz-adv-x="222" 
d="M150 750v-1000h-78v1000h78z" />
    <glyph glyph-name="braceright" unicode="}" horiz-adv-x="333" 
d="M29 660v72h74q46 0 76 -41.5t30 -107.5v-142q0 -47 23 -79.5t61 -33.5v-78q-38 -1 -61 -34t-23 -80v-158q0 -65 -33 -99.5t-70 -34.5h-77v72h46q23 0 36.5 23t13.5 61v159q0 46 22 80.5t62 47.5v3q-38 8 -61 41.5t-23 85.5v147q0 96 -53 96h-43z" />
    <glyph glyph-name="asciitilde" unicode="~" horiz-adv-x="666" 
d="M229 378q39 0 107 -33q78 -40 105 -40q52 0 89 73l40 -62q-52 -88 -128 -88q-42 0 -116 36q-73 36 -106 36q-49 0 -84 -72l-40 62q53 88 133 88z" />
    <glyph glyph-name="uni00A0" unicode="&#xa0;" horiz-adv-x="278" 
 />
    <glyph glyph-name="exclamdown" unicode="&#xa1;" horiz-adv-x="278" 
d="M139 492q26 0 46 -19t20 -47q0 -27 -19.5 -46.5t-46.5 -19.5t-46.5 19.5t-19.5 46.5t20 46.5t46 19.5zM189 282v-504h-96v504h96z" />
    <glyph glyph-name="cent" unicode="&#xa2;" horiz-adv-x="556" 
d="M72 237q0 100 57.5 167t158.5 82v66h54v-66q110 -6 167 -76l-65 -59q-48 55 -102 57v-342q61 1 107 52l58 -58q-57 -64 -165 -72v-66h-54v66q-97 8 -156.5 78t-59.5 171zM288 408q-58 -9 -92 -55.5t-34 -113.5q0 -65 34.5 -113.5t91.5 -59.5v342z" />
    <glyph glyph-name="sterling" unicode="&#xa3;" horiz-adv-x="556" 
d="M72 0v84h102v244h-96v72h96v98q0 98 59.5 160t160.5 62q107 0 169 -62l-61 -70q-50 48 -99 48q-62 0 -97.5 -42t-35.5 -114v-80h162v-72h-162v-244h246v-84h-444z" />
    <glyph glyph-name="currency" unicode="&#xa4;" horiz-adv-x="556" 
d="M70 506l-49 49l57 56l49 -48q70 49 151 49t151 -49l49 48l57 -56l-49 -49q49 -67 49 -151t-49 -151l49 -49l-57 -57l-49 49q-67 -49 -151 -49q-82 0 -151 49l-49 -49l-57 57l49 49q-49 69 -49 151q0 84 49 151zM278 176q74 0 126.5 52t52.5 127q0 74 -52.5 126.5
t-127.5 52.5q-74 0 -126 -52.5t-52 -126.5q0 -75 52.5 -127t126.5 -52z" />
    <glyph glyph-name="yen" unicode="&#xa5;" horiz-adv-x="556" 
d="M-5 708h100l179 -316l185 316h102l-186 -309h116v-66h-154l-17 -28v-53h171v-66h-171v-186h-84v186h-171v66h171v53l-17 28h-154v66h114z" />
    <glyph glyph-name="brokenbar" unicode="&#xa6;" horiz-adv-x="222" 
d="M150 325h-78v350h78v-350zM72 175h78v-350h-78v350z" />
    <glyph glyph-name="section" unicode="&#xa7;" horiz-adv-x="556" 
d="M300 726q64 0 113 -27t70 -73l-84 -46q-25 62 -102 62q-44 0 -71 -21t-27 -57q0 -31 26 -54t88 -50q40 -17 64 -29.5t55 -34.5t46.5 -51.5t15.5 -65.5q0 -87 -83 -131q65 -44 65 -121t-60 -124t-150 -47q-73 0 -126 31t-78 90l86 41q28 -78 125 -78q46 0 73.5 23t27.5 63
q0 27 -26 49.5t-86 49.5q-111 49 -148 86q-35 38 -35 82q0 104 98 151q-80 44 -80 118q0 73 59.5 118.5t143.5 45.5zM169 321q0 -54 62 -85l113 -54q60 38 60 88q0 52 -75 88l-86 42q-74 -28 -74 -79z" />
    <glyph glyph-name="dieresis" unicode="&#xa8;" horiz-adv-x="240" 
d="M18 714q24 0 43 -17t19 -40q0 -27 -17.5 -45t-44.5 -18t-44.5 18t-17.5 45q0 23 18.5 40t43.5 17zM222 714q24 0 43 -17t19 -40q0 -27 -17.5 -45t-44.5 -18t-44.5 18t-17.5 45q0 23 18.5 40t43.5 17z" />
    <glyph glyph-name="copyright" unicode="&#xa9;" horiz-adv-x="800" 
d="M400 726q151 0 261.5 -107.5t110.5 -264.5q0 -152 -108.5 -262t-263.5 -110q-151 0 -261.5 108.5t-110.5 263.5q0 153 108.5 262.5t263.5 109.5zM94 354q0 -125 89 -215.5t217 -90.5q124 0 215 88.5t91 217.5q0 127 -90 216.5t-217 89.5q-123 0 -214 -89t-91 -217z
M400 585q77 0 127 -40t62 -113h-77q-21 81 -111 81q-69 0 -105.5 -40t-36.5 -114q0 -70 40 -114t104 -44q90 0 109 85h77q-17 -74 -66.5 -115.5t-120.5 -41.5q-100 0 -160.5 61.5t-60.5 166.5q0 107 58.5 167.5t160.5 60.5z" />
    <glyph glyph-name="ordfeminine" unicode="&#xaa;" horiz-adv-x="337" 
d="M141 419q-46 0 -76.5 23.5t-30.5 62.5q0 57 50 80t141 23h17v9q0 22 -19 35.5t-49 13.5q-53 0 -89 -33l-35 45q48 42 124 42q70 0 102 -23.5t32 -72.5v-199h-66v44l-2 1q-25 -51 -99 -51zM230 560q-65 0 -97.5 -11.5t-32.5 -39.5q0 -36 60 -36q40 0 61 18t21 51v18h-12z
" />
    <glyph glyph-name="guillemotleft" unicode="&#xab;" horiz-adv-x="500" 
d="M254 418l-117 -175l118 -175l-62 -41l-146 216l145 216zM452 418l-117 -175l118 -175l-62 -41l-146 216l145 216z" />
    <glyph glyph-name="logicalnot" unicode="&#xac;" horiz-adv-x="666" 
d="M600 420v-279h-78v201h-456v78h534z" />
    <glyph glyph-name="uni00AD" unicode="&#xad;" horiz-adv-x="316" 
d="M281 284v-84h-246v84h246z" />
    <glyph glyph-name="registered" unicode="&#xae;" horiz-adv-x="800" 
d="M28 354q0 153 108.5 262.5t263.5 109.5q151 0 261.5 -107.5t110.5 -264.5q0 -152 -108.5 -262t-263.5 -110q-151 0 -261.5 108.5t-110.5 263.5zM399 660q-123 0 -214 -89t-91 -217q0 -125 89 -215.5t217 -90.5q124 0 215 88.5t91 217.5q0 127 -90 216.5t-217 89.5z
M335 144h-78v425h168q71 0 108.5 -32.5t37.5 -95.5q0 -50 -26 -80t-75 -37l110 -180h-82l-106 174h-57v-174zM335 384h67q47 0 69 13.5t22 46.5q0 29 -20 44t-72 15h-66v-119z" />
    <glyph glyph-name="macron" unicode="&#xaf;" horiz-adv-x="240" 
d="M264 666v-66h-288v66h288z" />
    <glyph glyph-name="degree" unicode="&#xb0;" horiz-adv-x="400" 
d="M200 720q62 0 105.5 -44t43.5 -105t-43.5 -105t-105.5 -44q-61 0 -105 44t-44 105t44 105t105 44zM117 571q0 -35 24.5 -59t58.5 -24q35 0 59 24.5t24 58.5t-24 58.5t-59 24.5q-34 0 -58.5 -24t-24.5 -59z" />
    <glyph glyph-name="plusminus" unicode="&#xb1;" horiz-adv-x="666" 
d="M66 315v78h228v163h78v-163h228v-78h-228v-150h-78v150h-228zM66 51v78h534v-78h-534z" />
    <glyph glyph-name="twosuperior" unicode="&#xb2;" horiz-adv-x="361" 
d="M185 720q68 0 108.5 -32t40.5 -88q0 -39 -20 -68t-59 -63l-133 -114h213v-66h-309v76l177 158q47 42 47 75q0 25 -18.5 40.5t-46.5 15.5q-29 0 -47 -16t-21 -43l-84 6q5 56 45.5 87.5t106.5 31.5z" />
    <glyph glyph-name="threesuperior" unicode="&#xb3;" horiz-adv-x="361" 
d="M179 720q66 0 106.5 -30.5t40.5 -81.5q0 -35 -21.5 -62t-56.5 -34v-2q41 -5 65 -33t24 -70q0 -55 -44 -89.5t-111 -34.5q-63 0 -104 26t-54 73l83 20q18 -53 75 -53q32 0 54.5 18t22.5 46q0 64 -97 64h-22v66h25q83 0 83 57q0 24 -18 39t-47 15q-52 0 -69 -45l-83 20
q14 43 53 67t95 24z" />
    <glyph glyph-name="acute" unicode="&#xb4;" horiz-adv-x="240" 
d="M286 708l-149 -144h-83l104 144h128z" />
    <glyph glyph-name="mu" unicode="&#xb5;" horiz-adv-x="556" 
d="M68 -228v702h90v-284q0 -55 29 -86.5t79 -31.5q62 0 97 41.5t35 112.5v248h90v-474h-90v73h-2q-19 -39 -61 -62t-95 -23q-43 0 -82 18v-234h-90z" />
    <glyph glyph-name="paragraph" unicode="&#xb6;" horiz-adv-x="600" 
d="M51 503q0 97 61 151t165 54h251v-834h-78v768h-112v-768h-78v444q-92 1 -150.5 54t-58.5 131z" />
    <glyph glyph-name="periodcentered" unicode="&#xb7;" horiz-adv-x="278" 
d="M139 369q26 0 46 -19t20 -47q0 -27 -19.5 -46.5t-46.5 -19.5t-46.5 19.5t-19.5 46.5t19.5 46.5t46.5 19.5z" />
    <glyph glyph-name="cedilla" unicode="&#xb8;" horiz-adv-x="240" 
d="M109 0h49l-44 -61h25q48 0 72 -20t24 -52q0 -45 -35 -70t-91 -25q-55 0 -104 23l19 40q40 -15 78 -15q28 0 44.5 11t16.5 31q0 41 -45 41q-25 0 -49 -8l-21 18z" />
    <glyph glyph-name="onesuperior" unicode="&#xb9;" horiz-adv-x="361" 
d="M226 720v-431h-72v359l-85 -72l-42 46l128 98h71z" />
    <glyph glyph-name="ordmasculine" unicode="&#xba;" horiz-adv-x="386" 
d="M193 720q74 0 119 -41.5t45 -109.5t-45 -109t-119 -41t-119 41t-45 109q0 69 45 110t119 41zM101 569q0 -42 24 -66t68 -24t68 24t24 66t-24.5 66.5t-68.5 24.5q-42 0 -66.5 -24.5t-24.5 -66.5z" />
    <glyph glyph-name="guillemotright" unicode="&#xbb;" horiz-adv-x="500" 
d="M109 459l146 -216l-145 -216l-62 41l117 175l-118 175zM307 459l146 -216l-145 -216l-62 41l117 175l-118 175z" />
    <glyph glyph-name="onequarter" unicode="&#xbc;" horiz-adv-x="834" 
d="M477 152l183 279h79v-271h62v-66h-62v-94h-66v94h-196v58zM212 -32l-60 32l439 740l60 -32zM33 622l128 98h71v-431h-72v359l-85 -72zM549 160h118v187h-2z" />
    <glyph glyph-name="onehalf" unicode="&#xbd;" horiz-adv-x="834" 
d="M639 708l-439 -740l-60 32l439 740zM230 720v-431h-72v359l-85 -72l-42 46l128 98h71zM653 431q68 0 108.5 -32t40.5 -88q0 -39 -20 -68t-59 -63l-133 -114h213v-66h-309v76l177 158q47 42 47 75q0 25 -18.5 40.5t-46.5 15.5q-29 0 -47 -16t-21 -43l-84 6q5 56 45.5 87.5
t106.5 31.5z" />
    <glyph glyph-name="threequarters" unicode="&#xbe;" horiz-adv-x="834" 
d="M497 94v58l183 279h79v-271h62v-66h-62v-94h-66v94h-196zM23 382l83 20q18 -53 75 -53q32 0 54.5 18t22.5 46q0 64 -97 64h-22v66h15q47 0 70 12t23 45q0 24 -18 39t-47 15q-52 0 -69 -45l-83 20q14 43 53 67t95 24q66 0 106.5 -30.5t40.5 -81.5q0 -35 -21.5 -62
t-56.5 -34v-2q41 -5 65 -33t24 -70q0 -55 -43.5 -89.5t-111.5 -34.5q-63 0 -104 26t-54 73zM192 0l439 740l60 -32l-439 -740zM691 347l-116 -187h118v187h-2z" />
    <glyph glyph-name="questiondown" unicode="&#xbf;" horiz-adv-x="500" 
d="M243 492q26 0 46 -19t20 -47q0 -27 -19.5 -46.5t-46.5 -19.5q-26 0 -46 20t-20 46t20 46t46 20zM290 288v-65q0 -61 -30 -93q-34 -36 -72 -71q-60 -57 -60 -109q0 -45 31 -75.5t75 -30.5q46 0 77.5 30t38.5 82l102 -10q-13 -86 -72.5 -136t-147.5 -50q-89 0 -144.5 50.5
t-55.5 134.5q0 78 43 121l65 66q36 36 45 54.5t9 63.5v38h96z" />
    <glyph glyph-name="Agrave" unicode="&#xc0;" horiz-adv-x="704" 
d="M113 0h-112l312 708h87l303 -708h-112l-71 175h-337zM351 584l-134 -325h268l-132 325h-2zM335 748l-149 144h128l104 -144h-83z" />
    <glyph glyph-name="Aacute" unicode="&#xc1;" horiz-adv-x="704" 
d="M1 0l312 708h87l303 -708h-112l-71 175h-337l-70 -175h-112zM351 584l-134 -325h268l-132 325h-2zM286 748l104 144h128l-149 -144h-83z" />
    <glyph glyph-name="Acircumflex" unicode="&#xc2;" horiz-adv-x="704" 
d="M1 0l312 708h87l303 -708h-112l-71 175h-337l-70 -175h-112zM351 584l-134 -325h268l-132 325h-2zM187 748l112 144h106l112 -144h-91l-74 96l-74 -96h-91z" />
    <glyph glyph-name="Atilde" unicode="&#xc3;" horiz-adv-x="704" 
d="M1 0l312 708h87l303 -708h-112l-71 175h-337l-70 -175h-112zM351 584l-134 -325h268l-132 325h-2zM184 760q8 48 35.5 76t65.5 28q25 0 74 -19q5 -2 15.5 -7t16.5 -7.5t15 -4.5t17 -2q36 0 49 44h48q-8 -50 -32.5 -77t-61.5 -27q-26 0 -81 21q-49 19 -66 19
q-33 0 -47 -44h-48z" />
    <glyph glyph-name="Adieresis" unicode="&#xc4;" horiz-adv-x="704" 
d="M1 0l312 708h87l303 -708h-112l-71 175h-337l-70 -175h-112zM351 584l-134 -325h268l-132 325h-2zM188 841q0 23 18.5 40t43.5 17t43.5 -16.5t18.5 -40.5q0 -27 -17.5 -45t-44.5 -18t-44.5 18t-17.5 45zM454 778q-26 0 -44 18t-18 45q0 23 18 40t44 17q25 0 43.5 -17
t18.5 -40q0 -27 -17.5 -45t-44.5 -18z" />
    <glyph glyph-name="Aring" unicode="&#xc5;" horiz-adv-x="704" 
d="M1 0l312 708h87l303 -708h-112l-71 175h-337l-70 -175h-112zM351 584l-134 -325h268l-132 325h-2zM250 825q0 41 30 70t72 29t72 -28.5t30 -69.5q0 -42 -29.5 -70.5t-72.5 -28.5q-40 0 -71 28.5t-31 69.5zM352 882q-25 0 -42.5 -16.5t-17.5 -40.5t18.5 -40t41.5 -16
t41.5 16.5t18.5 39.5q0 24 -17.5 40.5t-42.5 16.5z" />
    <glyph glyph-name="AE" unicode="&#xc6;" horiz-adv-x="963" 
d="M110 0h-118l458 708h456v-90h-295v-211h277v-90h-277v-227h307v-90h-403v172h-304zM496 618l-233 -356h252v356h-19z" />
    <glyph glyph-name="Ccedilla" unicode="&#xc7;" horiz-adv-x="704" 
d="M416 726q76 0 141.5 -28.5t106.5 -81.5l-80 -61q-64 81 -171 81q-117 0 -190.5 -82.5t-73.5 -205.5q0 -117 73 -196.5t191 -79.5q117 0 185 95l81 -61q-42 -57 -113 -90.5t-155 -33.5h-14l-31 -43h27q46 0 70 -20.5t24 -51.5q0 -44 -34.5 -69.5t-91.5 -25.5
q-55 0 -104 23l19 40q40 -15 78 -15q28 0 44.5 11t16.5 31q0 41 -45 41q-25 0 -49 -8l-21 18l52 74q-138 21 -221.5 128t-83.5 234q0 163 102 270t267 107z" />
    <glyph glyph-name="Egrave" unicode="&#xc8;" horiz-adv-x="611" 
d="M91 0v708h457v-90h-361v-211h336v-90h-336v-227h379v-90h-475zM140 892h128l104 -144h-83z" />
    <glyph glyph-name="Eacute" unicode="&#xc9;" horiz-adv-x="611" 
d="M566 0h-475v708h457v-90h-361v-211h336v-90h-336v-227h379v-90zM240 748l104 144h128l-149 -144h-83z" />
    <glyph glyph-name="Ecircumflex" unicode="&#xca;" horiz-adv-x="611" 
d="M91 0v708h457v-90h-361v-211h336v-90h-336v-227h379v-90h-475zM141 748l112 144h106l112 -144h-91l-74 96l-74 -96h-91z" />
    <glyph glyph-name="Edieresis" unicode="&#xcb;" horiz-adv-x="611" 
d="M566 0h-475v708h457v-90h-361v-211h336v-90h-336v-227h379v-90zM142 841q0 23 18.5 40t43.5 17t43.5 -16.5t18.5 -40.5q0 -27 -17.5 -45t-44.5 -18t-44.5 18t-17.5 45zM346 841q0 23 18 40t44 17q25 0 43.5 -17t18.5 -40q0 -27 -17.5 -45t-44.5 -18q-26 0 -44 18t-18 45z
" />
    <glyph glyph-name="Igrave" unicode="&#xcc;" horiz-adv-x="278" 
d="M101 892l104 -144h-83l-149 144h128zM187 708v-708h-96v708h96z" />
    <glyph glyph-name="Iacute" unicode="&#xcd;" horiz-adv-x="278" 
d="M305 892l-149 -144h-83l104 144h128zM187 708v-708h-96v708h96z" />
    <glyph glyph-name="Icircumflex" unicode="&#xce;" horiz-adv-x="278" 
d="M91 0v708h96v-708h-96zM65 748h-91l112 144h106l112 -144h-91l-74 96z" />
    <glyph glyph-name="Idieresis" unicode="&#xcf;" horiz-adv-x="278" 
d="M37 898q25 0 43.5 -16.5t18.5 -40.5q0 -27 -17.5 -45t-44.5 -18t-44.5 18t-17.5 45q0 23 18.5 40t43.5 17zM241 898q25 0 43.5 -17t18.5 -40q0 -27 -17.5 -45t-44.5 -18q-26 0 -44 18t-18 45q0 23 18 40t44 17zM187 708v-708h-96v708h96z" />
    <glyph glyph-name="Eth" unicode="&#xd0;" horiz-adv-x="741" 
d="M75 336h-72v66h72v306h252q92 0 164.5 -30.5t115.5 -81.5t65 -113t22 -129q0 -153 -107.5 -253.5t-274.5 -100.5h-237v336zM171 618v-216h234v-66h-234v-246h126q53 0 103 15t94 45t71 83t27 121q0 110 -70 187t-202 77h-149z" />
    <glyph glyph-name="Ntilde" unicode="&#xd1;" horiz-adv-x="796" 
d="M91 708h126l390 -582h2v582h96v-708h-122l-394 582h-2v-582h-96v708zM230 760q8 48 35.5 76t65.5 28q25 0 74 -19q5 -2 15.5 -7t16.5 -7.5t15 -4.5t17 -2q36 0 49 44h48q-8 -50 -32.5 -77t-61.5 -27q-26 0 -81 21q-49 19 -66 19q-33 0 -47 -44h-48z" />
    <glyph glyph-name="Ograve" unicode="&#xd2;" horiz-adv-x="832" 
d="M378 892l104 -144h-83l-149 144h128zM416 726q156 0 262.5 -104.5t106.5 -267.5q0 -158 -104 -265t-265 -107q-157 0 -263 105.5t-106 266.5q0 160 105 266t264 106zM149 354q0 -119 74 -200.5t193 -81.5q116 0 191.5 80.5t75.5 201.5q0 120 -74 201t-194 81
q-115 0 -190.5 -80.5t-75.5 -201.5z" />
    <glyph glyph-name="Oacute" unicode="&#xd3;" horiz-adv-x="832" 
d="M582 892l-149 -144h-83l104 144h128zM416 726q156 0 262.5 -104.5t106.5 -267.5q0 -158 -104 -265t-265 -107q-157 0 -263 105.5t-106 266.5q0 160 105 266t264 106zM149 354q0 -119 74 -200.5t193 -81.5q116 0 191.5 80.5t75.5 201.5q0 120 -74 201t-194 81
q-115 0 -190.5 -80.5t-75.5 -201.5z" />
    <glyph glyph-name="Ocircumflex" unicode="&#xd4;" horiz-adv-x="832" 
d="M47 354q0 160 105 266t264 106q156 0 262.5 -104.5t106.5 -267.5q0 -158 -104 -265t-265 -107q-157 0 -263 105.5t-106 266.5zM149 354q0 -119 74 -200.5t193 -81.5q116 0 191.5 80.5t75.5 201.5q0 120 -74 201t-194 81q-115 0 -190.5 -80.5t-75.5 -201.5zM251 748
l112 144h106l112 -144h-91l-74 96l-74 -96h-91z" />
    <glyph glyph-name="Otilde" unicode="&#xd5;" horiz-adv-x="832" 
d="M584 868q-8 -50 -32.5 -77t-61.5 -27q-26 0 -81 21q-49 19 -66 19q-33 0 -47 -44h-48q8 48 35.5 76t65.5 28q25 0 74 -19q5 -2 15.5 -7t16.5 -7.5t15 -4.5t17 -2q36 0 49 44h48zM416 726q156 0 262.5 -104.5t106.5 -267.5q0 -158 -104 -265t-265 -107q-157 0 -263 105.5
t-106 266.5q0 160 105 266t264 106zM149 354q0 -119 74 -200.5t193 -81.5q116 0 191.5 80.5t75.5 201.5q0 120 -74 201t-194 81q-115 0 -190.5 -80.5t-75.5 -201.5z" />
    <glyph glyph-name="Odieresis" unicode="&#xd6;" horiz-adv-x="832" 
d="M314 898q25 0 43.5 -16.5t18.5 -40.5q0 -27 -17.5 -45t-44.5 -18t-44.5 18t-17.5 45q0 23 18.5 40t43.5 17zM518 898q25 0 43.5 -17t18.5 -40q0 -27 -17.5 -45t-44.5 -18q-26 0 -44 18t-18 45q0 23 18 40t44 17zM416 726q156 0 262.5 -104.5t106.5 -267.5
q0 -158 -104 -265t-265 -107q-157 0 -263 105.5t-106 266.5q0 160 105 266t264 106zM149 354q0 -119 74 -200.5t193 -81.5q116 0 191.5 80.5t75.5 201.5q0 120 -74 201t-194 81q-115 0 -190.5 -80.5t-75.5 -201.5z" />
    <glyph glyph-name="multiply" unicode="&#xd7;" horiz-adv-x="666" 
d="M66 515l55 55l212 -212l213 212l54 -55l-212 -212l212 -212l-56 -55l-211 212l-211 -212l-54 56l210 211z" />
    <glyph glyph-name="Oslash" unicode="&#xd8;" horiz-adv-x="832" 
d="M729 740l42 -38l-83 -90q97 -103 97 -258q0 -159 -104 -265.5t-265 -106.5q-134 0 -234 79l-84 -91l-43 38l85 93q-93 104 -93 253q0 158 104 265t265 107q132 0 230 -76zM149 354q0 -104 58 -181l374 407q-70 56 -166 56q-115 0 -190.5 -80t-75.5 -202zM246 131
q73 -59 170 -59q116 0 191.5 80t75.5 202q0 110 -62 186z" />
    <glyph glyph-name="Ugrave" unicode="&#xd9;" horiz-adv-x="704" 
d="M78 255v453h96v-437q0 -32 9 -64.5t28 -64t55.5 -51t85.5 -19.5q47 0 83 18.5t56 49t29.5 64t9.5 67.5v437h96v-453q0 -109 -75 -191t-199 -82q-122 0 -198 80t-76 193zM186 892h128l104 -144h-83z" />
    <glyph glyph-name="Uacute" unicode="&#xda;" horiz-adv-x="704" 
d="M78 255v453h96v-437q0 -32 9 -64.5t28 -64t55.5 -51t85.5 -19.5q47 0 83 18.5t56 49t29.5 64t9.5 67.5v437h96v-453q0 -109 -75 -191t-199 -82q-122 0 -198 80t-76 193zM286 748l104 144h128l-149 -144h-83z" />
    <glyph glyph-name="Ucircumflex" unicode="&#xdb;" horiz-adv-x="704" 
d="M78 255v453h96v-437q0 -32 9 -64.5t28 -64t55.5 -51t85.5 -19.5q47 0 83 18.5t56 49t29.5 64t9.5 67.5v437h96v-453q0 -109 -75 -191t-199 -82q-122 0 -198 80t-76 193zM278 748h-91l112 144h106l112 -144h-91l-74 96z" />
    <glyph glyph-name="Udieresis" unicode="&#xdc;" horiz-adv-x="704" 
d="M78 255v453h96v-437q0 -32 9 -64.5t28 -64t55.5 -51t85.5 -19.5q47 0 83 18.5t56 49t29.5 64t9.5 67.5v437h96v-453q0 -109 -75 -191t-199 -82q-122 0 -198 80t-76 193zM188 841q0 23 18.5 40t43.5 17t43.5 -16.5t18.5 -40.5q0 -27 -17.5 -45t-44.5 -18t-44.5 18
t-17.5 45zM392 841q0 23 18 40t44 17q25 0 43.5 -17t18.5 -40q0 -27 -17.5 -45t-44.5 -18q-26 0 -44 18t-18 45z" />
    <glyph glyph-name="Yacute" unicode="&#xdd;" horiz-adv-x="612" 
d="M258 302l-268 406h123l193 -311l199 311h117l-268 -406v-302h-96v302zM240 748l104 144h128l-149 -144h-83z" />
    <glyph glyph-name="Thorn" unicode="&#xde;" horiz-adv-x="593" 
d="M91 0v708h96v-145h158q103 0 162.5 -51.5t59.5 -146.5q0 -94 -59 -146t-163 -52h-158v-167h-96zM187 251h130q148 0 148 114t-148 114h-130v-228z" />
    <glyph glyph-name="germandbls" unicode="&#xdf;" horiz-adv-x="611" 
d="M292 768q90 0 147 -49.5t57 -131.5q0 -121 -111 -155v-2q78 -13 124 -69.5t46 -140.5q0 -104 -67 -168t-175 -64q-35 0 -71 9v81q32 -6 53 -6q76 0 120 41.5t44 114.5t-46.5 114t-131.5 41h-10v84h14q56 0 85.5 30t29.5 79q0 51 -30 79.5t-82 28.5q-130 0 -130 -160v-524
h-90v515q0 130 54.5 191.5t169.5 61.5z" />
    <glyph glyph-name="agrave" unicode="&#xe0;" horiz-adv-x="519" 
d="M209 -12q-72 0 -118 38.5t-46 103.5q0 76 63.5 120t196.5 44h67v17q0 47 -31.5 75t-82.5 28q-38 0 -66.5 -11.5t-67.5 -42.5l-54 56q76 70 188 70q99 0 148.5 -46t49.5 -109v-254q0 -44 4 -77h-80q-3 36 -3 72h-2q-56 -84 -166 -84zM135 137q0 -77 102 -77q62 0 98.5 37
t36.5 105v26h-51q-186 0 -186 -91zM243 564l-149 144h128l104 -144h-83z" />
    <glyph glyph-name="aacute" unicode="&#xe1;" horiz-adv-x="519" 
d="M209 -12q-72 0 -118 38.5t-46 103.5q0 76 63.5 120t196.5 44h67v17q0 47 -31.5 75t-82.5 28q-38 0 -66.5 -11.5t-67.5 -42.5l-54 56q76 70 188 70q99 0 148.5 -46t49.5 -109v-254q0 -44 4 -77h-80q-3 36 -3 72h-2q-56 -84 -166 -84zM321 228q-186 0 -186 -91
q0 -77 102 -77q62 0 98.5 37t36.5 105v26h-51zM277 564h-83l104 144h128z" />
    <glyph glyph-name="acircumflex" unicode="&#xe2;" horiz-adv-x="519" 
d="M209 -12q-72 0 -118 38.5t-46 103.5q0 76 63.5 120t196.5 44h67v17q0 47 -31.5 75t-82.5 28q-38 0 -66.5 -11.5t-67.5 -42.5l-54 56q76 70 188 70q99 0 148.5 -46t49.5 -109v-254q0 -44 4 -77h-80q-3 36 -3 72h-2q-56 -84 -166 -84zM321 228q-186 0 -186 -91
q0 -77 102 -77q62 0 98.5 37t36.5 105v26h-51zM95 564l112 144h106l112 -144h-91l-74 96l-74 -96h-91z" />
    <glyph glyph-name="atilde" unicode="&#xe3;" horiz-adv-x="519" 
d="M209 -12q-72 0 -118 38.5t-46 103.5q0 76 63.5 120t196.5 44h67v17q0 47 -31.5 75t-82.5 28q-38 0 -66.5 -11.5t-67.5 -42.5l-54 56q76 70 188 70q99 0 148.5 -46t49.5 -109v-254q0 -44 4 -77h-80q-3 36 -3 72h-2q-56 -84 -166 -84zM135 137q0 -77 102 -77q62 0 98.5 37
t36.5 105v26h-51q-186 0 -186 -91zM140 576h-48q9 48 36 76t65 28q25 0 74 -19q5 -2 15.5 -7t16.5 -7.5t15 -4.5t17 -2q36 0 49 44h48q-8 -50 -32.5 -77t-61.5 -27q-26 0 -81 21q-49 19 -66 19q-33 0 -47 -44z" />
    <glyph glyph-name="adieresis" unicode="&#xe4;" horiz-adv-x="519" 
d="M45 130q0 76 63.5 120t196.5 44h67v17q0 47 -31.5 75t-82.5 28q-38 0 -66.5 -11.5t-67.5 -42.5l-54 56q76 70 188 70q99 0 148.5 -46t49.5 -109v-254q0 -44 4 -77h-80q-3 36 -3 72h-2q-56 -84 -166 -84q-72 0 -118 38.5t-46 103.5zM135 137q0 -77 102 -77q62 0 98.5 37
t36.5 105v26h-51q-186 0 -186 -91zM158 594q-27 0 -44.5 18t-17.5 45q0 23 18.5 40t43.5 17q24 0 43 -17t19 -40q0 -27 -17.5 -45t-44.5 -18zM362 594q-27 0 -44.5 18t-17.5 45q0 23 18.5 40t43.5 17q24 0 43 -17t19 -40q0 -27 -17.5 -45t-44.5 -18z" />
    <glyph glyph-name="aring" unicode="&#xe5;" horiz-adv-x="519" 
d="M209 -12q-72 0 -118 38.5t-46 103.5q0 76 63.5 120t196.5 44h67v17q0 47 -31.5 75t-82.5 28q-38 0 -66.5 -11.5t-67.5 -42.5l-54 56q76 70 188 70q99 0 148.5 -46t49.5 -109v-254q0 -44 4 -77h-80q-3 36 -3 72h-2q-56 -84 -166 -84zM135 137q0 -77 102 -77q62 0 98.5 37
t36.5 105v26h-51q-186 0 -186 -91zM158 651q0 40 30.5 69.5t71.5 29.5q43 0 72.5 -28.5t29.5 -69.5q0 -42 -30 -70.5t-72 -28.5q-41 0 -71.5 29t-30.5 69zM260 708q-25 0 -42.5 -16.5t-17.5 -40.5q0 -22 18 -39t42 -17q25 0 42.5 16.5t17.5 39.5q0 24 -17.5 40.5t-42.5 16.5
z" />
    <glyph glyph-name="ae" unicode="&#xe6;" horiz-adv-x="852" 
d="M39 135q0 69 51.5 105t141.5 36h144v12q0 60 -32.5 93t-86.5 33q-69 0 -134 -54l-56 57q80 69 189 69q121 0 170 -76q66 76 166 76q57 0 101 -21t69.5 -56.5t38 -78.5t12.5 -92v-34h-353q1 -63 41 -103.5t102 -40.5q81 0 123 75l73 -55q-44 -52 -90.5 -75t-107.5 -23
q-128 0 -185 97q-73 -97 -194 -97q-84 0 -133.5 43t-49.5 110zM135 135q0 -34 29.5 -57.5t69.5 -23.5q60 0 101 37.5t41 99.5v13h-146q-95 0 -95 -69zM460 276h257q-6 132 -127 132q-57 0 -93 -36t-37 -96z" />
    <glyph glyph-name="ccedilla" unicode="&#xe7;" horiz-adv-x="482" 
d="M293 485q113 0 182 -75l-68 -62q-50 53 -118 53q-67 0 -107.5 -47t-40.5 -121q0 -69 43.5 -115t109.5 -46q68 0 115 53l64 -64q-62 -69 -172 -72l-36 -50h25q47 0 71.5 -20t24.5 -52q0 -45 -35 -70t-90 -25q-58 0 -105 23l19 40q39 -15 77 -15q62 0 62 42q0 41 -45 41
q-22 0 -49 -8l-21 18l54 79q-96 13 -152 79t-56 164q0 110 69.5 180t178.5 70z" />
    <glyph glyph-name="egrave" unicode="&#xe8;" horiz-adv-x="556" 
d="M240 708l104 -144h-83l-149 144h128zM285 486q106 0 168.5 -67.5t62.5 -189.5v-25h-380q0 -60 48 -99t112 -39q72 0 130 71l68 -52q-76 -97 -210 -97q-107 0 -175.5 68.5t-68.5 180.5q0 106 69 177.5t176 71.5zM420 276q-2 66 -38 102t-99 36q-66 0 -106.5 -44.5
t-40.5 -93.5h284z" />
    <glyph glyph-name="eacute" unicode="&#xe9;" horiz-adv-x="556" 
d="M444 708l-149 -144h-83l104 144h128zM285 486q106 0 168.5 -67.5t62.5 -189.5v-25h-380q0 -60 48 -99t112 -39q72 0 130 71l68 -52q-76 -97 -210 -97q-107 0 -175.5 68.5t-68.5 180.5q0 106 69 177.5t176 71.5zM420 276q-2 66 -38 102t-99 36q-66 0 -106.5 -44.5
t-40.5 -93.5h284z" />
    <glyph glyph-name="ecircumflex" unicode="&#xea;" horiz-adv-x="556" 
d="M40 237q0 106 69 177.5t176 71.5q106 0 168.5 -67.5t62.5 -189.5v-25h-380q0 -60 48 -99t112 -39q72 0 130 71l68 -52q-76 -97 -210 -97q-107 0 -175.5 68.5t-68.5 180.5zM136 276h284q-2 66 -38 102t-99 36q-66 0 -106.5 -44.5t-40.5 -93.5zM113 564l112 144h106
l112 -144h-91l-74 96l-74 -96h-91z" />
    <glyph glyph-name="edieresis" unicode="&#xeb;" horiz-adv-x="556" 
d="M176 714q24 0 43 -17t19 -40q0 -27 -17.5 -45t-44.5 -18t-44.5 18t-17.5 45q0 23 18.5 40t43.5 17zM380 714q24 0 43 -17t19 -40q0 -27 -17.5 -45t-44.5 -18t-44.5 18t-17.5 45q0 23 18.5 40t43.5 17zM285 486q106 0 168.5 -67.5t62.5 -189.5v-25h-380q0 -60 48 -99
t112 -39q72 0 130 71l68 -52q-76 -97 -210 -97q-107 0 -175.5 68.5t-68.5 180.5q0 106 69 177.5t176 71.5zM420 276q-2 66 -38 102t-99 36q-66 0 -106.5 -44.5t-40.5 -93.5h284z" />
    <glyph glyph-name="igrave" unicode="&#xec;" horiz-adv-x="240" 
d="M82 708l104 -144h-83l-149 144h128zM165 474v-474h-90v474h90z" />
    <glyph glyph-name="iacute" unicode="&#xed;" horiz-adv-x="240" 
d="M286 708l-149 -144h-83l104 144h128zM165 474v-474h-90v474h90z" />
    <glyph glyph-name="icircumflex" unicode="&#xee;" horiz-adv-x="240" 
d="M75 0v474h90v-474h-90zM46 564h-91l112 144h106l112 -144h-91l-74 96z" />
    <glyph glyph-name="idieresis" unicode="&#xef;" horiz-adv-x="240" 
d="M18 714q24 0 43 -17t19 -40q0 -27 -17.5 -45t-44.5 -18t-44.5 18t-17.5 45q0 23 18.5 40t43.5 17zM222 714q24 0 43 -17t19 -40q0 -27 -17.5 -45t-44.5 -18t-44.5 18t-17.5 45q0 23 18.5 40t43.5 17zM165 474v-474h-90v474h90z" />
    <glyph glyph-name="eth" unicode="&#xf0;" horiz-adv-x="594" 
d="M226 782l89 -78l108 52l52 -44l-112 -55q98 -104 142 -197t44 -191q0 -130 -68 -205.5t-184 -75.5q-108 0 -180 73.5t-72 175.5q0 103 73 176t178 73q84 0 126 -50l2 2q-50 87 -144 180l-107 -52l-47 46l106 53l-85 71zM141 237q0 -74 43 -119.5t113 -45.5q71 0 113.5 45
t42.5 120t-43.5 120t-113.5 45q-69 0 -112 -46t-43 -119z" />
    <glyph glyph-name="ntilde" unicode="&#xf1;" horiz-adv-x="556" 
d="M158 0h-90v474h90v-73h2q19 39 61.5 62t94.5 23q79 0 125.5 -48t46.5 -129v-309h-90v283q0 55 -28.5 87t-79.5 32q-62 0 -97 -41t-35 -113v-248zM110 576q9 48 36 76t65 28q25 0 74 -19q5 -2 15.5 -7t16.5 -7.5t15 -4.5t17 -2q36 0 49 44h48q-8 -50 -32.5 -77t-61.5 -27
q-26 0 -81 21q-49 19 -66 19q-33 0 -47 -44h-48z" />
    <glyph glyph-name="ograve" unicode="&#xf2;" horiz-adv-x="594" 
d="M259 708l104 -144h-83l-149 144h128zM297 486q103 0 177.5 -71t74.5 -178q0 -104 -73 -176.5t-179 -72.5q-104 0 -178 72t-74 177q0 104 73 176.5t179 72.5zM141 237q0 -74 43 -119.5t113 -45.5t113 45.5t43 119.5q0 75 -43.5 120t-113.5 45q-69 0 -112 -46t-43 -119z
" />
    <glyph glyph-name="oacute" unicode="&#xf3;" horiz-adv-x="594" 
d="M464 708l-149 -144h-83l104 144h128zM297 486q103 0 177.5 -71t74.5 -178q0 -104 -73 -176.5t-179 -72.5q-104 0 -178 72t-74 177q0 104 73 176.5t179 72.5zM141 237q0 -74 43 -119.5t113 -45.5t113 45.5t43 119.5q0 75 -43.5 120t-113.5 45q-69 0 -112 -46t-43 -119z
" />
    <glyph glyph-name="ocircumflex" unicode="&#xf4;" horiz-adv-x="594" 
d="M45 237q0 104 73 176.5t179 72.5q103 0 177.5 -71t74.5 -178q0 -104 -73 -176.5t-179 -72.5q-104 0 -178 72t-74 177zM296 402q-69 0 -112 -46t-43 -119q0 -74 43 -119.5t113 -45.5t113 45.5t43 119.5q0 75 -43.5 120t-113.5 45zM132 564l112 144h106l112 -144h-91
l-74 96l-74 -96h-91z" />
    <glyph glyph-name="otilde" unicode="&#xf5;" horiz-adv-x="594" 
d="M465 684q-8 -50 -32.5 -77t-61.5 -27q-26 0 -81 21q-49 19 -66 19q-33 0 -47 -44h-48q9 48 36 76t65 28q25 0 74 -19q5 -2 15.5 -7t16.5 -7.5t15 -4.5t17 -2q36 0 49 44h48zM297 486q103 0 177.5 -71t74.5 -178q0 -104 -73 -176.5t-179 -72.5q-104 0 -178 72t-74 177
q0 104 73 176.5t179 72.5zM141 237q0 -74 43 -119.5t113 -45.5t113 45.5t43 119.5q0 75 -43.5 120t-113.5 45q-69 0 -112 -46t-43 -119z" />
    <glyph glyph-name="odieresis" unicode="&#xf6;" horiz-adv-x="594" 
d="M195 714q24 0 43 -17t19 -40q0 -27 -17.5 -45t-44.5 -18t-44.5 18t-17.5 45q0 23 18.5 40t43.5 17zM399 714q24 0 43 -17t19 -40q0 -27 -17.5 -45t-44.5 -18t-44.5 18t-17.5 45q0 23 18.5 40t43.5 17zM297 486q103 0 177.5 -71t74.5 -178q0 -104 -73 -176.5t-179 -72.5
q-104 0 -178 72t-74 177q0 104 73 176.5t179 72.5zM141 237q0 -74 43 -119.5t113 -45.5t113 45.5t43 119.5q0 75 -43.5 120t-113.5 45q-69 0 -112 -46t-43 -119z" />
    <glyph glyph-name="divide" unicode="&#xf7;" horiz-adv-x="666" 
d="M333 536q26 0 46 -19.5t20 -46.5t-19.5 -46.5t-46.5 -19.5t-46.5 19.5t-19.5 46.5t19.5 46.5t46.5 19.5zM600 341v-78h-534v78h534zM333 200q28 0 47 -20t19 -46q0 -27 -19.5 -46.5t-46.5 -19.5t-46.5 20t-19.5 46q0 27 19.5 46.5t46.5 19.5z" />
    <glyph glyph-name="oslash" unicode="&#xf8;" horiz-adv-x="594" 
d="M534 503l36 -36l-75 -76q54 -67 54 -154q0 -104 -73 -176.5t-179 -72.5q-84 0 -150 49l-69 -69l-37 36l67 68q-63 68 -63 165q0 104 73.5 176.5t178.5 72.5q94 0 162 -58zM141 237q0 -60 30 -102l228 232q-41 35 -103 35q-69 0 -112 -46t-43 -119zM208 99q36 -27 89 -27
q70 0 113 45.5t43 119.5q0 52 -22 89z" />
    <glyph glyph-name="ugrave" unicode="&#xf9;" horiz-adv-x="556" 
d="M68 165v309h90v-284q0 -55 29 -86.5t79 -31.5q62 0 97 41.5t35 112.5v248h90v-474h-90v73h-2q-19 -39 -61 -62t-95 -23q-79 0 -125.5 48.5t-46.5 128.5zM112 708h128l104 -144h-83z" />
    <glyph glyph-name="uacute" unicode="&#xfa;" horiz-adv-x="556" 
d="M68 165v309h90v-284q0 -55 29 -86.5t79 -31.5q62 0 97 41.5t35 112.5v248h90v-474h-90v73h-2q-19 -39 -61 -62t-95 -23q-79 0 -125.5 48.5t-46.5 128.5zM295 564h-83l104 144h128z" />
    <glyph glyph-name="ucircumflex" unicode="&#xfb;" horiz-adv-x="556" 
d="M68 165v309h90v-284q0 -55 29 -86.5t79 -31.5q62 0 97 41.5t35 112.5v248h90v-474h-90v73h-2q-19 -39 -61 -62t-95 -23q-79 0 -125.5 48.5t-46.5 128.5zM204 564h-91l112 144h106l112 -144h-91l-74 96z" />
    <glyph glyph-name="udieresis" unicode="&#xfc;" horiz-adv-x="556" 
d="M68 165v309h90v-284q0 -55 29 -86.5t79 -31.5q62 0 97 41.5t35 112.5v248h90v-474h-90v73h-2q-19 -39 -61 -62t-95 -23q-79 0 -125.5 48.5t-46.5 128.5zM176 594q-27 0 -44.5 18t-17.5 45q0 23 18.5 40t43.5 17q24 0 43 -17t19 -40q0 -27 -17.5 -45t-44.5 -18zM380 594
q-27 0 -44.5 18t-17.5 45q0 23 18.5 40t43.5 17q24 0 43 -17t19 -40q0 -27 -17.5 -45t-44.5 -18z" />
    <glyph glyph-name="yacute" unicode="&#xfd;" horiz-adv-x="500" 
d="M208 -3l-197 477h104l141 -370h2l134 370h97l-224 -574q-28 -73 -61.5 -106.5t-101.5 -33.5q-48 0 -80 13l11 81q30 -10 54 -10q39 0 58 18.5t35 60.5zM184 564l104 144h128l-149 -144h-83z" />
    <glyph glyph-name="thorn" unicode="&#xfe;" horiz-adv-x="611" 
d="M158 -228h-90v984h90v-350h2q24 37 69.5 58.5t95.5 21.5q106 0 173.5 -69.5t67.5 -179.5q0 -107 -66 -178t-174 -71q-50 0 -94.5 21t-71.5 59h-2v-296zM158 237q0 -74 43 -119.5t113 -45.5t113 45.5t43 119.5q0 75 -43.5 120t-113.5 45q-69 0 -112 -45.5t-43 -119.5z" />
    <glyph glyph-name="ydieresis" unicode="&#xff;" horiz-adv-x="500" 
d="M11 474h104l141 -370h2l134 370h97l-224 -574q-28 -73 -61.5 -106.5t-101.5 -33.5q-48 0 -80 13l11 81q30 -10 54 -10q39 0 58 18.5t35 60.5l28 74zM86 657q0 23 18.5 40t43.5 17q24 0 43 -17t19 -40q0 -27 -17.5 -45t-44.5 -18t-44.5 18t-17.5 45zM352 594
q-27 0 -44.5 18t-17.5 45q0 23 18.5 40t43.5 17q24 0 43 -17t19 -40q0 -27 -17.5 -45t-44.5 -18z" />
    <glyph glyph-name="dotlessi" unicode="&#x131;" horiz-adv-x="240" 
d="M165 474v-474h-90v474h90z" />
    <glyph glyph-name="Lslash" unicode="&#x141;" horiz-adv-x="519" 
d="M19 235l72 62v411h96v-328l216 188v-89l-216 -187v-202h325v-90h-421v209l-72 -63v89z" />
    <glyph glyph-name="lslash" unicode="&#x142;" horiz-adv-x="240" 
d="M75 298l-78 -78v90l78 78v368h90v-278l78 77v-90l-78 -77v-388h-90v298z" />
    <glyph glyph-name="OE" unicode="&#x152;" horiz-adv-x="981" 
d="M58 354q0 170 114 262t289 92h450v-90h-294v-211h276v-90h-276v-227h306v-90h-462q-179 0 -291 95.5t-112 258.5zM456 618q-128 0 -212 -72t-84 -192q0 -121 81 -192.5t214 -71.5h66v528h-65z" />
    <glyph glyph-name="oe" unicode="&#x153;" horiz-adv-x="926" 
d="M285 486q123 0 192 -91q70 91 187 91q105 0 164 -67.5t59 -172.5v-42h-359q1 -64 39 -101t104 -37q80 0 123 69l74 -49q-70 -98 -199 -98q-64 0 -115.5 24t-78.5 68q-66 -92 -195 -92q-110 0 -175.5 68.5t-65.5 180.5q0 108 68.5 178.5t177.5 70.5zM791 276
q-2 61 -38 99.5t-92 38.5q-53 0 -92 -40.5t-41 -97.5h263zM135 237q0 -76 40 -123.5t105 -47.5q76 0 117 44.5t41 126.5q0 77 -40.5 124t-110.5 47q-69 0 -110.5 -46t-41.5 -125z" />
    <glyph glyph-name="Scaron" unicode="&#x160;" horiz-adv-x="556" 
d="M33 80l79 68q23 -36 63 -56t87 -20q56 0 98.5 33t42.5 85q0 38 -26 62.5t-89 44.5l-63 21q-82 26 -126.5 73.5t-44.5 135.5q0 78 64 138.5t176 60.5q139 0 204 -81l-78 -71q-40 62 -127 62q-73 0 -105 -34.5t-32 -74.5q0 -79 106 -112l89 -29q77 -25 115.5 -68.5
t38.5 -116.5q0 -98 -69 -158.5t-177 -60.5q-153 0 -226 98zM113 892h87l78 -96l74 96h91l-112 -144h-106z" />
    <glyph glyph-name="scaron" unicode="&#x161;" horiz-adv-x="444" 
d="M210 -12q-122 0 -182 84l68 56q55 -56 115 -56q40 0 68 16t28 44q0 47 -90 68q-89 18 -129 48.5t-40 91.5q0 69 53.5 107.5t126.5 38.5q115 0 162 -78l-70 -53q-40 47 -97 47q-34 0 -56.5 -15t-22.5 -38q0 -49 93 -68q88 -17 127 -49t39 -95q0 -73 -56 -111t-137 -38z
M57 708h87l78 -96l74 96h91l-112 -144h-106z" />
    <glyph glyph-name="Ydieresis" unicode="&#x178;" horiz-adv-x="612" 
d="M258 302l-268 406h123l193 -311l199 311h117l-268 -406v-302h-96v302zM142 841q0 23 18.5 40t43.5 17t43.5 -16.5t18.5 -40.5q0 -27 -17.5 -45t-44.5 -18t-44.5 18t-17.5 45zM346 841q0 23 18 40t44 17q25 0 43.5 -17t18.5 -40q0 -27 -17.5 -45t-44.5 -18q-26 0 -44 18
t-18 45z" />
    <glyph glyph-name="Zcaron" unicode="&#x17d;" horiz-adv-x="593" 
d="M561 0h-529v89l403 529h-391v90h511v-90l-401 -528h407v-90zM244 748l-112 144h87l78 -96l74 96h91l-112 -144h-106z" />
    <glyph glyph-name="zcaron" unicode="&#x17e;" horiz-adv-x="463" 
d="M428 0h-393v81l269 315h-260v78h370v-80l-271 -316h285v-78zM179 564l-112 144h87l78 -96l74 96h91l-112 -144h-106z" />
    <glyph glyph-name="florin" unicode="&#x192;" horiz-adv-x="556" 
d="M85 -144q-45 0 -97 25l38 71q32 -12 54 -12q35 0 51.5 22.5t25.5 65.5l63 325h-108v72h122l27 141q13 71 55.5 112.5t98.5 41.5q71 0 116 -24l-40 -75q-24 15 -57 15q-69 0 -86 -104l-19 -107h120v-72h-134l-72 -364q-12 -65 -55 -99t-103 -34z" />
    <glyph glyph-name="circumflex" unicode="&#x2c6;" horiz-adv-x="240" 
d="M46 564h-91l112 144h106l112 -144h-91l-74 96z" />
    <glyph glyph-name="caron" unicode="&#x2c7;" horiz-adv-x="240" 
d="M-45 708h87l78 -96l74 96h91l-112 -144h-106z" />
    <glyph glyph-name="uni02C9" unicode="&#x2c9;" horiz-adv-x="240" 
d="M264 666v-66h-288v66h288z" />
    <glyph glyph-name="breve" unicode="&#x2d8;" horiz-adv-x="240" 
d="M-37 702h55q13 -72 103 -72q42 0 69.5 18.5t33.5 53.5h53q-4 -66 -46 -102t-111 -36t-110.5 36t-46.5 102z" />
    <glyph glyph-name="dotaccent" unicode="&#x2d9;" horiz-adv-x="240" 
d="M120 714q24 0 43 -16.5t19 -40.5q0 -27 -17.5 -45t-44.5 -18t-44.5 18t-17.5 45q0 23 18.5 40t43.5 17z" />
    <glyph glyph-name="ring" unicode="&#x2da;" horiz-adv-x="240" 
d="M120 750q43 0 72.5 -28.5t29.5 -69.5q0 -42 -30 -70.5t-72 -28.5q-41 0 -71.5 29t-30.5 69t30.5 69.5t71.5 29.5zM60 651q0 -22 18 -39t42 -17q25 0 42.5 16.5t17.5 39.5q0 24 -17.5 40.5t-42.5 16.5t-42.5 -16.5t-17.5 -40.5z" />
    <glyph glyph-name="ogonek" unicode="&#x2db;" horiz-adv-x="240" 
d="M172 7q-75 -78 -75 -123q0 -19 13 -32t36 -13t47 19l22 -44q-41 -35 -91 -35q-45 0 -72 25t-27 61q0 33 25 71.5t68 70.5h54z" />
    <glyph glyph-name="tilde" unicode="&#x2dc;" horiz-adv-x="240" 
d="M288 684q-8 -50 -32.5 -77t-61.5 -27q-26 0 -81 21q-49 19 -66 19q-33 0 -47 -44h-48q9 48 36 76t65 28q25 0 74 -19q5 -2 15.5 -7t16.5 -7.5t15 -4.5t17 -2q36 0 49 44h48z" />
    <glyph glyph-name="hungarumlaut" unicode="&#x2dd;" horiz-adv-x="240" 
d="M201 564h-82l104 144h127zM32 564h-82l104 144h127z" />
    <glyph glyph-name="uni0394" unicode="&#x394;" horiz-adv-x="678" 
d="M382 712l285 -712h-656l276 712h95zM134 83h406l-207 530z" />
    <glyph glyph-name="uni0394" unicode="&#x3b4;" horiz-adv-x="678" 
d="M382 712l285 -712h-656l276 712h95zM134 83h406l-207 530z" />
    <glyph glyph-name="uni03A9" unicode="&#x3a9;" horiz-adv-x="752" 
d="M46 77h190v62q-89 25 -139.5 99.5t-50.5 171.5q0 133 94.5 222t229.5 89q133 0 228 -86t95 -223q0 -99 -50 -173t-140 -100v-62h190v-77h-264v185q80 15 125.5 75t45.5 146q0 98 -65 165t-164 67q-97 0 -164 -66t-67 -167q0 -87 44 -145t125 -75v-185h-263v77z" />
    <glyph glyph-name="uni03A9" unicode="&#x3c9;" horiz-adv-x="752" 
d="M46 77h190v62q-89 25 -139.5 99.5t-50.5 171.5q0 133 94.5 222t229.5 89q133 0 228 -86t95 -223q0 -99 -50 -173t-140 -100v-62h190v-77h-264v185q80 15 125.5 75t45.5 146q0 98 -65 165t-164 67q-97 0 -164 -66t-67 -167q0 -87 44 -145t125 -75v-185h-263v77z" />
    <glyph glyph-name="uni03BC" unicode="&#x3bc;" horiz-adv-x="556" 
d="M68 -228v702h90v-284q0 -55 29 -86.5t79 -31.5q62 0 97 41.5t35 112.5v248h90v-474h-90v73h-2q-19 -39 -61 -62t-95 -23q-43 0 -82 18v-234h-90z" />
    <glyph glyph-name="pi" unicode="&#x3c0;" horiz-adv-x="578" 
d="M101 393h-70v81h511v-81h-78v-273q0 -29 9 -41t29 -12t43 10v-65q-40 -19 -74 -19q-49 0 -71 27t-22 93v280h-191v-393h-86v393z" />
    <glyph glyph-name="uni060C" unicode="&#x60c;" horiz-adv-x="282" 
d="M66 0l84 245h81l-69 -245h-96z" />
    <glyph glyph-name="uni0615" unicode="&#x615;" 
d="M-136 552v44h48v171h44v-100q39 46 89 46q41 0 66 -27.5t25 -72.5q0 -28 -11 -61h-261zM42 668q-25 0 -49.5 -18.5t-38.5 -53.5h136q2 12 2 18q0 24 -14 39t-36 15z" />
    <glyph glyph-name="uni061B" unicode="&#x61b;" horiz-adv-x="279" 
d="M80 196l84 245h81l-69 -245h-96zM124 -6q-26 0 -45.5 19.5t-19.5 45.5q0 27 19 46t46 19q26 0 45.5 -19t19.5 -46q0 -26 -19.5 -45.5t-45.5 -19.5z" />
    <glyph glyph-name="uni061F" unicode="&#x61f;" horiz-adv-x="494" 
d="M207 198v46q0 41 -10.5 60.5t-53.5 59.5q-59 55 -78.5 92.5t-19.5 85.5q0 84 56 134t143 50t146.5 -49t72.5 -134l-100 -10q-7 50 -38 80.5t-79 30.5q-45 0 -75.5 -30t-30.5 -76q0 -26 14.5 -53t29 -42t42.5 -41q33 -32 45 -46t21 -37.5t9 -58.5v-62h-94zM254 -6
q-26 0 -45.5 19.5t-19.5 45.5q0 27 19.5 46t45.5 19q27 0 46 -19.5t19 -45.5t-19 -45.5t-46 -19.5z" />
    <glyph glyph-name="uni0621" unicode="&#x621;" horiz-adv-x="472" 
d="M56 75h84q-36 49 -36 114q0 78 55 130.5t141 52.5q52 0 101 -15l-16 -75q-34 10 -74 10q-58 0 -92 -29.5t-34 -82.5q0 -54 45 -105h192v-75h-366v75z" />
    <glyph glyph-name="uni0622" unicode="&#x622;" horiz-adv-x="234" 
d="M181 812q-28 0 -81 13t-68 13q-22 0 -45 -17l-29 36q39 36 77 36q18 0 70 -13.5t72 -13.5q25 0 54 24l33 -33q-30 -45 -83 -45zM73 0v756h88v-756h-88z" />
    <glyph glyph-name="uni0623" unicode="&#x623;" horiz-adv-x="234" 
d="M73 756h88v-756h-88v756zM37 808v43h35q-14 23 -14 47q0 35 23.5 55.5t61.5 20.5q21 0 49 -6l-8 -42q-18 4 -32 4q-49 0 -49 -39q0 -17 13 -40h85v-43h-164z" />
    <glyph glyph-name="uni0624" unicode="&#x624;" horiz-adv-x="508" 
d="M262 3q-96 0 -152 53t-56 146q0 91 56.5 155t151.5 64q94 0 143.5 -54.5t49.5 -139.5v-188q0 -96 -65 -156t-217 -60q-15 0 -47 2l-5 80q34 -2 48 -2q197 0 197 119q-47 -19 -104 -19zM144 210q0 -123 130 -123q50 0 93 15v96q0 138 -109 138q-50 0 -82 -33.5t-32 -92.5z
M149 545v55h45q-17 31 -17 62q0 44 30 70t79 26q30 0 63 -7l-10 -54q-28 5 -42 5q-26 0 -44.5 -12.5t-18.5 -38.5q0 -23 17 -51h110v-55h-212z" />
    <glyph glyph-name="uni0625" unicode="&#x625;" horiz-adv-x="234" 
d="M73 756h88v-756h-88v756zM34 -250v42h35q-14 25 -14 48q0 35 23.5 55.5t61.5 20.5q21 0 49 -6l-8 -42q-18 4 -32 4q-49 0 -49 -39q0 -19 14 -41h84v-42h-164z" />
    <glyph glyph-name="uni0626" unicode="&#x626;" horiz-adv-x="763" 
d="M374 -168q-337 0 -337 220q0 57 24 132l81 -21q-15 -66 -15 -98q0 -79 61 -113.5t186 -34.5q115 0 178 25t63 65q0 22 -25.5 42.5t-61.5 38t-72.5 39t-62 55.5t-25.5 77q0 69 55.5 115.5t154.5 46.5q49 0 109 -15l-16 -84q-52 13 -95 13q-56 0 -86.5 -20.5t-30.5 -53.5
q0 -28 25.5 -50t61.5 -39l72.5 -35.5t62 -49.5t25.5 -71q0 -80 -89 -132t-243 -52zM73 328h45q-17 31 -17 62q0 44 30 70t79 26q30 0 63 -7l-10 -54q-28 5 -42 5q-26 0 -44.5 -12.5t-18.5 -38.5q0 -23 17 -51h110v-55h-212v55z" />
    <glyph glyph-name="uni0627" unicode="&#x627;" horiz-adv-x="234" 
d="M73 0v756h88v-756h-88z" />
    <glyph glyph-name="uni0628" unicode="&#x628;" horiz-adv-x="934" 
d="M793 410h88v-238q0 -77 -49.5 -124.5t-141.5 -47.5h-421q-107 0 -169 52t-62 140q0 71 32 158l79 -21q-22 -85 -22 -121q0 -126 155 -126h392q62 0 90.5 29t28.5 97v202zM447 -86q23 0 37 -15t14 -38t-14 -38t-37 -15q-24 0 -38.5 15t-14.5 38t14.5 38t38.5 15z" />
    <glyph glyph-name="uni0629" unicode="&#x629;" horiz-adv-x="519" 
d="M177 537q-22 0 -37 15.5t-15 38.5t14.5 37.5t37.5 14.5t38 -14.5t15 -37.5t-15 -38.5t-38 -15.5zM324 537q-23 0 -38.5 15.5t-15.5 38.5q0 22 15.5 37t38.5 15q22 0 36.5 -14.5t14.5 -37.5t-14.5 -38.5t-36.5 -15.5zM252 -5q-103 0 -159 56.5t-56 145.5q0 93 57.5 158.5
t157.5 65.5t157 -65.5t57 -158.5q0 -91 -57.5 -146.5t-156.5 -55.5zM254 79q57 0 89.5 30t32.5 92q0 61 -31.5 98t-92.5 37q-62 0 -93 -37t-31 -97q0 -123 126 -123z" />
    <glyph glyph-name="uni062A" unicode="&#x62a;" horiz-adv-x="934" 
d="M382 429q-22 0 -37 15.5t-15 38.5t15 37.5t37 14.5q23 0 38 -14.5t15 -37.5t-15 -38.5t-38 -15.5zM529 429q-23 0 -38.5 15.5t-15.5 38.5q0 22 15.5 37t38.5 15q22 0 36.5 -14.5t14.5 -37.5t-14.5 -38.5t-36.5 -15.5zM793 410h88v-238q0 -77 -49.5 -124.5t-141.5 -47.5
h-421q-107 0 -169 52t-62 140q0 71 32 158l79 -21q-22 -85 -22 -121q0 -126 155 -126h392q62 0 90.5 29t28.5 97v202z" />
    <glyph glyph-name="uni062B" unicode="&#x62b;" horiz-adv-x="934" 
d="M458 546q-22 0 -37 15.5t-15 38.5q0 22 15 37t37 15q23 0 38 -15t15 -37q0 -23 -15 -38.5t-38 -15.5zM382 427q-22 0 -37 15.5t-15 38.5t15 38t37 15q23 0 38 -15t15 -38t-15 -38.5t-38 -15.5zM475 481q0 23 15.5 38t38.5 15q22 0 36.5 -15t14.5 -38t-14.5 -38.5
t-36.5 -15.5q-23 0 -38.5 15.5t-15.5 38.5zM793 410h88v-238q0 -77 -49.5 -124.5t-141.5 -47.5h-421q-107 0 -169 52t-62 140q0 71 32 158l79 -21q-22 -85 -22 -121q0 -126 155 -126h392q62 0 90.5 29t28.5 97v202z" />
    <glyph glyph-name="uni062C" unicode="&#x62c;" horiz-adv-x="619" 
d="M299 421q131 0 196.5 -73.5t65.5 -199.5q0 -66 -19 -148h-314q-49 0 -74.5 -22.5t-25.5 -64.5q0 -90 119 -90q17 0 43 4l14 -81q-27 -6 -65 -6q-89 0 -145.5 45.5t-56.5 126.5q0 77 49.5 123.5t133.5 46.5h250q6 26 6 59q0 91 -47 143t-142 52q-50 0 -105 -17l-20 78
q66 24 137 24zM311 -36q21 0 33.5 -13.5t12.5 -34.5t-12.5 -34.5t-33.5 -13.5t-34.5 13.5t-13.5 34.5t13 34.5t35 13.5z" />
    <glyph glyph-name="uni062D" unicode="&#x62d;" horiz-adv-x="620" 
d="M228 0q-49 0 -75 -22.5t-26 -63.5q0 -90 123 -90q31 0 85 12l15 -78q-57 -18 -111 -18q-90 0 -146 46t-56 128q0 76 49.5 122t132.5 46h251q6 26 6 59q0 91 -47 143t-142 52q-50 0 -105 -17l-20 78q66 24 137 24q131 0 197 -73.5t66 -199.5q0 -72 -19 -148h-315z" />
    <glyph glyph-name="uni062E" unicode="&#x62e;" horiz-adv-x="620" 
d="M299 537q-24 0 -38.5 15t-14.5 39q0 23 14.5 37.5t38.5 14.5q23 0 37 -14.5t14 -37.5q0 -24 -14 -39t-37 -15zM228 0q-49 0 -75 -22.5t-26 -63.5q0 -90 123 -90q31 0 85 12l15 -78q-57 -18 -111 -18q-90 0 -146 46t-56 128q0 76 49.5 122t132.5 46h251q6 26 6 59
q0 91 -47 143t-142 52q-50 0 -105 -17l-20 78q66 24 137 24q131 0 197 -73.5t66 -199.5q0 -72 -19 -148h-315z" />
    <glyph glyph-name="uni062F" unicode="&#x62f;" horiz-adv-x="509" 
d="M39 0v82h325v14q0 76 -53 146.5t-141 126.5l54 71q130 -85 179 -172.5t49 -200.5v-67h-413z" />
    <glyph glyph-name="uni0630" unicode="&#x630;" horiz-adv-x="509" 
d="M191 523q-24 0 -38.5 15t-14.5 39q0 23 14.5 37.5t38.5 14.5q23 0 37 -14.5t14 -37.5q0 -24 -14 -39t-37 -15zM39 0v82h325v14q0 76 -53 146.5t-141 126.5l54 71q130 -85 179 -172.5t49 -200.5v-67h-413z" />
    <glyph glyph-name="uni0631" unicode="&#x631;" horiz-adv-x="298" 
d="M12 -175l-16 80q75 12 108 46t33 108v351h88v-332q0 -231 -213 -253z" />
    <glyph glyph-name="uni0632" unicode="&#x632;" horiz-adv-x="298" 
d="M180 526q-24 0 -38.5 15t-14.5 39q0 23 14.5 37.5t38.5 14.5q23 0 37 -14.5t14 -37.5q0 -24 -14 -39t-37 -15zM12 -175l-16 80q75 12 108 46t33 108v351h88v-332q0 -231 -213 -253z" />
    <glyph glyph-name="uni0633" unicode="&#x633;" horiz-adv-x="1197" 
d="M307 -167q-131 0 -200.5 66.5t-69.5 169.5q0 81 43 180l78 -28q-31 -79 -31 -141q0 -81 48 -121.5t135 -40.5q185 0 185 180v239h88v-177q0 -78 93 -78q50 0 74 25.5t24 92.5v137h88v-176q0 -79 97 -79q53 0 75 28.5t22 96.5v203h88v-237q0 -82 -48 -127.5t-133 -45.5
q-92 0 -136 56q-48 -59 -147 -59q-66 0 -101 28q-16 -94 -88.5 -143t-183.5 -49z" />
    <glyph glyph-name="uni0634" unicode="&#x634;" horiz-adv-x="1197" 
d="M37 69q0 81 43 180l78 -28q-31 -79 -31 -141q0 -81 48 -121.5t135 -40.5q185 0 185 180v239h88v-177q0 -78 93 -78q50 0 74 25.5t24 92.5v137h88v-176q0 -79 97 -79q53 0 75 28.5t22 96.5v203h88v-237q0 -82 -48 -127.5t-133 -45.5q-92 0 -136 56q-48 -59 -147 -59
q-66 0 -101 28q-16 -94 -88.5 -143t-183.5 -49q-131 0 -200.5 66.5t-69.5 169.5zM743 451q-22 0 -37 15.5t-15 38.5t15 38t37 15q23 0 38 -15t15 -38t-15 -38.5t-38 -15.5zM890 451q-23 0 -38.5 15.5t-15.5 38.5t15.5 38t38.5 15q22 0 36.5 -15t14.5 -38t-14.5 -38.5
t-36.5 -15.5zM767 624q0 22 15 37t37 15q23 0 38 -15t15 -37q0 -23 -15 -38.5t-38 -15.5q-22 0 -37 15.5t-15 38.5z" />
    <glyph glyph-name="uni0635" unicode="&#x635;" horiz-adv-x="1336" 
d="M1053 421q110 0 167.5 -69t57.5 -183q0 -81 -28 -169h-566q-67 0 -105 26q-15 -94 -88 -143.5t-184 -49.5q-131 0 -200.5 66.5t-69.5 169.5q0 81 43 180l78 -28q-31 -79 -31 -141q0 -81 48 -121.5t135 -40.5q185 0 185 180v239h88v-186q0 -52 58 -65q182 335 412 335z
M1179 82q11 44 11 82q0 77 -38 124.5t-109 47.5q-74 0 -153.5 -62t-154.5 -192h444z" />
    <glyph glyph-name="uni0636" unicode="&#x636;" horiz-adv-x="1336" 
d="M966 537q-24 0 -38.5 15t-14.5 39q0 23 14.5 37.5t38.5 14.5q23 0 37 -14.5t14 -37.5q0 -24 -14 -39t-37 -15zM1053 421q110 0 167.5 -69t57.5 -183q0 -81 -28 -169h-566q-67 0 -105 26q-15 -94 -88 -143.5t-184 -49.5q-131 0 -200.5 66.5t-69.5 169.5q0 81 43 180
l78 -28q-31 -79 -31 -141q0 -81 48 -121.5t135 -40.5q185 0 185 180v239h88v-186q0 -52 58 -65q182 335 412 335zM1179 82q11 44 11 82q0 77 -38 124.5t-109 47.5q-74 0 -153.5 -62t-154.5 -192h444z" />
    <glyph glyph-name="uni0637" unicode="&#x637;" horiz-adv-x="847" 
d="M38 0v82h102v674h88v-545q75 104 162.5 157t173.5 53q109 0 167 -71.5t58 -181.5q0 -78 -28 -168h-723zM230 82h460q10 40 10 83q0 76 -37 123.5t-108 47.5q-79 0 -167 -67t-158 -187z" />
    <glyph glyph-name="uni0638" unicode="&#x638;" horiz-adv-x="847" 
d="M38 0v82h102v674h88v-545q75 104 162.5 157t173.5 53q109 0 167 -71.5t58 -181.5q0 -78 -28 -168h-723zM230 82h460q10 40 10 83q0 76 -37 123.5t-108 47.5q-79 0 -167 -67t-158 -187zM446 591q0 23 14.5 37.5t38.5 14.5q23 0 37 -14.5t14 -37.5q0 -24 -14 -39t-37 -15
q-24 0 -38.5 15t-14.5 39z" />
    <glyph glyph-name="uni0639" unicode="&#x639;" horiz-adv-x="521" 
d="M241 0q-53 0 -83 -22.5t-30 -63.5q0 -90 123 -90q41 0 83 10l16 -78q-49 -16 -102 -16q-99 0 -155 45t-56 127q0 63 36.5 106.5t100.5 57.5q-54 69 -54 150q0 87 61 141t173 54q51 0 111 -15l-17 -82q-46 12 -93 12q-69 0 -106 -31t-37 -86q0 -75 60 -137h216v-82h-247z
" />
    <glyph glyph-name="uni063A" unicode="&#x63a;" horiz-adv-x="521" 
d="M354 537q-24 0 -38.5 15t-14.5 39q0 23 14.5 37.5t38.5 14.5q23 0 37 -14.5t14 -37.5q0 -24 -14 -39t-37 -15zM241 0q-53 0 -83 -22.5t-30 -63.5q0 -90 123 -90q41 0 83 10l16 -78q-49 -16 -102 -16q-99 0 -155 45t-56 127q0 63 36.5 106.5t100.5 57.5q-54 69 -54 150
q0 87 61 141t173 54q51 0 111 -15l-17 -82q-46 12 -93 12q-69 0 -106 -31t-37 -86q0 -75 60 -137h216v-82h-247z" />
    <glyph glyph-name="uni0640" unicode="&#x640;" horiz-adv-x="52" 
d="M0 0v82h52q20 0 20 -42q0 -40 -20 -40h-52z" />
    <glyph glyph-name="uni0641" unicode="&#x641;" horiz-adv-x="1047" 
d="M270 0q-107 0 -169 52t-62 140q0 71 32 158l79 -21q-22 -85 -22 -121q0 -126 155 -126h326q-37 50 -37 124q0 93 60.5 154t161.5 61q102 0 151 -63.5t49 -155.5q0 -97 -42 -202h-682zM662 205q0 -66 44 -123h182q17 65 17 113q0 65 -29 103t-89 38t-92.5 -36.5
t-32.5 -94.5zM741 591q0 23 14.5 37.5t38.5 14.5q23 0 37 -14.5t14 -37.5q0 -24 -14 -39t-37 -15q-24 0 -38.5 15t-14.5 39z" />
    <glyph glyph-name="uni0642" unicode="&#x642;" horiz-adv-x="780" 
d="M458 537q-22 0 -37 15.5t-15 38.5t15 37.5t37 14.5q23 0 38 -14.5t15 -37.5t-15 -38.5t-38 -15.5zM605 537q-23 0 -38.5 15.5t-15.5 38.5q0 22 15.5 37t38.5 15q22 0 36.5 -14.5t14.5 -37.5t-14.5 -38.5t-36.5 -15.5zM390 -167q-353 0 -353 235q0 64 24 133l81 -21
q-15 -46 -15 -99q0 -84 60.5 -123.5t204.5 -39.5q244 0 246 104q-47 -19 -105 -19q-97 0 -152.5 53t-55.5 146q0 91 56 155t152 64q94 0 144 -59t50 -151v-149q0 -116 -80.5 -172.5t-256.5 -56.5zM546 87q50 0 93 15v85q0 149 -111 149q-50 0 -82 -33.5t-32 -91.5
q0 -124 132 -124z" />
    <glyph glyph-name="uni0643" unicode="&#x643;" horiz-adv-x="836" 
d="M269 0q-107 0 -169 52t-62 140q0 71 32 158l79 -21q-22 -85 -22 -121q0 -126 155 -126h283q67 0 88.5 27t21.5 102v545h88v-577q0 -94 -49.5 -136.5t-148.5 -42.5h-296zM512 317h-199v52h49q-15 25 -15 54q0 40 28.5 67t75.5 27q22 0 50 -8l-9 -51q-20 6 -38 6
q-52 0 -52 -45q0 -28 19 -50h91v-52z" />
    <glyph glyph-name="uni0644" unicode="&#x644;" horiz-adv-x="655" 
d="M304 -167q-124 0 -195.5 65.5t-71.5 170.5q0 81 43 180l77 -28q-30 -92 -30 -142q0 -161 182 -161q185 0 185 180v658h88v-681q0 -114 -75 -178t-203 -64z" />
    <glyph glyph-name="uni0645" unicode="&#x645;" horiz-adv-x="651" 
d="M37 -260v177q0 78 44 121.5t123 43.5h6q-35 60 -35 128q0 94 62.5 152.5t157.5 58.5t149 -60.5t54 -150.5q0 -91 -55.5 -150.5t-180.5 -59.5h-153q-86 0 -86 -87v-173h-86zM388 336q-54 0 -88.5 -33.5t-34.5 -94.5q0 -59 43 -126h64q72 0 104 36t32 92q0 58 -33 92
t-87 34z" />
    <glyph glyph-name="uni0646" unicode="&#x646;" horiz-adv-x="657" 
d="M320 409q-24 0 -38.5 15t-14.5 39q0 23 14.5 37.5t38.5 14.5q23 0 37 -14.5t14 -37.5q0 -24 -14 -39t-37 -15zM308 -167q-131 0 -200.5 66.5t-69.5 169.5q0 81 43 180l78 -28q-31 -79 -31 -141q0 -81 48 -121.5t135 -40.5q185 0 185 180v239h88v-262q0 -117 -75 -179.5
t-201 -62.5z" />
    <glyph glyph-name="uni0647" unicode="&#x647;" horiz-adv-x="519" 
d="M252 -5q-103 0 -159 56.5t-56 145.5q0 93 57.5 158.5t157.5 65.5t157 -65.5t57 -158.5q0 -91 -57.5 -146.5t-156.5 -55.5zM254 79q57 0 89.5 30t32.5 92q0 61 -31.5 98t-92.5 37q-62 0 -93 -37t-31 -97q0 -123 126 -123z" />
    <glyph glyph-name="uni0648" unicode="&#x648;" horiz-adv-x="508" 
d="M126 -175l-5 80q34 -2 48 -2q197 0 197 119q-47 -19 -104 -19q-96 0 -152 53t-56 146q0 91 56.5 155t151.5 64q94 0 143.5 -54.5t49.5 -139.5v-188q0 -96 -65 -156t-217 -60q-15 0 -47 2zM274 87q50 0 93 15v96q0 138 -109 138q-50 0 -82 -33.5t-32 -92.5
q0 -123 130 -123z" />
    <glyph glyph-name="uni0649" unicode="&#x649;" horiz-adv-x="763" 
d="M374 -168q-337 0 -337 220q0 57 24 132l81 -21q-15 -66 -15 -98q0 -79 61 -113.5t186 -34.5q115 0 178 25t63 65q0 22 -25.5 42.5t-61.5 38t-72.5 39t-62 55.5t-25.5 77q0 69 55.5 115.5t154.5 46.5q49 0 109 -15l-16 -84q-52 13 -95 13q-56 0 -86.5 -20.5t-30.5 -53.5
q0 -28 25.5 -50t61.5 -39l72.5 -35.5t62 -49.5t25.5 -71q0 -80 -89 -132t-243 -52z" />
    <glyph glyph-name="uni064A" unicode="&#x64a;" horiz-adv-x="763" 
d="M374 -168q-337 0 -337 220q0 57 24 132l81 -21q-15 -66 -15 -98q0 -79 61 -113.5t186 -34.5q115 0 178 25t63 65q0 22 -25.5 42.5t-61.5 38t-72.5 39t-62 55.5t-25.5 77q0 69 55.5 115.5t154.5 46.5q49 0 109 -15l-16 -84q-52 13 -95 13q-56 0 -86.5 -20.5t-30.5 -53.5
q0 -28 25.5 -50t61.5 -39l72.5 -35.5t62 -49.5t25.5 -71q0 -80 -89 -132t-243 -52zM296 -360q-22 0 -37 15t-15 38t14.5 38t37.5 15t38 -15t15 -38t-15 -38t-38 -15zM443 -360q-23 0 -38.5 15t-15.5 38t15.5 38t38.5 15q22 0 36.5 -15t14.5 -38t-14.5 -38t-36.5 -15z" />
    <glyph glyph-name="uni064B" unicode="&#x64b;" 
d="M-114 638l-3 1l7 41l224 34l3 -1l-7 -41zM-114 543l-3 1l7 41l224 34l3 -1l-7 -41z" />
    <glyph glyph-name="uni064C" unicode="&#x64c;" 
d="M73 772q30 0 48 -25.5t18 -66.5q0 -60 -33 -95.5t-75 -35.5q-26 0 -46 17.5t-33.5 35t-24.5 17.5q-16 0 -39 -32l-27 24q33 49 69 49q24 0 54.5 -35t49.5 -35q36 0 56 41q-4 -1 -13 -1q-32 0 -53.5 16t-21.5 46q0 31 21 55.5t50 24.5zM84 670q11 0 16 1v8q0 52 -30 52
q-13 0 -21.5 -10.5t-8.5 -23.5q0 -27 44 -27z" />
    <glyph glyph-name="uni064D" unicode="&#x64d;" 
d="M-115 -166l-3 1l7 42l224 34l3 -1l-7 -42zM-115 -251l-3 1l7 42l224 34l3 -1l-7 -42z" />
    <glyph glyph-name="uni064E" unicode="&#x64e;" 
d="M-114 543l-3 1l7 41l224 34l3 -1l-7 -41z" />
    <glyph glyph-name="uni064F" unicode="&#x64f;" 
d="M18 772q29 0 47.5 -25.5t18.5 -66.5q0 -63 -32 -97t-77 -34q-32 0 -59 15l17 37q22 -11 42 -11q41 0 59 41q-4 -1 -12 -1q-33 0 -55 16t-22 46q0 32 21 56t52 24zM29 670q11 0 16 1v8q0 22 -8 37t-23 15q-14 0 -22.5 -10.5t-8.5 -23.5q0 -27 46 -27z" />
    <glyph glyph-name="uni0650" unicode="&#x650;" 
d="M-114 -166l-3 1l7 42l224 34l3 -1l-7 -42z" />
    <glyph glyph-name="uni0651" unicode="&#x651;" 
d="M102 687q15 -29 15 -59q0 -31 -16.5 -50.5t-45.5 -19.5q-28 0 -48 18q-17 -27 -54 -27q-34 0 -52 18t-18 48q0 24 11 50l29 -8q-4 -15 -4 -27q0 -35 34 -35q28 0 28 36q0 11 -1 18l31 7q6 -21 6 -38v-2q13 -13 33 -13q29 0 29 29q0 19 -8 43z" />
    <glyph glyph-name="uni0652" unicode="&#x652;" 
d="M0 546q-34 0 -52.5 18.5t-18.5 51.5t19.5 59t51.5 26t51.5 -26t19.5 -59t-18.5 -51.5t-52.5 -18.5zM0 589q29 0 29 30q0 16 -7.5 27t-21.5 11q-13 0 -21 -11t-8 -27q0 -30 29 -30z" />
    <glyph glyph-name="uni0653" unicode="&#x653;" 
d="M70 545q-28 0 -81 13t-68 13q-22 0 -45 -17l-29 36q39 36 77 36q18 0 70 -13.5t72 -13.5q25 0 54 24l33 -33q-30 -45 -83 -45z" />
    <glyph glyph-name="uni0654" unicode="&#x654;" 
d="M-82 584h35q-14 23 -14 47q0 35 23.5 55.5t61.5 20.5q21 0 49 -6l-8 -42q-18 4 -32 4q-49 0 -49 -39q0 -17 13 -40h85v-43h-164v43z" />
    <glyph glyph-name="uni0655" unicode="&#x655;" 
d="M-82 -208h35q-14 25 -14 48q0 35 23.5 55.5t61.5 20.5q21 0 49 -6l-8 -42q-18 4 -32 4q-49 0 -49 -39q0 -19 14 -41h84v-42h-164v42z" />
    <glyph glyph-name="uni0656" unicode="&#x656;" 
d="M-22 -279v177h44v-165l-38 -12h-6z" />
    <glyph glyph-name="uni0658" unicode="&#x658;" 
d="M-66 672l38 -13q-11 -27 -11 -46q0 -36 41 -36q38 0 38 43v52h42v-52q0 -40 -21 -63t-59 -23q-39 0 -61.5 19.5t-22.5 55.5q0 31 16 63z" />
    <glyph glyph-name="uni0660" unicode="&#x660;" horiz-adv-x="540" 
d="M270 212l-83 83l83 79l82 -80z" />
    <glyph glyph-name="uni0661" unicode="&#x661;" horiz-adv-x="540" 
d="M226 0v653h88v-653h-88z" />
    <glyph glyph-name="uni0662" unicode="&#x662;" horiz-adv-x="540" 
d="M82 0v653h88v-136q63 -27 120 -27q58 0 78.5 37t12.5 122l88 4q8 -126 -34 -185t-143 -59q-53 0 -122 26v-435h-88z" />
    <glyph glyph-name="uni0663" unicode="&#x663;" horiz-adv-x="540" 
d="M36 653h88v-138q27 -11 60 -11q41 0 55 33t7 111l84 5q7 -84 -10 -139q26 -10 52 -10q42 0 56.5 33t7.5 111l86 5q18 -226 -132 -226q-56 0 -111 24q-30 -24 -78 -24q-41 0 -77 13v-440h-88v653z" />
    <glyph glyph-name="uni0664" unicode="&#x664;" horiz-adv-x="540" 
d="M455 81l4 -81q-70 -8 -127 -8q-253 0 -253 157q0 55 34 103t96 82q-43 20 -71 56t-28 81q0 85 71 134.5t212 49.5q22 0 34 -1v-81q-14 1 -40 1q-187 0 -187 -105q0 -40 38.5 -65t107.5 -25q26 0 64 5l-1 -83q-124 -10 -181.5 -50t-57.5 -87t42.5 -67.5t133.5 -20.5
q44 0 109 5z" />
    <glyph glyph-name="uni0665" unicode="&#x665;" horiz-adv-x="540" 
d="M270 -8q-106 0 -165.5 63.5t-59.5 213.5q0 191 64.5 288t160.5 97t160.5 -97t64.5 -288q0 -150 -59.5 -213.5t-165.5 -63.5zM270 76q135 0 135 197q0 133 -39 215t-96 82t-96 -82t-39 -215q0 -197 135 -197z" />
    <glyph glyph-name="uni0666" unicode="&#x666;" horiz-adv-x="540" 
d="M349 0v571h-301v82h389v-653h-88z" />
    <glyph glyph-name="uni0667" unicode="&#x667;" horiz-adv-x="540" 
d="M439 661l93 -26l-211 -635h-101l-213 636l93 25l170 -537z" />
    <glyph glyph-name="uni0668" unicode="&#x668;" horiz-adv-x="540" 
d="M532 13l-93 -25l-169 538l-170 -538l-93 26l211 635h101z" />
    <glyph glyph-name="uni0669" unicode="&#x669;" horiz-adv-x="540" 
d="M55 453q0 93 57.5 146.5t158.5 53.5h175v-653h-88v270q-38 -2 -53 -2q-123 0 -186.5 47.5t-63.5 137.5zM145 454q0 -51 42.5 -78.5t119.5 -27.5q24 0 51 3v220h-68q-70 0 -107.5 -30.5t-37.5 -86.5z" />
    <glyph glyph-name="uni066A" unicode="&#x66a;" horiz-adv-x="540" 
d="M153 -21l-65 24l290 659l65 -25zM132 494l-83 83l83 83l84 -83zM408 0l-83 83l83 82l83 -83z" />
    <glyph glyph-name="uni066B" unicode="&#x66b;" horiz-adv-x="250" 
d="M199 74l-84 -245h-81l69 245h96z" />
    <glyph glyph-name="uni066C" unicode="&#x66c;" horiz-adv-x="216" 
d="M165 129l-58 -173h-73l48 173h83z" />
    <glyph glyph-name="uni066D" unicode="&#x66d;" horiz-adv-x="842" 
d="M203 -98l-24 20l113 266l-251 150l8 37l299 -37l63 288h30l59 -288l299 37l11 -37l-261 -149l122 -267l-27 -20l-218 198z" />
    <glyph glyph-name="uni066E" unicode="&#x66e;" horiz-adv-x="934" 
d="M793 410h88v-238q0 -77 -49.5 -124.5t-141.5 -47.5h-421q-107 0 -169 52t-62 140q0 71 32 158l79 -21q-22 -85 -22 -121q0 -126 155 -126h392q62 0 90.5 29t28.5 97v202z" />
    <glyph glyph-name="uni066F" unicode="&#x66f;" horiz-adv-x="780" 
d="M390 -167q-353 0 -353 235q0 64 24 133l81 -21q-15 -46 -15 -99q0 -84 60.5 -123.5t204.5 -39.5q244 0 246 104q-47 -19 -105 -19q-97 0 -152.5 53t-55.5 146q0 91 56 155t152 64q94 0 144 -59t50 -151v-149q0 -116 -80.5 -172.5t-256.5 -56.5zM546 87q50 0 93 15v85
q0 149 -111 149q-50 0 -82 -33.5t-32 -91.5q0 -124 132 -124z" />
    <glyph glyph-name="uni0670" unicode="&#x670;" 
d="M-22 554v177h44v-165l-38 -12h-6z" />
    <glyph glyph-name="uni0671" unicode="&#x671;" horiz-adv-x="234" 
d="M73 756h88v-756h-88v756zM223 808h-247v43h48v101h42v-43q35 47 87 47q37 0 59 -24t22 -64q0 -25 -11 -60zM147 913q-51 0 -85 -62h127q3 11 3 19q0 20 -12.5 31.5t-32.5 11.5z" />
    <glyph glyph-name="uni0679" unicode="&#x679;" horiz-adv-x="934" 
d="M38 192q0 71 32 158l79 -21q-22 -85 -22 -121q0 -126 155 -126h392q62 0 90.5 29t28.5 97v202h88v-238q0 -77 -49.5 -124.5t-141.5 -47.5h-421q-107 0 -169 52t-62 140zM311 435v44h48v171h44v-100q39 46 89 46q41 0 66 -27.5t25 -72.5q0 -28 -11 -61h-261zM401 479h136
q2 12 2 18q0 24 -14 39t-36 15q-25 0 -49.5 -18.5t-38.5 -53.5z" />
    <glyph glyph-name="uni067E" unicode="&#x67e;" horiz-adv-x="934" 
d="M793 410h88v-238q0 -77 -49.5 -124.5t-141.5 -47.5h-421q-107 0 -169 52t-62 140q0 71 32 158l79 -21q-22 -85 -22 -121q0 -126 155 -126h392q62 0 90.5 29t28.5 97v202zM424 -139q0 -23 -15 -38.5t-38 -15.5q-22 0 -37 15.5t-15 38.5t14.5 37.5t37.5 14.5t38 -14.5
t15 -37.5zM518 -87q22 0 36.5 -14.5t14.5 -37.5t-14.5 -38.5t-36.5 -15.5q-23 0 -38.5 15.5t-15.5 38.5q0 22 15.5 37t38.5 15zM446 -203q23 0 38 -15.5t15 -38.5t-15 -37.5t-38 -14.5t-38 15t-15 37q0 23 15 38.5t38 15.5z" />
    <glyph glyph-name="uni0686" unicode="&#x686;" horiz-adv-x="619" 
d="M299 421q131 0 196.5 -73.5t65.5 -199.5q0 -66 -19 -148h-314q-49 0 -74.5 -22.5t-25.5 -64.5q0 -90 119 -90q17 0 43 4l14 -81q-27 -6 -65 -6q-89 0 -145.5 45.5t-56.5 126.5q0 77 49.5 123.5t133.5 46.5h250q6 26 6 59q0 91 -47 143t-142 52q-50 0 -105 -17l-20 78
q66 24 137 24zM349 -81q0 -17 -10.5 -27.5t-26.5 -10.5t-26 10.5t-10 27.5q0 16 10 26t26 10t26.5 -10t10.5 -26zM415 -45q16 0 26 -10t10 -26q0 -17 -10 -27.5t-26 -10.5q-17 0 -27.5 10.5t-10.5 27.5q0 16 10.5 26t27.5 10zM364 -126q16 0 27 -11t11 -27t-10.5 -26
t-27.5 -10q-16 0 -26.5 10t-10.5 26t10.5 27t26.5 11z" />
    <glyph glyph-name="uni0688" unicode="&#x688;" horiz-adv-x="509" 
d="M452 0h-413v82h325v14q0 76 -53 146.5t-141 126.5l54 71q130 -85 179 -172.5t49 -200.5v-67zM45 573h48v171h44v-100q39 46 89 46q41 0 66 -27.5t25 -72.5q0 -28 -11 -61h-261v44zM223 645q-25 0 -49.5 -18.5t-38.5 -53.5h136q2 12 2 18q0 24 -14 39t-36 15z" />
    <glyph glyph-name="uni0691" unicode="&#x691;" horiz-adv-x="298" 
d="M-4 -95q75 12 108 46t33 108v351h88v-332q0 -231 -213 -253zM34 532v44h48v171h44v-100q39 46 89 46q41 0 66 -27.5t25 -72.5q0 -28 -11 -61h-261zM212 648q-25 0 -49.5 -18.5t-38.5 -53.5h136q2 12 2 18q0 24 -14 39t-36 15z" />
    <glyph glyph-name="uni0698" unicode="&#x698;" horiz-adv-x="298" 
d="M181 643q-22 0 -37 15.5t-15 38.5q0 22 15 37t37 15q23 0 38 -15t15 -37q0 -23 -15 -38.5t-38 -15.5zM105 524q-22 0 -37 15.5t-15 38.5t15 38t37 15q23 0 38 -15t15 -38t-15 -38.5t-38 -15.5zM252 524q-23 0 -38.5 15.5t-15.5 38.5t15.5 38t38.5 15q22 0 36.5 -15
t14.5 -38t-14.5 -38.5t-36.5 -15.5zM12 -175l-16 80q75 12 108 46t33 108v351h88v-332q0 -231 -213 -253z" />
    <glyph glyph-name="uni06A1" unicode="&#x6a1;" horiz-adv-x="1047" 
d="M39 192q0 71 32 158l79 -21q-22 -85 -22 -121q0 -126 155 -126h326q-37 50 -37 124q0 93 60.5 154t161.5 61q102 0 151 -63.5t49 -155.5q0 -97 -42 -202h-682q-107 0 -169 52t-62 140zM662 205q0 -66 44 -123h182q17 65 17 113q0 65 -29 103t-89 38t-92.5 -36.5
t-32.5 -94.5z" />
    <glyph glyph-name="uni06A4" unicode="&#x6a4;" horiz-adv-x="1047" 
d="M270 0q-107 0 -169 52t-62 140q0 71 32 158l79 -21q-22 -85 -22 -121q0 -126 155 -126h326q-37 50 -37 124q0 93 60.5 154t161.5 61q102 0 151 -63.5t49 -155.5q0 -97 -42 -202h-682zM662 205q0 -66 44 -123h182q17 65 17 113q0 65 -29 103t-89 38t-92.5 -36.5
t-32.5 -94.5zM667 589q0 23 15 38t37 15q23 0 38 -15t15 -38t-15 -38.5t-38 -15.5q-22 0 -37 15.5t-15 38.5zM866 535q-23 0 -38.5 15.5t-15.5 38.5t15.5 38t38.5 15q22 0 36.5 -15t14.5 -38t-14.5 -38.5t-36.5 -15.5zM795 654q-22 0 -37 15.5t-15 38.5q0 22 15 37t37 15
q23 0 38 -15t15 -37q0 -23 -15 -38.5t-38 -15.5z" />
    <glyph glyph-name="uni06A9" unicode="&#x6a9;" horiz-adv-x="854" 
d="M507 442q87 -28 145.5 -64t89.5 -82t43 -93.5t12 -109.5v-93h-528q-107 0 -169 52t-62 140q0 71 32 158l79 -21q-22 -85 -22 -121q0 -126 155 -126h429v27q0 105 -65.5 168t-227.5 109v85l283 273l57 -58z" />
    <glyph glyph-name="uni06AF" unicode="&#x6af;" horiz-adv-x="854" 
d="M668 777l-253 -243l-55 55l255 242zM507 442q87 -28 145.5 -64t89.5 -82t43 -93.5t12 -109.5v-93h-528q-107 0 -169 52t-62 140q0 71 32 158l79 -21q-22 -85 -22 -121q0 -126 155 -126h429v27q0 105 -65.5 168t-227.5 109v85l283 273l57 -58z" />
    <glyph glyph-name="uni06BA" unicode="&#x6ba;" horiz-adv-x="657" 
d="M308 -167q-131 0 -200.5 66.5t-69.5 169.5q0 81 43 180l78 -28q-31 -79 -31 -141q0 -81 48 -121.5t135 -40.5q185 0 185 180v239h88v-262q0 -117 -75 -179.5t-201 -62.5z" />
    <glyph glyph-name="uni06BE" unicode="&#x6be;" horiz-adv-x="741" 
d="M191 435q92 -6 165 -18.5t137.5 -37t107.5 -59.5t67.5 -87.5t24.5 -120.5q0 -53 -13 -112h-200q-80 0 -133 19q-53 -19 -138 -19q-100 0 -170 29l24 78q64 -25 146 -25q23 0 35 1q-54 52 -54 132q0 41 19.5 79.5t54.5 61.5q-28 3 -87 5zM347 96q89 33 89 122
q0 46 -24.5 75t-60.5 29t-59.5 -29.5t-23.5 -73.5q0 -84 79 -123zM454 82h156q3 18 3 39q0 123 -123 183q23 -41 23 -87q0 -83 -59 -135z" />
    <glyph glyph-name="uni06C1" unicode="&#x6c1;" horiz-adv-x="519" 
d="M252 -5q-103 0 -159 56.5t-56 145.5q0 93 57.5 158.5t157.5 65.5t157 -65.5t57 -158.5q0 -91 -57.5 -146.5t-156.5 -55.5zM254 79q57 0 89.5 30t32.5 92q0 61 -31.5 98t-92.5 37q-62 0 -93 -37t-31 -97q0 -123 126 -123z" />
    <glyph glyph-name="uni06C2" unicode="&#x6c2;" horiz-adv-x="519" 
d="M252 -5q-103 0 -159 56.5t-56 145.5q0 93 57.5 158.5t157.5 65.5t157 -65.5t57 -158.5q0 -91 -57.5 -146.5t-156.5 -55.5zM252 336q-62 0 -93 -37t-31 -97q0 -123 126 -123q57 0 89.5 30t32.5 92q0 61 -31.5 98t-92.5 37zM140 545v55h45q-17 31 -17 62q0 44 30 70t79 26
q30 0 63 -7l-10 -54q-28 5 -42 5q-26 0 -44.5 -12.5t-18.5 -38.5q0 -23 17 -51h110v-55h-212z" />
    <glyph glyph-name="uni06C3" unicode="&#x6c3;" horiz-adv-x="519" 
d="M177 537q-22 0 -37 15.5t-15 38.5t14.5 37.5t37.5 14.5t38 -14.5t15 -37.5t-15 -38.5t-38 -15.5zM324 537q-23 0 -38.5 15.5t-15.5 38.5q0 22 15.5 37t38.5 15q22 0 36.5 -14.5t14.5 -37.5t-14.5 -38.5t-36.5 -15.5zM252 -5q-103 0 -159 56.5t-56 145.5q0 93 57.5 158.5
t157.5 65.5t157 -65.5t57 -158.5q0 -91 -57.5 -146.5t-156.5 -55.5zM254 79q57 0 89.5 30t32.5 92q0 61 -31.5 98t-92.5 37q-62 0 -93 -37t-31 -97q0 -123 126 -123z" />
    <glyph glyph-name="uni06CC" unicode="&#x6cc;" horiz-adv-x="763" 
d="M374 -168q-337 0 -337 220q0 57 24 132l81 -21q-15 -66 -15 -98q0 -79 61 -113.5t186 -34.5q115 0 178 25t63 65q0 22 -25.5 42.5t-61.5 38t-72.5 39t-62 55.5t-25.5 77q0 69 55.5 115.5t154.5 46.5q49 0 109 -15l-16 -84q-52 13 -95 13q-56 0 -86.5 -20.5t-30.5 -53.5
q0 -28 25.5 -50t61.5 -39l72.5 -35.5t62 -49.5t25.5 -71q0 -80 -89 -132t-243 -52z" />
    <glyph glyph-name="uni06D2" unicode="&#x6d2;" horiz-adv-x="743" 
d="M353 -10q-179 0 -251 32.5t-72 104.5q0 40 20.5 71.5t49.5 51t58 36.5t49.5 39t20.5 49v34h82v-39q0 -38 -20.5 -68.5t-49 -49.5t-57.5 -35t-49.5 -36t-20.5 -43q0 -36 56.5 -50t204.5 -14q162 0 362 33l4 -81q-214 -35 -387 -35z" />
    <glyph glyph-name="uni06D3" unicode="&#x6d3;" horiz-adv-x="743" 
d="M353 -10q-179 0 -251 32.5t-72 104.5q0 40 20.5 71.5t49.5 51t58 36.5t49.5 39t20.5 49v34h82v-39q0 -38 -20.5 -68.5t-49 -49.5t-57.5 -35t-49.5 -36t-20.5 -43q0 -36 56.5 -50t204.5 -14q162 0 362 33l4 -81q-214 -35 -387 -35zM370 532h-212v55h45q-17 31 -17 62
q0 44 30 70t79 26q30 0 63 -7l-10 -54q-28 5 -42 5q-26 0 -44.5 -12.5t-18.5 -38.5q0 -23 17 -51h110v-55z" />
    <glyph glyph-name="uni06D4" unicode="&#x6d4;" horiz-adv-x="353" 
d="M61 116q37 -34 107 -34h155v-82h-155q-89 0 -138 48z" />
    <glyph glyph-name="uni06D5" unicode="&#x6d5;" horiz-adv-x="519" 
d="M252 -5q-103 0 -159 56.5t-56 145.5q0 93 57.5 158.5t157.5 65.5t157 -65.5t57 -158.5q0 -91 -57.5 -146.5t-156.5 -55.5zM254 79q57 0 89.5 30t32.5 92q0 61 -31.5 98t-92.5 37q-62 0 -93 -37t-31 -97q0 -123 126 -123z" />
    <glyph glyph-name="uni06F0" unicode="&#x6f0;" horiz-adv-x="540" 
d="M270 212l-83 83l83 79l82 -80z" />
    <glyph glyph-name="uni06F1" unicode="&#x6f1;" horiz-adv-x="540" 
d="M226 0v653h88v-653h-88z" />
    <glyph glyph-name="uni06F2" unicode="&#x6f2;" horiz-adv-x="540" 
d="M82 0v653h88v-136q63 -27 120 -27q58 0 78.5 37t12.5 122l88 4q8 -126 -34 -185t-143 -59q-53 0 -122 26v-435h-88z" />
    <glyph glyph-name="uni06F3" unicode="&#x6f3;" horiz-adv-x="540" 
d="M36 653h88v-138q27 -11 60 -11q41 0 55 33t7 111l84 5q7 -84 -10 -139q26 -10 52 -10q42 0 56.5 33t7.5 111l86 5q18 -226 -132 -226q-56 0 -111 24q-30 -24 -78 -24q-41 0 -77 13v-440h-88v653z" />
    <glyph glyph-name="uni06F4" unicode="&#x6f4;" horiz-adv-x="540" 
d="M44 653h88v-161q60 -18 124 -24q-13 37 -13 68q0 125 135 125q46 0 93 -13l-20 -76q-31 11 -65 11q-67 0 -67 -66q0 -26 11 -53q90 0 173 16l10 -77q-98 -19 -190 -19q-104 0 -191 29v-413h-88v653z" />
    <glyph glyph-name="uni06F5" unicode="&#x6f5;" horiz-adv-x="540" 
d="M190 -6q-151 0 -151 259q0 97 21.5 176t56.5 126.5t75 73t81 25.5q91 0 159.5 -103.5t68.5 -297.5q0 -129 -39 -194t-102 -65q-49 0 -88 41q-41 -41 -82 -41zM206 77q17 0 39 14t25 15q1 0 24 -14.5t43 -14.5q33 0 53 46t20 133q0 136 -40.5 225.5t-96.5 89.5
t-99.5 -92.5t-43.5 -220.5q0 -92 22.5 -136.5t53.5 -44.5z" />
    <glyph glyph-name="uni06F6" unicode="&#x6f6;" horiz-adv-x="540" 
d="M420 439l69 -58l-343 -405l-70 58l216 255q-89 14 -141 61t-52 119q0 86 69.5 136t206.5 50q19 0 41 -1v-81q-15 1 -42 1q-93 0 -139 -28.5t-46 -77.5q0 -42 44.5 -69t124.5 -33z" />
    <glyph glyph-name="uni06F7" unicode="&#x6f7;" horiz-adv-x="540" 
d="M439 661l93 -26l-211 -635h-101l-213 636l93 25l170 -537z" />
    <glyph glyph-name="uni06F8" unicode="&#x6f8;" horiz-adv-x="540" 
d="M532 13l-93 -25l-169 538l-170 -538l-93 26l211 635h101z" />
    <glyph glyph-name="uni06F9" unicode="&#x6f9;" horiz-adv-x="540" 
d="M55 453q0 93 57.5 146.5t158.5 53.5h175v-653h-88v270q-38 -2 -53 -2q-123 0 -186.5 47.5t-63.5 137.5zM145 454q0 -51 42.5 -78.5t119.5 -27.5q24 0 51 3v220h-68q-70 0 -107.5 -30.5t-37.5 -86.5z" />
    <glyph glyph-name="Germandbls" unicode="&#x1e9e;" horiz-adv-x="685" 
d="M567 629q-31 0 -59 -4.5t-57 -16t-46 -35t-17 -56.5q0 -18 6.5 -33t21.5 -29.5t26 -23.5t35 -24.5t33 -22.5q71 -51 104 -96t33 -112q0 -86 -60.5 -140t-150.5 -54q-133 0 -208 90l78 66q48 -66 132 -66q48 0 76.5 26.5t29.5 73.5q1 45 -23 72t-86 69q-41 28 -60.5 43
t-44.5 40t-35 51t-10 58q0 86 95 135q-12 1 -23 1q-90 0 -137.5 -32t-48.5 -114v-495h-97v494q0 122 71 177t211 55q100 0 211 -10v-87z" />
    <glyph glyph-name="uni2002" unicode="&#x2002;" horiz-adv-x="572" 
 />
    <glyph glyph-name="uni2003" unicode="&#x2003;" horiz-adv-x="1143" 
 />
    <glyph glyph-name="uni2009" unicode="&#x2009;" horiz-adv-x="114" 
 />
    <glyph glyph-name="uni200A" unicode="&#x200a;" horiz-adv-x="23" 
 />
    <glyph glyph-name="uni200C" unicode="&#x200c;" 
d="M-78 1036l18 20l60 -61l59 60l18 -19l-58 -59l58 -59l-18 -19l-59 59l-60 -60l-18 20l59 59z" />
    <glyph glyph-name="uni200D" unicode="&#x200d;" 
d="M-113 991h227v-79h-26v53h-175v-53h-26v79z" />
    <glyph glyph-name="uni200E" unicode="&#x200e;" 
d="M30 898l-19 20l47 47h-144v26h144l-47 45l19 20l79 -79z" />
    <glyph glyph-name="uni200F" unicode="&#x200f;" 
d="M-30 899l-79 78l79 79l19 -18l-47 -47h145v-26h-144l46 -47z" />
    <glyph glyph-name="uni2011" unicode="&#x2011;" horiz-adv-x="316" 
d="M281 284v-84h-246v84h246z" />
    <glyph glyph-name="endash" unicode="&#x2013;" horiz-adv-x="500" 
d="M500 282v-78h-500v78h500z" />
    <glyph glyph-name="emdash" unicode="&#x2014;" horiz-adv-x="1000" 
d="M1000 282v-78h-1000v78h1000z" />
    <glyph glyph-name="quoteleft" unicode="&#x2018;" horiz-adv-x="278" 
d="M222 708l-69 -246h-97l84 246h82z" />
    <glyph glyph-name="quoteright" unicode="&#x2019;" horiz-adv-x="278" 
d="M222 708l-84 -246h-82l69 246h97z" />
    <glyph glyph-name="quotesinglbase" unicode="&#x201a;" horiz-adv-x="278" 
d="M222 114l-84 -246h-82l69 246h97z" />
    <glyph glyph-name="quotedblleft" unicode="&#x201c;" horiz-adv-x="519" 
d="M362 462h-97l84 246h82zM88 462l84 246h82l-69 -246h-97z" />
    <glyph glyph-name="quotedblright" unicode="&#x201d;" horiz-adv-x="519" 
d="M347 462h-82l69 246h97zM88 462l69 246h97l-84 -246h-82z" />
    <glyph glyph-name="quotedblbase" unicode="&#x201e;" horiz-adv-x="519" 
d="M347 -132h-82l69 246h97zM88 -132l69 246h97l-84 -246h-82z" />
    <glyph glyph-name="dagger" unicode="&#x2020;" horiz-adv-x="556" 
d="M35 427v78h198v203h90v-203h198v-78h-198v-553h-90v553h-198z" />
    <glyph glyph-name="daggerdbl" unicode="&#x2021;" horiz-adv-x="556" 
d="M41 450v78h192v180h90v-180h192v-78h-192v-306h192v-78h-192v-192h-90v192h-192v78h192v306h-192z" />
    <glyph glyph-name="bullet" unicode="&#x2022;" horiz-adv-x="500" 
d="M250 531q73 0 125 -51.5t52 -125.5t-52 -125.5t-125 -51.5t-125 51.5t-52 125.5t51.5 125.5t125.5 51.5z" />
    <glyph glyph-name="ellipsis" unicode="&#x2026;" horiz-adv-x="1000" 
d="M167 126q27 0 46.5 -19.5t19.5 -46.5t-19.5 -46.5t-46.5 -19.5q-28 0 -47 19t-19 47q0 27 19.5 46.5t46.5 19.5zM500 126q27 0 46.5 -19.5t19.5 -46.5t-19.5 -46.5t-46.5 -19.5q-28 0 -47 19t-19 47q0 27 19.5 46.5t46.5 19.5zM833 126q27 0 46.5 -19.5t19.5 -46.5
t-19.5 -46.5t-46.5 -19.5q-28 0 -47 19t-19 47q0 27 19.5 46.5t46.5 19.5z" />
    <glyph glyph-name="uni202A" unicode="&#x202a;" 
d="M58 965h-57v26h57l-47 45l19 20l79 -79l-79 -79l-19 20zM-32 965h-65v26h65v-26z" />
    <glyph glyph-name="uni202B" unicode="&#x202b;" 
d="M-109 977l79 79l19 -18l-47 -47h57v-26h-56l46 -47l-19 -19zM32 965v26h65v-26h-65z" />
    <glyph glyph-name="uni202C" unicode="&#x202c;" 
d="M-14 897v116l-45 -46l-19 19l78 78l78 -78l-19 -19l-46 46v-116h-27z" />
    <glyph glyph-name="uni202D" unicode="&#x202d;" 
d="M-24 898l-18 20l47 47h-123v26h122l-46 45l18 20l79 -79zM50 898l-18 20l61 59l-61 59l18 20l79 -79z" />
    <glyph glyph-name="uni202E" unicode="&#x202e;" 
d="M-50 926l-79 79l79 79l18 -19l-60 -60l60 -60zM24 926l-78 79l78 79l19 -19l-47 -48h123v-25h-123l47 -47z" />
    <glyph glyph-name="perthousand" unicode="&#x2030;" horiz-adv-x="1056" 
d="M538 740l60 -30l-443 -741l-62 31zM182 720q67 0 115 -47t48 -115q0 -67 -47.5 -115t-115.5 -48q-67 0 -114.5 47.5t-47.5 115.5t47.5 115t114.5 47zM92 558q0 -38 26.5 -64.5t63.5 -26.5q38 0 64.5 26.5t26.5 64.5q0 37 -26 63.5t-65 26.5q-37 0 -63.5 -26.5
t-26.5 -63.5zM507 307q67 0 115 -47t48 -115t-47.5 -115.5t-115.5 -47.5q-67 0 -114.5 47.5t-47.5 115.5t47.5 115t114.5 47zM873 307q67 0 115 -47t48 -115q0 -67 -47.5 -115t-115.5 -48q-67 0 -114.5 47.5t-47.5 115.5t47.5 115t114.5 47zM417 145q0 -38 26.5 -64.5
t63.5 -26.5t64 27t27 64q0 38 -27 64t-65 26q-36 0 -62.5 -26.5t-26.5 -63.5zM783 145q0 -37 26.5 -64t63.5 -27t64 27t27 64q0 38 -27 64t-64 26t-63.5 -26.5t-26.5 -63.5z" />
    <glyph glyph-name="guilsinglleft" unicode="&#x2039;" horiz-adv-x="315" 
d="M261 418l-117 -175l118 -175l-62 -41l-146 216l145 216z" />
    <glyph glyph-name="guilsinglright" unicode="&#x203a;" horiz-adv-x="315" 
d="M115 459l146 -216l-145 -216l-62 41l117 175l-118 175z" />
    <glyph glyph-name="fraction" unicode="&#x2044;" horiz-adv-x="167" 
d="M333 708l-439 -740l-60 32l439 740z" />
    <glyph glyph-name="Euro" unicode="&#x20ac;" horiz-adv-x="556" 
d="M23 230l19 65h46q-1 4 -1 13v61q0 15 3 47h-66l21 67h57q26 113 98.5 175t176.5 62q86 0 148 -36l-21 -74q-50 33 -130 33q-140 0 -183 -160h276l-17 -67h-271q-4 -25 -4 -73q0 -44 1 -48h242l-17 -65h-219q13 -85 53 -126.5t114 -41.5q76 0 125 59l49 -49
q-30 -39 -78 -61.5t-100 -22.5q-212 0 -250 242h-72z" />
    <glyph glyph-name="uni20B9" unicode="&#x20b9;" horiz-adv-x="556" 
d="M323 481h-244q0 11 0.5 33t0.5 33h244q-18 95 -164 95h-81v66h453v-66h-162q43 -35 49 -95h113v-66h-113q-10 -75 -66 -118t-152 -44l229 -319h-116l-115.5 162l-118.5 167v56h60q162 0 183 96z" />
    <glyph glyph-name="uni20BA" unicode="&#x20ba;" horiz-adv-x="556" 
d="M23 423v71l91 38v176h95v-135l191 82v-71l-191 -82v-91l191 81v-71l-191 -81v-263q6 -1 24 -1q104 0 159 78t55 215h95q0 -182 -80.5 -279.5t-235.5 -97.5q-68 0 -112 8v299l-91 -39v71l91 39v91z" />
    <glyph glyph-name="uni2113" unicode="&#x2113;" horiz-adv-x="500" 
d="M87 154l-33 48l92 85v257q0 76 40.5 126.5t104.5 50.5q55 0 88.5 -37t33.5 -98q0 -143 -177 -314v-141q0 -36 18.5 -57t51.5 -21q41 0 88 38h2l32 -47q-62 -58 -143 -58q-65 0 -101.5 36t-36.5 96v93l-58 -57h-2zM236 559v-209q103 118 103 230q0 35 -14 57.5t-35 22.5
q-24 0 -39 -28.5t-15 -72.5z" />
    <glyph glyph-name="trademark" unicode="&#x2122;" horiz-adv-x="1000" 
d="M439 296v412h119l111 -316h3l111 316h119v-412h-78v344h-2l-120 -344h-63l-120 344h-2v-344h-78zM158 642h-124v66h326v-66h-124v-346h-78v346z" />
    <glyph glyph-name="Omega" unicode="&#x2126;" horiz-adv-x="752" 
d="M46 77h190v62q-89 25 -139.5 99.5t-50.5 171.5q0 133 94.5 222t229.5 89q133 0 228 -86t95 -223q0 -99 -50 -173t-140 -100v-62h190v-77h-264v185q80 15 125.5 75t45.5 146q0 98 -65 165t-164 67q-97 0 -164 -66t-67 -167q0 -87 44 -145t125 -75v-185h-263v77z" />
    <glyph glyph-name="estimated" unicode="&#x212e;" horiz-adv-x="976" 
d="M489 -19q-190 0 -302 105t-112 257q0 73 29 141.5t80.5 121.5t130.5 85t172 32q92 0 164.5 -23t118 -60.5t76 -88.5t42.5 -102.5t12 -107.5h-667q-6 0 -6 -6v-190q0 -21 8 -30q85 -108 251 -108q82 0 145.5 30.5t123.5 87.5h72q-63 -76 -138.5 -110t-199.5 -34zM227 368
q0 -6 6 -6h510q6 0 6 6v194q0 14 -12 28q-47 58 -116.5 82.5t-137.5 24.5q-144 0 -246 -105q-10 -12 -10 -29v-195z" />
    <glyph glyph-name="partialdiff" unicode="&#x2202;" horiz-adv-x="523" 
d="M224 721q69 0 120.5 -30.5t80 -83t42.5 -115t14 -133.5q0 -178 -61 -274.5t-177 -96.5q-90 0 -149 64t-59 161q0 96 57 156t146 60q88 0 156 -70l1 40q0 104 -41.5 178t-125.5 74q-58 0 -116 -47l-47 55q78 62 159 62zM118 209q0 -66 35 -110.5t92 -44.5q62 0 101.5 59
t44.5 158q-50 90 -143 90q-58 0 -94 -42t-36 -110z" />
    <glyph glyph-name="Delta" unicode="&#x2206;" horiz-adv-x="678" 
d="M382 712l285 -712h-656l276 712h95zM134 83h406l-207 530z" />
    <glyph glyph-name="product" unicode="&#x220f;" horiz-adv-x="726" 
d="M66 -214v1000h594v-1000h-90v917h-413v-917h-91z" />
    <glyph glyph-name="summation" unicode="&#x2211;" horiz-adv-x="626" 
d="M589 786v-83h-432l292 -412l-311 -423h463v-82h-576v72l316 433l-303 422v73h551z" />
    <glyph glyph-name="minus" unicode="&#x2212;" horiz-adv-x="666" 
d="M600 342v-78h-534v78h534z" />
    <glyph glyph-name="uni2215" unicode="&#x2215;" horiz-adv-x="167" 
d="M333 708l-439 -740l-60 32l439 740z" />
    <glyph glyph-name="uni2219" unicode="&#x2219;" horiz-adv-x="278" 
d="M139 369q26 0 46 -19t20 -47q0 -27 -19.5 -46.5t-46.5 -19.5t-46.5 19.5t-19.5 46.5t19.5 46.5t46.5 19.5z" />
    <glyph glyph-name="radical" unicode="&#x221a;" horiz-adv-x="515" 
d="M526 786l-211 -1000h-86l-158 328l-48 -23l-33 70l124 58l144 -302l178 869h90z" />
    <glyph glyph-name="infinity" unicode="&#x221e;" horiz-adv-x="778" 
d="M594 434q70 0 115 -48t45 -123q0 -77 -45 -125.5t-116 -48.5q-48 0 -90.5 24t-94.5 83q-60 -64 -98 -85t-85 -21q-73 0 -118.5 48.5t-45.5 123.5t45 123t115 48q48 0 90.5 -25t96.5 -89q50 61 94 88t92 27zM456 259q54 -51 85 -67.5t61 -16.5q35 0 57 23t22 62t-22.5 64
t-59.5 25q-56 0 -143 -90zM136 260q0 -39 22 -62t60 -23q59 0 143 84q-89 89 -148 89q-34 0 -55.5 -25.5t-21.5 -62.5z" />
    <glyph glyph-name="integral" unicode="&#x222b;" horiz-adv-x="574" 
d="M354 786q34 0 61 -18t27 -45q0 -19 -12.5 -30.5t-31.5 -11.5t-29 10.5t-20 34.5q-5 10 -14 10q-26 0 -26 -87q0 -17 1 -48t1 -33v-577q0 -204 -131 -204q-37 0 -60.5 16.5t-23.5 43.5q0 17 12.5 29t29.5 12q16 0 26 -8.5t14 -18.5t9 -18.5t12 -8.5q25 0 25 90v22v20
t-0.5 16.5t-0.5 11.5v5v508l-1 66q0 34 2 59t9.5 56t21 51t39 33.5t60.5 13.5z" />
    <glyph glyph-name="approxequal" unicode="&#x2248;" horiz-adv-x="666" 
d="M599 440q-8 -75 -43.5 -115t-93.5 -40q-41 0 -133 33q-106 38 -132 38q-27 0 -46 -20.5t-25 -53.5h-59q8 72 44 114t92 42q43 0 133 -34q94 -36 135 -36q58 0 70 72h58zM599 240q-8 -74 -43.5 -114.5t-93.5 -40.5q-41 0 -133 33q-103 38 -132 38q-27 0 -46 -20t-25 -54
h-59q8 72 44 114t92 42q43 0 132 -33q96 -37 136 -37q58 0 70 72h58z" />
    <glyph glyph-name="notequal" unicode="&#x2260;" horiz-adv-x="666" 
d="M40 108v84h177l63 123h-240v84h284l77 149l74 -37l-59 -112h136v-84h-179l-64 -123h243v-84h-286l-77 -149l-73 38l58 111h-134z" />
    <glyph glyph-name="lessequal" unicode="&#x2264;" horiz-adv-x="666" 
d="M77 309v86l512 183v-89l-397 -137l397 -134v-88zM77 8v84h512v-84h-512z" />
    <glyph glyph-name="greaterequal" unicode="&#x2265;" horiz-adv-x="666" 
d="M474 352l-397 137v89l512 -183v-86l-512 -179v88zM77 8v84h512v-84h-512z" />
    <glyph glyph-name="lozenge" unicode="&#x25ca;" horiz-adv-x="593" 
d="M337 747l174 -391l-174 -391h-82l-173 391l173 391h82zM169 356l127 -305l128 305l-128 305z" />
    <glyph glyph-name="uni25CC" unicode="&#x25cc;" horiz-adv-x="460" 
d="M230 342q-27 0 -27 28q0 27 27 27t27 -27q0 -28 -27 -28zM143 320q-26 0 -26 29q0 26 26 26q29 0 29 -26q0 -29 -29 -29zM316 320q-29 0 -29 29q0 26 29 26q26 0 26 -26q0 -29 -26 -29zM80 257q-26 0 -26 28q0 27 26 27q28 0 28 -27q0 -28 -28 -28zM379 257q-27 0 -27 28
q0 27 27 27t27 -27q0 -28 -27 -28zM58 172q-26 0 -26 27t26 27q28 0 28 -27t-28 -27zM401 172q-27 0 -27 27t27 27t27 -27t-27 -27zM80 86q-26 0 -26 27t26 27q28 0 28 -27t-28 -27zM379 86q-27 0 -27 27t27 27t27 -27t-27 -27zM143 23q-26 0 -26 27t26 27q29 0 29 -27
t-29 -27zM316 23q-29 0 -29 27t29 27q26 0 26 -27t-26 -27zM230 1q-27 0 -27 27q0 28 27 28t27 -28q0 -27 -27 -27z" />
    <glyph glyph-name="uni274A" unicode="&#x274a;" horiz-adv-x="631" 
d="M233 3l-70 34l96 179l-192 -47l-17 72l196 35l-163 122l50 62l151 -135l-7 203h79l-8 -203l154 132l47 -61l-163 -121l195 -37l-17 -73l-191 52l92 -181l-69 -34l-80 188z" />
    <glyph glyph-name="fi" unicode="&#xfb01;" horiz-adv-x="556" 
d="M1 396v78h102v110q0 95 39 139.5t123 44.5q38 0 67 -7l-10 -80q-21 9 -51 9q-41 0 -59 -23t-18 -79v-114h107v-78h-108v-396h-90v396h-102zM390 474h90v-474h-90v474zM435 578q-28 0 -47 19t-19 47q0 27 19.5 46.5t46.5 19.5t46.5 -19.5t19.5 -46.5t-19.5 -46.5
t-46.5 -19.5z" />
    <glyph glyph-name="fl" unicode="&#xfb02;" horiz-adv-x="556" 
d="M103 396h-102v78h102v110q0 95 39 139.5t123 44.5q38 0 67 -7l-10 -80q-21 9 -51 9q-41 0 -59 -23t-18 -79v-114h107v-78h-108v-396h-90v396zM391 0v756h90v-756h-90z" />
    <glyph glyph-name="uniFBB2" unicode="&#xfbb2;" 
d="M1 546q-24 0 -38.5 15t-14.5 39q0 23 14.5 37.5t38.5 14.5q23 0 37 -14.5t14 -37.5q0 -24 -14 -39t-37 -15z" />
    <glyph glyph-name="uniFBB3" unicode="&#xfbb3;" 
d="M1 -192q-24 0 -38.5 15t-14.5 38t14.5 38t38.5 15q23 0 37 -15t14 -38t-14 -38t-37 -15z" />
    <glyph glyph-name="uniFBB4" unicode="&#xfbb4;" 
d="M-73 546q-22 0 -37 15.5t-15 38.5q0 22 14.5 37t37.5 15t38 -14.5t15 -37.5t-15 -38.5t-38 -15.5zM74 546q-23 0 -38.5 15.5t-15.5 38.5q0 22 15.5 37t38.5 15q22 0 36.5 -14.5t14.5 -37.5t-14.5 -38.5t-36.5 -15.5z" />
    <glyph glyph-name="uniFBB5" unicode="&#xfbb5;" 
d="M-73 -192q-22 0 -37 15t-15 38t14.5 38t37.5 15t38 -15t15 -38t-15 -38t-38 -15zM74 -192q-23 0 -38.5 15t-15.5 38t15.5 38t38.5 15q22 0 36.5 -15t14.5 -38t-14.5 -38t-36.5 -15z" />
    <glyph glyph-name="uniFBB6" unicode="&#xfbb6;" 
d="M3 663q-22 0 -37 15.5t-15 38.5q0 22 15 37t37 15q23 0 38 -15t15 -37q0 -23 -15 -38.5t-38 -15.5zM-73 544q-22 0 -37 15.5t-15 38.5t15 38t37 15q23 0 38 -15t15 -38t-15 -38.5t-38 -15.5zM74 544q-23 0 -38.5 15.5t-15.5 38.5t15.5 38t38.5 15q22 0 36.5 -15t14.5 -38
t-14.5 -38.5t-36.5 -15.5z" />
    <glyph glyph-name="uniFBB9" unicode="&#xfbb9;" 
d="M-73 -193q-22 0 -37 15.5t-15 38.5t14.5 37.5t37.5 14.5t38 -14.5t15 -37.5t-15 -38.5t-38 -15.5zM74 -193q-23 0 -38.5 15.5t-15.5 38.5q0 22 15.5 37t38.5 15q22 0 36.5 -14.5t14.5 -37.5t-14.5 -38.5t-36.5 -15.5zM2 -309q-23 0 -38 15t-15 37q0 23 15 38.5t38 15.5
t38 -15.5t15 -38.5t-15 -37.5t-38 -14.5z" />
    <glyph glyph-name="uniFD3E" unicode="&#xfd3e;" horiz-adv-x="512" 
d="M89 295q-59 29 -59 49q0 19 59 48v55q0 20 14 20q2 0 14 -9l72 -64q10 -7 14 -7q12 0 12 9q0 10 -8 17l-57 79q-5 8 -2.5 15.5t10.5 7.5h3l68 -11q14 53 64.5 121.5t100.5 113.5t70 45q18 0 2 -18q-129 -154 -148 -241q-2 -7 -4 -23l48 6q1 0 3.5 0.5t3.5 0.5
q10 0 12 -5.5t-5 -13.5l-63 -74q-11 -13 -11 -17q0 -7 10 -7h6q1 0 3.5 1t4.5 2l74 54q11 8 18 8t7 -10v-55q60 -22 60 -48q0 -27 -60 -49v-56q0 -10 -7 -10t-18 8l-74 55q-2 1 -4.5 2t-3.5 1h-6q-10 0 -10 -8q0 -1 11 -18l63 -72q7 -7 5 -13t-12 -6q-1 0 -3.5 0.5t-3.5 0.5
l-44 6h-4q17 -129 152 -264q8 -7 7 -12.5t-9 -5.5q-20 0 -70 45t-100.5 113.5t-64.5 121.5l-68 -11h-3q-8 0 -11 7.5t3 15.5l57 79q8 7 8 17q0 8 -12 8q-7 0 -14 -7l-72 -64q-8 -8 -14 -8q-14 0 -14 19v56zM243 476l-61 15l47 -68v27h22l20 32v-32h18v-26l63 64l-67 -13
q5 38 33 105v42q-25 -25 -45.5 -67t-29.5 -79zM229 263l-47 -67l61 14q24 -93 75 -146v43q-28 65 -33 104l67 -13l-63 65v-28h-18v-31l-20 31h-22v28zM212 344q0 -20 17 -37q14 -12 30 -12q21 0 34.5 14t13.5 35q0 20 -14 34t-34 14q-19 0 -33 -14.5t-14 -33.5zM334 314
l70 -53v52q57 16 57 31q0 9 -20 17.5t-37 12.5v52l-70 -53h40v-18q18 -1 30 -12q-13 -10 -30 -11v-18h-40zM89 365q-34 -12 -34 -21q0 -12 57 -31v-53l72 56h-44v17q-20 5 -28 11q8 5 28 10v16h44l-72 57v-53q-9 -3 -23 -9z" />
    <glyph glyph-name="uniFD3F" unicode="&#xfd3f;" horiz-adv-x="512" 
d="M30 344q0 26 60 48v55q0 10 7 10t18 -8l74 -54q2 -1 4.5 -2t3.5 -1h6q10 0 10 7q0 4 -11 17l-63 74q-7 8 -5 13.5t12 5.5q1 0 3.5 -0.5t3.5 -0.5l48 -6q-2 16 -4 23q-19 87 -148 241q-16 18 2 18q20 0 70 -45t100.5 -113.5t64.5 -121.5l68 11h3q8 0 10.5 -7.5t-2.5 -15.5
l-57 -79q-8 -7 -8 -17q0 -9 12 -9q4 0 14 7l72 64q12 9 14 9q14 0 14 -20v-55q59 -29 59 -48q0 -20 -59 -49v-56q0 -19 -14 -19q-6 0 -14 8l-72 64q-7 7 -14 7q-12 0 -12 -8q0 -10 8 -17l57 -79q6 -8 3 -15.5t-11 -7.5h-3l-68 11q-14 -53 -64.5 -121.5t-100.5 -113.5
t-70 -45q-5 0 -7.5 2.5t-1 7t6.5 8.5q135 135 152 264h-4l-44 -6q-1 0 -3.5 -0.5t-3.5 -0.5q-10 0 -12 6t5 13l63 72q11 17 11 18q0 8 -10 8h-6q-1 0 -3.5 -1t-4.5 -2l-74 -55q-11 -8 -18 -8t-7 10v56q-60 22 -60 49zM163 488l63 -64v26h18v32l20 -32h22v-27l47 68l-61 -15
q-9 37 -29.5 79t-45.5 67v-42q28 -67 33 -105zM230 211q-5 -39 -33 -104v-43q51 53 75 146l61 -14l-47 67v-28h-22l-20 -31v31h-18v28l-63 -65zM208 344q0 -21 13.5 -35t34.5 -14q16 0 30 12q17 17 17 37q0 19 -14 33.5t-33 14.5q-20 0 -34 -14t-14 -34zM111 313v-52l70 53
h-40v18q-19 2 -30 13q15 9 30 10v18h40l-70 53v-52q-17 -4 -37 -12.5t-20 -17.5q0 -15 57 -31zM331 370h44v-16q20 -5 28 -10q-8 -6 -28 -11v-17h-44l72 -56v53q57 19 57 31q0 9 -34 21q-14 6 -23 9v53z" />
    <glyph glyph-name="uniFEFF" unicode="&#xfeff;" 
 />
    <glyph glyph-name="uni066E.fina" horiz-adv-x="1005" 
d="M1005 82q20 0 20 -42q0 -40 -20 -40q-114 0 -156 67q-49 -67 -159 -67h-421q-107 0 -169 52t-62 140q0 71 32 158l79 -21q-22 -85 -22 -121q0 -126 155 -126h392q62 0 90.5 29t28.5 97v202h88v-217q0 -111 124 -111z" />
    <glyph glyph-name="uniFBE9.wide" horiz-adv-x="332" 
d="M332 82q20 0 20 -42q0 -40 -20 -40q-114 0 -156 67q-47 -67 -167 -67h-9v82h10q61 0 85.5 29t24.5 100v199h88v-217q0 -111 124 -111z" />
    <glyph glyph-name="uniFBE8.wide" horiz-adv-x="291" 
d="M0 0v82h10q61 0 85.5 29t24.5 100v199h88v-213q0 -103 -49.5 -150t-149.5 -47h-9z" />
    <glyph glyph-name="uni06A1.fina" horiz-adv-x="1081" 
d="M39 192q0 71 32 158l79 -21q-22 -85 -22 -121q0 -126 155 -126h331q29 0 42 2q-75 59 -75 151q0 80 58 133t154 53q95 0 151 -52.5t56 -132.5q0 -94 -75 -153q6 0 19.5 -0.5t21.5 -0.5h115q20 0 20 -42q0 -40 -20 -40h-112q-95 0 -180 18q-86 -18 -177 -18h-342
q-107 0 -169 52t-62 140zM671 235q0 -49 36 -86.5t83 -48.5q44 8 82.5 46.5t38.5 88.5q0 46 -33 73.5t-87 27.5t-87 -27.5t-33 -73.5z" />
    <glyph glyph-name="uni06A1.medi" horiz-adv-x="581" 
d="M0 82h114q29 0 42 2q-75 59 -75 151q0 80 58 133t154 53q95 0 151 -52.5t56 -132.5q0 -94 -75 -153q6 0 19.5 -0.5t21.5 -0.5h115q20 0 20 -42q0 -40 -20 -40h-112q-95 0 -180 18q-86 -18 -177 -18h-112v82zM291 336q-54 0 -87 -27.5t-33 -73.5q0 -49 36 -86.5t83 -48.5
q44 8 82.5 46.5t38.5 88.5q0 46 -33 73.5t-87 27.5z" />
    <glyph glyph-name="uni06A1.init" horiz-adv-x="561" 
d="M461 0h-461v82h118q-37 50 -37 124q0 93 60.5 154t161.5 61q102 0 151 -63.5t49 -155.5q0 -97 -42 -202zM171 205q0 -66 44 -123h182q17 65 17 113q0 65 -29 103t-89 38t-92.5 -36.5t-32.5 -94.5z" />
    <glyph glyph-name="uni066F.fina" horiz-adv-x="831" 
d="M37 68q0 64 24 133l81 -21q-15 -50 -15 -99q0 -84 60.5 -123.5t204.5 -39.5q117 0 175 19.5t69 62.5h-72q-238 0 -238 204q0 88 55.5 152.5t153.5 64.5q89 0 140.5 -54t51.5 -149v-136h104q20 0 20 -42q0 -40 -20 -40h-110q-18 -91 -97 -129t-233 -38q-354 0 -354 235z
M416 206q0 -64 38.5 -94t116.5 -30h68v117q0 137 -111 137q-51 0 -81.5 -34t-30.5 -96z" />
    <glyph glyph-name="uni06C2.fina" horiz-adv-x="540" 
d="M93 48q-60 58 -60 149q0 89 62.5 149.5t177.5 60.5h154v-228q0 -58 23 -77.5t90 -19.5q20 0 20 -42q0 -40 -20 -40h-50q-77 0 -116 40t-39 112v172h-62q-67 0 -109 -32.5t-42 -96.5q0 -51 37 -94zM161 531v55h45q-17 31 -17 62q0 44 30 70t79 26q30 0 63 -7l-10 -54
q-28 5 -42 5q-26 0 -44.5 -12.5t-18.5 -38.5q0 -23 17 -51h110v-55h-212z" />
    <glyph glyph-name="uni06C3.fina" horiz-adv-x="557" 
d="M205 526q-22 0 -37 15.5t-15 38.5q0 22 14.5 37t37.5 15t38 -14.5t15 -37.5t-15 -38.5t-38 -15.5zM352 526q-23 0 -38.5 15.5t-15.5 38.5q0 22 15.5 37t38.5 15q22 0 36.5 -14.5t14.5 -37.5t-14.5 -38.5t-36.5 -15.5zM557 82q20 0 20 -42q0 -40 -20 -40q-136 0 -170 50
q-65 -31 -136 -31q-96 0 -155 48t-59 134q0 93 64.5 151t178.5 58h174v-230q0 -58 22 -78t81 -20zM361 126v202h-97q-61 0 -99 -30.5t-38 -87.5q0 -107 133 -107q63 0 101 23z" />
    <glyph glyph-name="uniFBAF.wide" horiz-adv-x="777" 
d="M352 -260q-168 0 -246 41t-78 132q0 83 61 126t173 43h515q20 0 20 -42q0 -40 -20 -40h-524q-141 0 -141 -84q0 -50 57.5 -71t202.5 -21q171 0 362 33l5 -82q-224 -35 -387 -35z" />
    <glyph glyph-name="uniFBB1.wide" horiz-adv-x="777" 
d="M28 -87q0 83 61 126t173 43h515q20 0 20 -42q0 -40 -20 -40h-524q-141 0 -141 -84q0 -50 57.5 -71t202.5 -21q171 0 362 33l5 -82q-224 -35 -387 -35q-168 0 -246 41t-78 132zM325 193h-164v43h35q-14 23 -14 47q0 35 23.5 55.5t61.5 20.5q21 0 49 -6l-8 -42q-18 4 -32 4
q-49 0 -49 -39q0 -17 13 -40h85v-43z" />
    <glyph glyph-name="uni06D5.fina" horiz-adv-x="557" 
d="M557 82q20 0 20 -42q0 -40 -20 -40q-136 0 -170 50q-65 -31 -136 -31q-96 0 -155 48t-59 134q0 93 64.5 151t178.5 58h174v-230q0 -58 22 -78t81 -20zM361 126v202h-97q-61 0 -99 -30.5t-38 -87.5q0 -107 133 -107q63 0 101 23z" />
    <glyph glyph-name="uni06440671" horiz-adv-x="663" 
d="M29 0v82h203v468h88v-468h62q62 0 91 29.5t29 97.5v547h88v-571q0 -87 -50 -136t-144 -49h-367zM135 624v43h48v101h42v-43q35 47 87 47q37 0 59 -24t22 -64q0 -25 -11 -60h-247zM221 667h127q3 11 3 19q0 20 -12.5 31.5t-32.5 11.5q-51 0 -85 -62z" />
    <glyph glyph-name="uni06440671.fina" horiz-adv-x="714" 
d="M29 0v82h203v468h88v-468h62q62 0 91 29.5t29 97.5v547h88v-563q0 -111 124 -111q20 0 20 -42q0 -40 -20 -40q-114 0 -157 68q-51 -68 -161 -68h-367zM135 624v43h48v101h42v-43q35 47 87 47q37 0 59 -24t22 -64q0 -25 -11 -60h-247zM306 729q-51 0 -85 -62h127
q3 11 3 19q0 20 -12.5 31.5t-32.5 11.5z" />
    <glyph glyph-name="uni0660.lf" horiz-adv-x="257" 
d="M129 212l-83 83l83 79l82 -80z" />
    <glyph glyph-name="uni0661.lf" horiz-adv-x="300" 
d="M106 0v653h88v-653h-88z" />
    <glyph glyph-name="uni0662.lf" horiz-adv-x="536" 
d="M106 0v653h88v-136q63 -27 120 -27q58 0 78.5 37t12.5 122l88 4q8 -126 -34 -185t-143 -59q-53 0 -122 26v-435h-88z" />
    <glyph glyph-name="uni0663.lf" horiz-adv-x="636" 
d="M106 653h88v-138q27 -11 60 -11q41 0 55 33t7 111l84 5q7 -84 -10 -139q26 -10 52 -10q42 0 56.5 33t7.5 111l86 5q18 -226 -132 -226q-56 0 -111 24q-30 -24 -78 -24q-41 0 -77 13v-440h-88v653z" />
    <glyph glyph-name="uni0664.lf" horiz-adv-x="507" 
d="M446 81l4 -81q-70 -8 -127 -8q-253 0 -253 157q0 55 34 103t96 82q-43 20 -71 56t-28 81q0 85 71 134.5t212 49.5q22 0 34 -1v-81q-14 1 -40 1q-187 0 -187 -105q0 -40 38.5 -65t107.5 -25q26 0 64 5l-1 -83q-124 -10 -181.5 -50t-57.5 -87t42.5 -67.5t133.5 -20.5
q44 0 109 5z" />
    <glyph glyph-name="uni0665.lf" horiz-adv-x="602" 
d="M301 -8q-106 0 -165.5 63.5t-59.5 213.5q0 191 64.5 288t160.5 97t160.5 -97t64.5 -288q0 -150 -59.5 -213.5t-165.5 -63.5zM301 76q135 0 135 197q0 133 -39 215t-96 82t-96 -82t-39 -215q0 -197 135 -197z" />
    <glyph glyph-name="uni0666.lf" horiz-adv-x="526" 
d="M332 0v571h-301v82h389v-653h-88z" />
    <glyph glyph-name="uni0667.lf" horiz-adv-x="607" 
d="M473 661l93 -26l-211 -635h-101l-213 636l93 25l170 -537z" />
    <glyph glyph-name="uni0668.lf" horiz-adv-x="607" 
d="M566 13l-93 -25l-169 538l-170 -538l-93 26l211 635h101z" />
    <glyph glyph-name="uni0669.lf" horiz-adv-x="558" 
d="M61 453q0 93 57.5 146.5t158.5 53.5h175v-653h-88v270q-38 -2 -53 -2q-123 0 -186.5 47.5t-63.5 137.5zM151 454q0 -51 42.5 -78.5t119.5 -27.5q24 0 51 3v220h-68q-70 0 -107.5 -30.5t-37.5 -86.5z" />
    <glyph glyph-name="uni06F0.lf" horiz-adv-x="257" 
d="M129 212l-83 83l83 79l82 -80z" />
    <glyph glyph-name="uni06F1.lf" horiz-adv-x="300" 
d="M106 0v653h88v-653h-88z" />
    <glyph glyph-name="uni06F2.lf" horiz-adv-x="536" 
d="M106 0v653h88v-136q63 -27 120 -27q58 0 78.5 37t12.5 122l88 4q8 -126 -34 -185t-143 -59q-53 0 -122 26v-435h-88z" />
    <glyph glyph-name="uni06F3.lf" horiz-adv-x="636" 
d="M106 653h88v-138q27 -11 60 -11q41 0 55 33t7 111l84 5q7 -84 -10 -139q26 -10 52 -10q42 0 56.5 33t7.5 111l86 5q18 -226 -132 -226q-56 0 -111 24q-30 -24 -78 -24q-41 0 -77 13v-440h-88v653z" />
    <glyph glyph-name="uni06F4.lf" horiz-adv-x="617" 
d="M106 653h88v-161q60 -18 124 -24q-13 37 -13 68q0 125 135 125q46 0 93 -13l-20 -76q-31 11 -65 11q-67 0 -67 -66q0 -26 11 -53q90 0 173 16l10 -77q-98 -19 -190 -19q-104 0 -191 29v-413h-88v653z" />
    <glyph glyph-name="uni06F5.lf" horiz-adv-x="614" 
d="M227 -6q-151 0 -151 259q0 97 21.5 176t56.5 126.5t75 73t81 25.5q91 0 159.5 -103.5t68.5 -297.5q0 -129 -39 -194t-102 -65q-49 0 -88 41q-41 -41 -82 -41zM243 77q17 0 39 14t25 15q1 0 24 -14.5t43 -14.5q33 0 53 46t20 133q0 136 -40.5 225.5t-96.5 89.5
t-99.5 -92.5t-43.5 -220.5q0 -92 22.5 -136.5t53.5 -44.5z" />
    <glyph glyph-name="uni06F6.lf" horiz-adv-x="501" 
d="M395 439l69 -58l-343 -405l-70 58l216 255q-89 14 -141 61t-52 119q0 86 69.5 136t206.5 50q19 0 41 -1v-81q-15 1 -42 1q-93 0 -139 -28.5t-46 -77.5q0 -42 44.5 -69t124.5 -33z" />
    <glyph glyph-name="uni06F7.lf" horiz-adv-x="607" 
d="M473 661l93 -26l-211 -635h-101l-213 636l93 25l170 -537z" />
    <glyph glyph-name="uni06F8.lf" horiz-adv-x="607" 
d="M566 13l-93 -25l-169 538l-170 -538l-93 26l211 635h101z" />
    <glyph glyph-name="uni06F9.lf" horiz-adv-x="558" 
d="M61 453q0 93 57.5 146.5t158.5 53.5h175v-653h-88v270q-38 -2 -53 -2q-123 0 -186.5 47.5t-63.5 137.5zM151 454q0 -51 42.5 -78.5t119.5 -27.5q24 0 51 3v220h-68q-70 0 -107.5 -30.5t-37.5 -86.5z" />
    <glyph glyph-name="uni06F4.urdu" horiz-adv-x="540" 
d="M345 465q-39 106 -97 106q-28 0 -44 -23t-16 -66v-482h-88v481q0 90 38.5 136t100.5 46q85 0 143 -106q32 44 88 96l57 -58q-63 -58 -115 -130h-67z" />
    <glyph glyph-name="uni06F7.urdu" horiz-adv-x="540" 
d="M108 0l-52 83l270 571l86 -38l-257 -534h319v-82h-366z" />
    <glyph glyph-name="uni06F4.urdu.lf" horiz-adv-x="513" 
d="M331 465q-39 106 -97 106q-28 0 -44 -23t-16 -66v-482h-88v481q0 90 38.5 136t100.5 46q85 0 143 -106q32 44 88 96l57 -58q-63 -58 -115 -130h-67z" />
    <glyph glyph-name="uni06F7.urdu.lf" horiz-adv-x="481" 
d="M88 0l-52 83l270 571l86 -38l-257 -534h319v-82h-366z" />
    <glyph glyph-name="acute.case" horiz-adv-x="240" 
d="M286 904l-149 -144h-83l104 144h128z" />
    <glyph glyph-name="breve.case" horiz-adv-x="240" 
d="M-37 896h55q6 -35 34 -53.5t69 -18.5t69 18.5t34 53.5h53q-4 -66 -46 -102t-111 -36q-68 0 -109.5 35.5t-47.5 102.5z" />
    <glyph glyph-name="caron.case" horiz-adv-x="240" 
d="M-45 904h87l78 -96l74 96h91l-112 -144h-106z" />
    <glyph glyph-name="circumflex.case" horiz-adv-x="240" 
d="M46 760h-91l112 144h106l112 -144h-91l-74 96z" />
    <glyph glyph-name="dieresis.case" horiz-adv-x="240" 
d="M18 898q25 0 43.5 -16.5t18.5 -40.5q0 -27 -17.5 -45t-44.5 -18t-44.5 18t-17.5 45q0 23 18.5 40t43.5 17zM222 898q25 0 43.5 -17t18.5 -40q0 -27 -17.5 -45t-44.5 -18q-26 0 -44 18t-18 45q0 23 18 40t44 17z" />
    <glyph glyph-name="dotaccent.case" horiz-adv-x="240" 
d="M120 897q25 0 43.5 -17t18.5 -40q0 -27 -17.5 -45t-44.5 -18t-44.5 18t-17.5 45q0 23 18.5 40t43.5 17z" />
    <glyph glyph-name="grave.case" horiz-adv-x="240" 
d="M82 904l104 -144h-83l-149 144h128z" />
    <glyph glyph-name="hungarumlaut.case" horiz-adv-x="240" 
d="M201 760h-82l104 144h127zM32 760h-82l104 144h127z" />
    <glyph glyph-name="macron.case" horiz-adv-x="240" 
d="M264 854v-66h-288v66h288z" />
    <glyph glyph-name="ring.case" horiz-adv-x="240" 
d="M120 934q42 0 72 -28.5t30 -69.5q0 -42 -29.5 -70.5t-72.5 -28.5q-40 0 -71 28.5t-31 69.5t30 70t72 29zM60 835q0 -24 18.5 -40t41.5 -16t41.5 16.5t18.5 39.5q0 24 -17.5 40.5t-42.5 16.5t-42.5 -16.5t-17.5 -40.5z" />
    <glyph glyph-name="tilde.case" horiz-adv-x="240" 
d="M288 878q-8 -50 -32.5 -77t-61.5 -27q-26 0 -81 21q-49 19 -66 19q-33 0 -47 -44h-48q8 48 35.5 76t65.5 28q25 0 74 -19q5 -2 15.5 -7t16.5 -7.5t15 -4.5t17 -2q36 0 49 44h48z" />
    <glyph glyph-name="waslaar" 
d="M-129 541v43h48v101h42v-43q35 47 87 47q37 0 59 -24t22 -64q0 -25 -11 -60h-247zM42 646q-51 0 -85 -62h127q3 10 3 19q0 20 -12.5 31.5t-32.5 11.5z" />
    <glyph glyph-name="gafsarkashabovear" 
d="M-99 392l-55 55l255 242l53 -54z" />
    <glyph glyph-name="uni0654.big" 
d="M-106 609h45q-17 31 -17 62q0 44 30 70t79 26q30 0 63 -7l-10 -54q-28 5 -42 5q-26 0 -44.5 -12.5t-18.5 -38.5q0 -23 17 -51h110v-55h-212v55z" />
    <glyph glyph-name="uni0654064F" 
d="M-23 759q-32 0 -59 15l17 37q22 -11 42 -11q41 0 59 41q-4 -1 -12 -1q-33 0 -55 16t-22 46q0 32 21 56t52 24q29 0 47.5 -25.5t18.5 -66.5q0 -63 -32 -97t-77 -34zM82 541h-164v43h35q-14 23 -14 47q0 35 23.5 55.5t61.5 20.5q21 0 49 -6l-8 -42q-18 4 -32 4
q-49 0 -49 -39q0 -17 13 -40h85v-43zM16 941q-14 0 -22.5 -10.5t-8.5 -23.5q0 -27 46 -27q11 0 16 1v8q0 22 -8 37t-23 15z" />
    <glyph glyph-name="uni0654064C" 
d="M-134 797l-27 24q33 49 69 49q24 0 54.5 -35t49.5 -35q36 0 56 41q-4 -1 -13 -1q-32 0 -53.5 16t-21.5 46q0 31 21 55.5t50 24.5q30 0 48 -25.5t18 -66.5q0 -60 -33 -95.5t-75 -35.5q-26 0 -46 17.5t-33.5 35t-24.5 17.5q-16 0 -39 -32zM82 541h-164v43h35q-14 23 -14 47
q0 35 23.5 55.5t61.5 20.5q21 0 49 -6l-8 -42q-18 4 -32 4q-49 0 -49 -39q0 -17 13 -40h85v-43zM48 941q-13 0 -21.5 -10.5t-8.5 -23.5q0 -27 44 -27q11 0 16 1v8q0 52 -30 52z" />
    <glyph glyph-name="uni0654064E" 
d="M-82 584h35q-14 23 -14 47q0 35 23.5 55.5t61.5 20.5q21 0 49 -6l-8 -42q-18 4 -32 4q-49 0 -49 -39q0 -17 13 -40h85v-43h-164v43zM-111 754l7 41l224 34l3 -1l-7 -41l-224 -34z" />
    <glyph glyph-name="uni0654064B" 
d="M82 541h-164v43h35q-14 23 -14 47q0 35 23.5 55.5t61.5 20.5q21 0 49 -6l-8 -42q-18 4 -32 4q-49 0 -49 -39q0 -17 13 -40h85v-43zM-108 753l-3 1l7 41l224 34l3 -1l-7 -41zM-108 848l-3 1l7 41l224 34l3 -1l-7 -41z" />
    <glyph glyph-name="uni06540652" 
d="M-56 826q0 33 19.5 59t51.5 26t51.5 -26t19.5 -59t-18.5 -51.5t-52.5 -18.5t-52.5 18.5t-18.5 51.5zM-82 584h35q-14 23 -14 47q0 35 23.5 55.5t61.5 20.5q21 0 49 -6l-8 -42q-18 4 -32 4q-49 0 -49 -39q0 -17 13 -40h85v-43h-164v43zM15 867q-13 0 -21 -11t-8 -27
q0 -30 29 -30t29 30q0 16 -7.5 27t-21.5 11z" />
    <glyph glyph-name="uni06550650" 
d="M-82 -250v42h35q-14 25 -14 48q0 35 23.5 55.5t61.5 20.5q21 0 49 -6l-8 -42q-18 4 -32 4q-49 0 -49 -39q0 -19 14 -41h84v-42h-164zM-108 -381l-3 1l7 42l224 34l3 -1l-7 -42z" />
    <glyph glyph-name="uni0655064D" 
d="M82 -250h-164v42h35q-14 25 -14 48q0 35 23.5 55.5t61.5 20.5q21 0 49 -6l-8 -42q-18 4 -32 4q-49 0 -49 -39q0 -19 14 -41h84v-42zM-108 -466l-3 1l7 42l224 34l3 -1l-7 -42zM-108 -381l-3 1l7 42l224 34l3 -1l-7 -42z" />
    <glyph glyph-name="uni06510670" 
d="M19 717l-38 -12h-6v177h44v-165zM102 687q15 -29 15 -59q0 -31 -16.5 -50.5t-45.5 -19.5q-28 0 -48 18q-17 -27 -54 -27q-34 0 -52 18t-18 48q0 24 11 50l29 -8q-4 -15 -4 -27q0 -35 34 -35q28 0 28 36q0 11 -1 18l31 7q6 -21 6 -38v-2q13 -13 33 -13q29 0 29 29
q0 19 -8 43z" />
    <glyph glyph-name="uni0651064F" 
d="M73 832q0 -63 -32 -97t-77 -34q-32 0 -59 15l17 37q22 -11 42 -11q41 0 59 41q-4 -1 -12 -1q-33 0 -55 16t-22 46q0 32 21 56t52 24q29 0 47.5 -25.5t18.5 -66.5zM18 822q11 0 16 1v8q0 22 -8 37t-23 15q-14 0 -22.5 -10.5t-8.5 -23.5q0 -27 46 -27zM102 687
q15 -29 15 -59q0 -31 -16.5 -50.5t-45.5 -19.5q-28 0 -48 18q-17 -27 -54 -27q-34 0 -52 18t-18 48q0 24 11 50l29 -8q-4 -15 -4 -27q0 -35 34 -35q28 0 28 36q0 11 -1 18l31 7q6 -21 6 -38v-2q13 -13 33 -13q29 0 29 29q0 19 -8 43z" />
    <glyph glyph-name="uni0651064C" 
d="M-4 701q-26 0 -46 17.5t-33.5 35t-24.5 17.5q-16 0 -39 -32l-27 24q33 49 69 49q24 0 54.5 -35t49.5 -35q35 0 56 41q-4 -1 -13 -1q-32 0 -53.5 16t-21.5 46q0 31 21 55.5t50 24.5q30 0 48 -25.5t18 -66.5q0 -60 -33 -95.5t-75 -35.5zM49 822q11 0 16 1v8q0 52 -30 52
q-13 0 -21.5 -10.5t-8.5 -23.5q0 -27 44 -27zM102 687q15 -29 15 -59q0 -31 -16.5 -50.5t-45.5 -19.5q-28 0 -48 18q-17 -27 -54 -27q-34 0 -52 18t-18 48q0 24 11 50l29 -8q-4 -15 -4 -27q0 -35 34 -35q28 0 28 36q0 11 -1 18l31 7q6 -21 6 -38v-2q13 -13 33 -13
q29 0 29 29q0 19 -8 43z" />
    <glyph glyph-name="uni0651064E" 
d="M110 770l-7 -41l-224 -34l-3 1l7 41l224 34zM102 687q15 -29 15 -59q0 -31 -16.5 -50.5t-45.5 -19.5q-28 0 -48 18q-17 -27 -54 -27q-34 0 -52 18t-18 48q0 24 11 50l29 -8q-4 -15 -4 -27q0 -35 34 -35q28 0 28 36q0 11 -1 18l31 7q6 -21 6 -38v-2q13 -13 33 -13
q29 0 29 29q0 19 -8 43z" />
    <glyph glyph-name="uni0651064B.1" 
d="M103 824l-224 -34l-3 1l7 41l224 34l3 -1zM110 770l-7 -41l-224 -34l-3 1l7 41l224 34zM102 687q15 -29 15 -59q0 -31 -16.5 -50.5t-45.5 -19.5q-28 0 -48 18q-17 -27 -54 -27q-34 0 -52 18t-18 48q0 24 11 50l29 -8q-4 -15 -4 -27q0 -35 34 -35q28 0 28 36q0 11 -1 18
l31 7q6 -21 6 -38v-2q13 -13 33 -13q29 0 29 29q0 19 -8 43z" />
    <glyph glyph-name="uni06510650" 
d="M-40 644q-34 0 -52 18t-18 48q0 24 11 50l29 -8q-4 -15 -4 -27q0 -35 34 -35q28 0 28 36q0 11 -1 18l31 7q6 -21 6 -38v-2q13 -13 33 -13q29 0 29 29q0 19 -8 43l31 12q15 -29 15 -59q0 -31 -16.5 -50.5t-45.5 -19.5q-28 0 -48 18q-17 -27 -54 -27zM-110 585l224 34l3 -1
l-7 -41l-224 -34l-3 1z" />
    <glyph glyph-name="uni0651064D" 
d="M-40 739q-34 0 -52 18t-18 48q0 24 11 50l29 -8q-4 -15 -4 -27q0 -35 34 -35q28 0 28 36q0 11 -1 18l31 7q6 -21 6 -38v-2q13 -13 33 -13q29 0 29 29q0 19 -8 43l31 12q15 -29 15 -59q0 -31 -16.5 -50.5t-45.5 -19.5q-28 0 -48 18q-17 -27 -54 -27zM-110 680l224 34l3 -1
l-7 -41l-224 -34l-3 1zM-110 585l224 34l3 -1l-7 -41l-224 -34l-3 1z" />
    </font>
</defs>
</svg>
